<?xml version="1.0" encoding="UTF-8"?>
<svg version="1.1" xmlns="http://www.w3.org/2000/svg" width="512" height="512">
<path d="M0 0 C1.42441083 -0.00374247 2.84881962 -0.00834636 4.27322519 -0.01373065 C8.16471025 -0.02590254 12.05610898 -0.02570708 15.94760871 -0.02334189 C20.1536539 -0.02293224 24.35967194 -0.03398702 28.56570435 -0.04345703 C36.79807641 -0.06003651 45.03041983 -0.06556521 53.26280721 -0.06668179 C59.95866001 -0.06763379 66.65450341 -0.07175169 73.35035324 -0.07808304 C92.35701076 -0.09568778 111.36364573 -0.10492321 130.37031145 -0.10342209 C131.90577575 -0.10330222 131.90577575 -0.10330222 133.47225952 -0.10317993 C134.49716025 -0.10309817 135.52206098 -0.10301641 136.57801931 -0.10293217 C153.17912 -0.10211968 169.78012988 -0.12125011 186.38120432 -0.14945666 C203.44931193 -0.17822662 220.5173753 -0.19199467 237.58550775 -0.19026911 C247.15897927 -0.18960659 256.7323556 -0.19503823 266.30580521 -0.21662521 C274.45840586 -0.23489128 282.61086818 -0.23914005 290.7634805 -0.22560637 C294.91742561 -0.21910375 299.07110574 -0.21886068 303.22502518 -0.23631287 C307.03872924 -0.25216984 310.85196104 -0.2490533 314.66565447 -0.2317446 C316.67546576 -0.22727723 318.68529247 -0.24223231 320.69504511 -0.25822389 C333.32413379 -0.16385962 346.15881766 2.04859909 356.7696228 9.26742554 C357.4605603 9.71601929 358.1514978 10.16461304 358.8633728 10.62680054 C360.55162127 11.76569832 362.16947942 13.00773819 363.7696228 14.26742554 C363.7696228 14.92742554 363.7696228 15.58742554 363.7696228 16.26742554 C365.7496228 17.25742554 365.7496228 17.25742554 367.7696228 18.26742554 C367.7696228 18.92742554 367.7696228 19.58742554 367.7696228 20.26742554 C368.4296228 20.26742554 369.0896228 20.26742554 369.7696228 20.26742554 C382.8179855 36.70497335 384.0764898 53.0210292 383.99667358 73.15097046 C383.99610869 75.15256749 383.99642756 77.15416493 383.99755859 79.15576172 C383.99813004 84.56199946 383.98640951 89.96814761 383.97241068 95.37436461 C383.95986852 101.03445841 383.95873008 106.69455449 383.95635986 112.35466003 C383.95015532 123.06056032 383.9337584 133.76641954 383.91366088 144.47230178 C383.89126993 156.6657895 383.88030042 168.85927924 383.87027001 181.05278242 C383.84939125 206.12435285 383.81423526 231.19588689 383.7696228 256.26742554 C384.83285767 256.24647827 385.89609253 256.22553101 386.99154663 256.20394897 C390.98538421 256.13083655 394.97916429 256.08537054 398.97348022 256.04769897 C400.69298289 256.02774405 402.41241913 256.00056996 404.13168335 255.96566772 C416.3224307 255.72461776 427.77970325 255.62944121 437.2071228 264.57992554 C442.46677596 269.65590827 446.43567409 274.86722294 446.90105057 282.39271164 C446.90402523 283.16031437 446.90699989 283.9279171 446.9100647 284.71878052 C446.91862991 286.04753708 446.91862991 286.04753708 446.92736816 287.40313721 C446.92848602 288.36736603 446.92960388 289.33159485 446.93075562 290.32504272 C446.93572052 291.34665497 446.94068542 292.36826721 446.94580078 293.4208374 C446.9604104 296.80199863 446.96722271 300.18311293 446.9727478 303.56430054 C446.97850057 305.91596477 446.98425829 308.267629 446.99002075 310.61929321 C447.00052756 315.55213642 447.00637222 320.48496334 447.00985718 325.41781616 C447.01533887 331.73049593 447.03936155 338.04295968 447.06782913 344.35557175 C447.08647786 349.21467716 447.09166233 354.07373079 447.09319305 358.93286896 C447.09621543 361.25961741 447.1042299 363.58636504 447.11737823 365.91307831 C447.1344838 369.17296143 447.13254715 372.4323201 447.12606812 375.69223022 C447.13989029 377.12642807 447.13989029 377.12642807 447.1539917 378.58959961 C447.09678922 387.80416447 444.57229111 394.35387501 438.2227478 401.15023804 C429.63015808 408.56613554 420.50581417 410.4188026 409.57987976 410.40786743 C408.65161336 410.41083855 407.72334695 410.41380968 406.76695126 410.41687083 C403.6549583 410.42554574 400.54300385 410.42706507 397.43099976 410.42855835 C395.20020974 410.43318739 392.96942051 410.43821217 390.7386322 410.44360352 C384.676467 410.45672158 378.61431288 410.46317137 372.55213571 410.46761417 C368.76379704 410.47054598 364.9754614 410.474651 361.18712425 410.47911835 C350.68960512 410.49122573 340.19208777 410.50160815 329.69456196 410.50499344 C329.02313782 410.505213 328.35171368 410.50543257 327.65994335 410.50565879 C326.65045378 410.50598621 326.65045378 410.50598621 325.62057048 410.50632024 C324.25692451 410.5067637 322.89327854 410.50721026 321.52963257 410.50765991 C320.51501823 410.50799206 320.51501823 410.50799206 319.47990664 410.50833091 C308.52618705 410.51227669 297.57253407 410.52972507 286.6188402 410.55301943 C275.361449 410.57676554 264.10409002 410.58893909 252.84666985 410.59036136 C246.5306633 410.59140883 240.21475073 410.59730449 233.89876747 410.61518097 C227.95538235 410.63167561 222.0121617 410.63381027 216.06876183 410.62504196 C213.89116347 410.62427233 211.71355623 410.62860453 209.53598022 410.63850021 C206.55522034 410.65124804 203.57504054 410.64532732 200.59428406 410.63491821 C199.73968686 410.64297462 198.88508966 410.65103102 198.00459558 410.65933156 C187.46968084 410.57373363 178.65432537 407.2942071 170.7696228 400.26742554 C163.75105219 392.17021145 161.27967987 383.17807924 161.47665405 372.63851929 C161.4808989 371.76341202 161.48514374 370.88830475 161.48951721 369.98667908 C161.50614299 367.22576482 161.54376315 364.46561449 161.5821228 361.70492554 C161.59719052 359.81886846 161.61087525 357.93279981 161.62313843 356.04672241 C161.65599344 351.45333471 161.70766145 346.86050907 161.7696228 342.26742554 C160.88577848 342.27019092 160.00193417 342.2729563 159.09130669 342.27580547 C137.53910708 342.34219311 115.98692521 342.39176816 94.4346447 342.42286205 C84.01192415 342.43830029 73.58927206 342.45933135 63.16659546 342.4937439 C54.07726179 342.52373972 44.98797772 342.54302264 35.89859593 342.54969102 C31.09031284 342.55358609 26.28217159 342.56267596 21.47393417 342.58461571 C16.93823102 342.60514209 12.4027267 342.61122706 7.86698151 342.60674858 C6.21191702 342.60756662 4.55684513 342.6134353 2.90182114 342.62504196 C-15.92223238 342.75045879 -31.66427131 339.2185315 -46.9725647 327.52914429 C-48.2303772 326.26742554 -48.2303772 326.26742554 -48.2303772 324.26742554 C-48.8903772 324.26742554 -49.5503772 324.26742554 -50.2303772 324.26742554 C-51.95836192 322.17818966 -53.54411541 320.10187586 -55.1053772 317.89242554 C-55.55646851 317.25699829 -56.00755981 316.62157104 -56.47232056 315.96688843 C-63.29111959 306.1070218 -65.37804806 297.13040669 -65.38427734 285.30735779 C-65.3886596 284.29615905 -65.39304185 283.28496031 -65.3975569 282.24311918 C-65.41092533 278.85025911 -65.41711944 275.457425 -65.42324829 272.06454468 C-65.43115091 269.63335046 -65.43941996 267.2021574 -65.44802856 264.77096558 C-65.47197107 257.47147844 -65.48717517 250.1719896 -65.50008863 242.87247697 C-65.50380372 240.808679 -65.5077767 238.7448817 -65.5118413 236.68108439 C-65.53708376 223.84920756 -65.55912423 211.01732957 -65.57156944 198.18543339 C-65.57449886 195.21528685 -65.57746056 192.24514035 -65.58047485 189.2749939 C-65.5812209 188.53683067 -65.58196695 187.79866745 -65.58273561 187.03813564 C-65.59537495 175.09446425 -65.62858094 163.15094221 -65.67027669 151.20734055 C-65.71278951 138.92839894 -65.73627532 126.64953359 -65.74149001 114.37051862 C-65.74489382 107.48311201 -65.75652643 100.59593868 -65.78959274 93.70860481 C-65.82067807 87.22346918 -65.82595785 80.73862777 -65.81420898 74.2534256 C-65.81398887 71.8807645 -65.82224174 69.50808418 -65.83986282 67.13548851 C-65.94916234 51.56378755 -65.25168984 38.53769387 -56.0428772 25.39242554 C-55.36869751 24.40500366 -54.69451782 23.41758179 -53.99990845 22.40023804 C-53.41596313 21.69640991 -52.83201782 20.99258179 -52.2303772 20.26742554 C-51.5703772 20.26742554 -50.9103772 20.26742554 -50.2303772 20.26742554 C-50.2303772 19.60742554 -50.2303772 18.94742554 -50.2303772 18.26742554 C-49.5703772 18.26742554 -48.9103772 18.26742554 -48.2303772 18.26742554 C-48.2303772 17.60742554 -48.2303772 16.94742554 -48.2303772 16.26742554 C-47.5703772 16.26742554 -46.9103772 16.26742554 -46.2303772 16.26742554 C-46.2303772 15.60742554 -46.2303772 14.94742554 -46.2303772 14.26742554 C-31.91754784 2.90569501 -17.87325593 -0.04237944 0 0 Z M246.98446655 299.25180054 C239.31630053 308.97360316 238.58293059 318.41828765 238.58432007 330.44979858 C238.58214022 332.56304267 238.5639754 334.67575843 238.54501343 336.78890991 C238.48776773 350.09400995 240.85723127 360.53236534 249.9727478 370.63461304 C258.53453975 378.41467616 267.86554077 380.78041005 279.20321655 380.57601929 C289.46612805 379.6879908 297.71976908 374.88082967 304.55477905 367.28305054 C310.19011387 360.13849829 312.8410388 352.82805176 313.0821228 343.70492554 C313.11950562 342.77551147 313.15688843 341.84609741 313.19540405 340.88851929 C312.62757608 337.3929911 311.54710733 336.4315854 308.7696228 334.26742554 C305.55301241 333.65254008 305.55301241 333.65254008 301.9571228 333.73617554 C301.30638794 333.73234863 300.65565308 333.72852173 299.98519897 333.72457886 C298.61351977 333.72186478 297.24178836 333.72919101 295.87020874 333.74594116 C293.77560595 333.76736434 291.68443196 333.74612917 289.5899353 333.72055054 C288.25399027 333.72319391 286.91804735 333.7283191 285.5821228 333.73617554 C284.37169312 333.74068726 283.16126343 333.74519897 281.91415405 333.74984741 C278.69720862 334.03207754 278.69720862 334.03207754 276.3399353 336.07797241 C274.41564656 338.30099302 274.41564656 338.30099302 274.8321228 341.82992554 C275.7603493 345.23342268 276.06879149 346.22003971 278.7696228 348.26742554 C280.89135865 348.67863996 280.89135865 348.67863996 283.21884155 348.56039429 C284.49017944 348.54589233 284.49017944 348.54589233 285.78720093 348.53109741 C286.66827515 348.50596069 287.54934937 348.48082397 288.4571228 348.45492554 C289.34979858 348.44139038 290.24247437 348.42785522 291.16220093 348.41390991 C293.36528446 348.37856633 295.56714863 348.32923047 297.7696228 348.26742554 C297.00887438 349.89717118 296.23563847 351.52109202 295.4571228 353.14242554 C295.02786499 354.04734741 294.59860718 354.95226929 294.15634155 355.88461304 C292.7696228 358.26742554 292.7696228 358.26742554 289.7696228 360.26742554 C289.7696228 360.92742554 289.7696228 361.58742554 289.7696228 362.26742554 C282.51127434 365.21284231 275.79238268 366.80318816 268.12509155 364.45883179 C261.62967653 361.64447655 257.75027738 357.69068115 254.7696228 351.26742554 C253.3436695 345.40258716 253.54635863 339.51961892 253.5196228 333.51742554 C253.4989978 332.37531616 253.4783728 331.23320679 253.4571228 330.05648804 C253.41858603 321.67474012 254.33050399 315.06958133 258.8946228 307.95492554 C263.83615544 303.33566676 268.98418007 301.08400918 275.7696228 300.76742554 C283.26284536 301.12700742 288.58313149 303.98126206 293.9571228 309.07992554 C296.96055835 311.92739842 296.96055835 311.92739842 301.0821228 312.45492554 C304.20852772 311.07349081 305.36939339 310.3973501 306.7696228 307.26742554 C307.24194713 303.87594642 307.24194713 303.87594642 305.7696228 300.26742554 C298.87574978 292.42014454 290.09313478 286.86342035 279.60165405 286.00961304 C266.31934008 285.57507714 255.97386643 289.25920724 246.98446655 299.25180054 Z M323.7696228 288.26742554 C322.53812575 291.9619167 322.60611596 295.39105963 322.59262085 299.23959351 C322.58604965 300.05130005 322.57947845 300.86300659 322.57270813 301.6993103 C322.55299326 304.38607882 322.54131778 307.07279155 322.53134155 309.75961304 C322.52726603 310.6773563 322.5231905 311.59509956 322.51899147 312.54065323 C322.49814041 317.39635238 322.48383342 322.25202334 322.47445679 327.10775757 C322.46338258 332.12386642 322.42896834 337.13953287 322.38928509 342.15548515 C322.36315153 346.01252064 322.35476795 349.86945007 322.35117531 353.72656631 C322.34630244 355.57574585 322.33466854 357.42492042 322.31613731 359.27401352 C322.29181052 361.86185669 322.29269858 364.4485462 322.2996521 367.03646851 C322.28043701 368.18062729 322.28043701 368.18062729 322.26083374 369.34790039 C322.29660685 373.00220525 322.67581428 375.11496653 324.60758972 378.2545166 C326.6596008 380.54913558 326.6596008 380.54913558 329.8321228 380.70492554 C332.95214085 380.45346991 332.95214085 380.45346991 335.7696228 378.26742554 C337.01154516 374.54165846 336.93320461 371.06925435 336.94662476 367.18759155 C336.95319595 366.36452515 336.95976715 365.54145874 336.96653748 364.69345093 C336.98625129 361.9694103 336.99792676 359.24542465 337.00790405 356.52133179 C337.01197958 355.59130781 337.01605511 354.66128384 337.02025414 353.70307732 C337.0411034 348.7836924 337.05541193 343.86433531 337.06478882 338.94491577 C337.07587078 333.85920928 337.11029441 328.77393821 337.14996052 323.68838596 C337.17607111 319.78077873 337.18447553 315.87327633 337.1880703 311.96558952 C337.19294807 310.09046413 337.2045958 308.21534378 337.22310829 306.34030342 C337.24738932 303.71873226 337.24655559 301.09830261 337.23959351 298.47665405 C337.25240356 297.70093552 337.26521362 296.92521698 337.27841187 296.12599182 C337.2444221 292.61940178 337.04156167 290.63578347 334.93165588 287.77778625 C330.87691952 284.94521418 327.71749511 285.63551066 323.7696228 288.26742554 Z M351.7696228 288.26742554 C350.53812575 291.9619167 350.60611596 295.39105963 350.59262085 299.23959351 C350.58604965 300.05130005 350.57947845 300.86300659 350.57270813 301.6993103 C350.55299326 304.38607882 350.54131778 307.07279155 350.53134155 309.75961304 C350.52726603 310.6773563 350.5231905 311.59509956 350.51899147 312.54065323 C350.49814041 317.39635238 350.48383342 322.25202334 350.47445679 327.10775757 C350.46338258 332.12386642 350.42896834 337.13953287 350.38928509 342.15548515 C350.36315153 346.01252064 350.35476795 349.86945007 350.35117531 353.72656631 C350.34630244 355.57574585 350.33466854 357.42492042 350.31613731 359.27401352 C350.29181052 361.86185669 350.29269858 364.4485462 350.2996521 367.03646851 C350.28043701 368.18062729 350.28043701 368.18062729 350.26083374 369.34790039 C350.29661231 373.00276275 350.67260379 375.11049472 352.61149597 378.2467041 C354.65665601 380.52431647 354.65665601 380.52431647 357.7696228 380.82992554 C361.52423757 380.12593527 362.48697744 379.3113542 364.7696228 376.26742554 C365.18748982 373.46046551 365.37436593 371.02890613 365.3789978 368.22055054 C365.39553406 367.44934875 365.41207031 366.67814697 365.42910767 365.88357544 C365.47756873 363.42811099 365.49895318 360.9732657 365.5196228 358.51742554 C365.54778426 356.84942567 365.57771194 355.18145462 365.60946655 353.51351929 C365.68332652 349.43153903 365.73291216 345.34990208 365.7696228 341.26742554 C366.57182251 341.2476062 367.37402222 341.22778687 368.20053101 341.20736694 C371.82806457 341.11223059 375.45501325 341.00250473 379.0821228 340.89242554 C380.34475952 340.86148804 381.60739624 340.83055054 382.90829468 340.79867554 C384.72103882 340.74066772 384.72103882 340.74066772 386.57040405 340.68148804 C387.68584595 340.65006714 388.80128784 340.61864624 389.95053101 340.58627319 C392.97331066 340.46217653 392.97331066 340.46217653 395.7696228 338.26742554 C396.83410881 334.25811404 396.83410881 334.25811404 396.7696228 330.26742554 C394.58660758 327.4558621 393.37764339 326.38060686 389.83700562 325.7215271 C388.72680054 325.70057983 387.61659546 325.67963257 386.4727478 325.65805054 C385.26747437 325.62582397 384.06220093 325.59359741 382.82040405 325.56039429 C381.56614624 325.5462146 380.31188843 325.53203491 379.0196228 325.51742554 C377.74989624 325.4877771 376.48016968 325.45812866 375.17196655 325.42758179 C372.03819444 325.3568952 368.9039043 325.30989548 365.7696228 325.26742554 C365.7696228 317.34742554 365.7696228 309.42742554 365.7696228 301.26742554 C368.24977905 301.25324585 370.7299353 301.23906616 373.2852478 301.22445679 C375.69147291 301.19382872 378.0974225 301.15474233 380.50350952 301.11483765 C382.17365756 301.09166365 383.84395161 301.07726329 385.51425171 301.0718689 C387.91800859 301.06257418 390.31947121 301.02157893 392.7227478 300.97445679 C393.8401535 300.98035576 393.8401535 300.98035576 394.98013306 300.9863739 C398.76557558 300.88021278 400.45463993 300.55814356 403.27645874 297.95370483 C405.30761362 294.29955226 404.89053966 292.22799842 403.7696228 288.26742554 C400.61251188 286.16268493 399.858853 286.01579328 396.2539978 286.00863647 C395.34295288 286.00233215 394.43190796 285.99602783 393.49325562 285.98953247 C392.51195679 285.99358093 391.53065796 285.99762939 390.5196228 286.00180054 C389.5099646 285.99988708 388.5003064 285.99797363 387.46005249 285.9960022 C385.32495881 285.99464095 383.18985684 285.99833317 381.05477905 286.00668335 C377.78245492 286.01738358 374.51067981 286.00678587 371.2383728 285.99398804 C369.16545492 285.99530964 367.09253738 285.99787206 365.0196228 286.00180054 C364.03832397 285.99775208 363.05702515 285.99370361 362.04598999 285.98953247 C361.13494507 285.99583679 360.22390015 286.00214111 359.2852478 286.00863647 C358.48377319 286.01022766 357.68229858 286.01181885 356.85653687 286.01345825 C354.46463655 286.14566096 354.46463655 286.14566096 351.7696228 288.26742554 Z " fill="#D4D9DC" transform="translate(65.23037719726563,50.732574462890625)"/>
<path d="M0 0 C8.83584226 5.11046012 14.81122622 12.73812048 21.10546875 20.59765625 C23.86058126 23.92218788 26.74481579 27.09207529 29.6875 30.25 C30.20675049 30.80727783 30.72600098 31.36455566 31.26098633 31.9387207 C32.25763934 33.00798496 33.25430228 34.07723995 34.25097656 35.14648438 C38.05312013 39.25155376 41.67129896 43.51631885 45.30078125 47.7734375 C46.32533092 48.97412041 47.35007646 50.17463621 48.375 51.375 C48.89231689 51.98118164 49.40963379 52.58736328 49.94262695 53.21191406 C53.14752229 56.9532082 56.41459278 60.62365383 59.75 64.25 C62.93986844 67.72386309 65.98298894 71.26160025 68.9375 74.9375 C72.80468863 79.7339071 76.91230716 84.2329146 81.12060547 88.72607422 C84.23789336 92.07331785 87.19816482 95.49245906 90.0625 99.0625 C94.40061256 104.46542201 99.06401501 109.50932342 103.78515625 114.57421875 C107.13131853 118.16410418 110.37318282 121.83273368 113.5625 125.5625 C114.01077148 126.08440918 114.45904297 126.60631836 114.92089844 127.14404297 C116.45051259 128.92661273 117.97585419 130.71275327 119.5 132.5 C119.99765869 133.08072266 120.49531738 133.66144531 121.00805664 134.25976562 C124.5625 138.447175 124.5625 138.447175 124.5625 139.5625 C123.63558224 139.56304477 122.70866447 139.56358953 121.75365829 139.56415081 C99.16723311 139.57856617 76.5810002 139.62166534 53.99468613 139.69459057 C43.07195568 139.72919773 32.14935088 139.75459049 21.2265625 139.75805664 C11.70279143 139.76110247 2.17924437 139.78167618 -7.34444022 139.82302457 C-12.3840782 139.8443 -17.42339814 139.85698326 -22.46308136 139.84865379 C-27.21402266 139.84107908 -31.96432137 139.85707472 -36.71514511 139.89056015 C-38.45164726 139.89875236 -40.18821381 139.89859221 -41.92470932 139.88909721 C-57.69895066 139.73652927 -57.69895066 139.73652927 -71.12863541 147.22789288 C-71.77652338 147.8885234 -71.77652338 147.8885234 -72.4375 148.5625 C-73.0975 148.5625 -73.7575 148.5625 -74.4375 148.5625 C-74.71464844 149.12066406 -74.99179688 149.67882812 -75.27734375 150.25390625 C-76.06964452 151.83050475 -76.87495523 153.40061517 -77.69140625 154.96484375 C-78.12324219 155.80144531 -78.55507812 156.63804687 -79 157.5 C-79.43441406 158.33402344 -79.86882812 159.16804687 -80.31640625 160.02734375 C-82.24141531 164.38041302 -82.56662262 168.53212939 -82.62695312 173.25488281 C-82.64367065 174.37243958 -82.66038818 175.48999634 -82.6776123 176.64141846 C-82.69118774 177.83740662 -82.70476318 179.03339478 -82.71875 180.265625 C-82.74636414 182.11592316 -82.74636414 182.11592316 -82.77453613 184.00360107 C-82.84323804 188.61093217 -82.90391904 193.21835108 -82.96356201 197.82580566 C-83.02246185 202.3475006 -83.08855938 206.86905443 -83.15625 211.390625 C-83.16982544 212.59471008 -83.18340088 213.79879517 -83.1973877 215.03936768 C-83.21410522 216.1443158 -83.23082275 217.24926392 -83.24804688 218.38769531 C-83.26057495 219.36522766 -83.27310303 220.34276001 -83.28601074 221.34991455 C-83.4375 223.5625 -83.4375 223.5625 -84.4375 224.5625 C-86.64615281 224.66612035 -88.85818358 224.69773853 -91.06925964 224.70294189 C-91.77077426 224.70591302 -92.47228887 224.70888414 -93.1950615 224.7119453 C-95.56389072 224.72066972 -97.93266962 224.72214376 -100.30151367 224.72363281 C-101.99321095 224.7282588 -103.68490717 224.73328316 -105.37660217 224.73867798 C-109.98890572 224.75183587 -114.60119469 224.75825495 -119.21351409 224.76268864 C-122.09798043 224.7656174 -124.98244278 224.7697221 -127.86690712 224.77419281 C-136.89899337 224.78788431 -145.9310705 224.79753961 -154.96316642 224.8013947 C-165.37325708 224.80586239 -175.78321559 224.82334314 -186.19326609 224.8523953 C-194.24524583 224.87408141 -202.29718861 224.88410287 -210.34919721 224.88543582 C-215.15410105 224.88648004 -219.95888094 224.89230433 -224.76375389 224.91025543 C-229.29537939 224.92685334 -233.82678943 224.92883533 -238.35843468 224.92011642 C-240.01188233 224.91935194 -241.66534211 224.92360993 -243.31875992 224.93357468 C-262.13490076 225.04021491 -277.87776318 221.50874255 -293.1796875 209.82421875 C-294.4375 208.5625 -294.4375 208.5625 -294.4375 206.5625 C-295.0975 206.5625 -295.7575 206.5625 -296.4375 206.5625 C-298.16548472 204.47326412 -299.75123821 202.39695032 -301.3125 200.1875 C-301.76359131 199.55207275 -302.21468262 198.91664551 -302.67944336 198.26196289 C-312.06133216 184.69591236 -313.65819401 168.73071076 -311.4375 152.5625 C-309.31698098 147.70515349 -306.40402991 144.99119535 -302.4375 141.5625 C-300.38747195 139.44111889 -298.41857688 137.24812401 -296.4375 135.0625 C-295.40669025 133.95792232 -294.3754455 132.85375042 -293.34375 131.75 C-290.75491328 128.94542688 -288.32665252 126.0402843 -285.9375 123.0625 C-282.11755989 118.30141522 -278.04811181 113.84976975 -273.87890625 109.3984375 C-270.76181446 106.05133131 -267.80168887 102.63235859 -264.9375 99.0625 C-261.06982156 94.24548231 -256.96527645 89.7125552 -252.74926758 85.20288086 C-249.97100558 82.23079701 -247.25930983 79.22697382 -244.625 76.125 C-238.37629758 68.97287072 -231.84215964 63.29746094 -222.1015625 62.1796875 C-211.57684642 61.8372347 -204.34776353 63.76797405 -196.375 70.6875 C-189.78545068 76.98875653 -183.84611278 83.78534765 -178.125 90.875 C-174.71329122 95.09646863 -171.14448676 99.10340079 -167.4375 103.0625 C-162.90969399 107.89902006 -158.63626732 112.87192644 -154.484375 118.0390625 C-151.56772009 121.63478593 -148.5173214 125.10636601 -145.4375 128.5625 C-140.42537391 124.83553444 -136.81396085 120.4582367 -132.92578125 115.58984375 C-130.36365577 112.47265812 -127.68836855 109.5115 -124.9375 106.5625 C-121.48542779 102.85432168 -118.17225159 99.0774075 -115 95.125 C-111.15639943 90.34628372 -107.06789836 85.87092313 -102.87915039 81.39868164 C-99.76196055 78.05150673 -96.80176202 74.63244977 -93.9375 71.0625 C-90.11755989 66.30141522 -86.04811181 61.84976975 -81.87890625 57.3984375 C-78.76181446 54.05133131 -75.80168887 50.63235859 -72.9375 47.0625 C-69.1169151 42.30061158 -65.04682197 37.84814406 -60.87670898 33.39624023 C-57.77969916 30.070952 -54.84128316 26.67530061 -52 23.125 C-38.54190696 6.55745586 -23.22561848 -10.56247872 0 0 Z " fill="#256F3A" transform="translate(311.4375,168.4375)"/>
<path d="M0 0 C3.31780517 -0.04988724 6.63568718 -0.08504326 9.95369351 -0.11853087 C11.4744256 -0.13798028 12.99508757 -0.16459864 14.51554739 -0.19933045 C25.69793523 -0.45303838 36.0223929 0.3551075 44.52068555 8.42346966 C49.78033871 13.4994524 53.74923684 18.71076706 54.21461332 26.23625576 C54.21758798 27.00385849 54.22056264 27.77146122 54.22362745 28.56232464 C54.22933759 29.44816235 54.23504774 30.33400006 54.24093091 31.24668133 C54.24204877 32.21091015 54.24316663 33.17513897 54.24431837 34.16858685 C54.24928327 35.19019909 54.25424818 36.21181134 54.25936353 37.26438153 C54.27397316 40.64554275 54.28078546 44.02665705 54.28631055 47.40784466 C54.29206332 49.7595089 54.29782104 52.11117312 54.3035835 54.46283734 C54.31409031 59.39568054 54.31993497 64.32850747 54.32341993 69.26136029 C54.32890162 75.57404005 54.3529243 81.8865038 54.38139188 88.19911587 C54.40004061 93.05822128 54.40522508 97.91727491 54.40675581 102.77641308 C54.40977818 105.10316154 54.41779265 107.42990917 54.43094099 109.75662243 C54.44804655 113.01650556 54.4461099 116.27586422 54.43963087 119.53577435 C54.44884565 120.49190625 54.45806043 121.44803814 54.46755445 122.43314373 C54.41035197 131.64770859 51.88585386 138.19741914 45.53631055 144.99378216 C36.94372083 152.40967966 27.81937692 154.26234672 16.89344251 154.25141156 C15.96517611 154.25438268 15.0369097 154.2573538 14.08051401 154.26041496 C10.96852105 154.26908987 7.85656661 154.27060919 4.74456251 154.27210248 C2.51377249 154.27673152 0.28298326 154.28175629 -1.94780505 154.28714764 C-8.00997024 154.3002657 -14.07212437 154.3067155 -20.13430154 154.3111583 C-23.92264021 154.3140901 -27.71097585 154.31819513 -31.499313 154.32266247 C-41.99683213 154.33476985 -52.49434948 154.34515228 -62.99187529 154.34853756 C-63.66329943 154.34875713 -64.33472357 154.3489767 -65.0264939 154.34920292 C-66.03598347 154.34953033 -66.03598347 154.34953033 -67.06586677 154.34986436 C-68.42951274 154.35030782 -69.79315871 154.35075439 -71.15680468 154.35120404 C-72.17141901 154.35153618 -72.17141901 154.35153618 -73.20653061 154.35187504 C-84.1602502 154.35582082 -95.11390318 154.3732692 -106.06759705 154.39656356 C-117.32498825 154.42030967 -128.58234723 154.43248322 -139.8397674 154.43390548 C-146.15577395 154.43495296 -152.47168652 154.44084862 -158.78766978 154.45872509 C-164.7310549 154.47521974 -170.67427555 154.4773544 -176.61767542 154.46858609 C-178.79527378 154.46781645 -180.97288102 154.47214866 -183.15045702 154.48204434 C-186.13121691 154.49479216 -189.11139671 154.48887145 -192.09215319 154.47846234 C-192.94675039 154.48651874 -193.80134759 154.49457515 -194.68184167 154.50287569 C-205.21675641 154.41727775 -214.03211188 151.13775123 -221.91681445 144.11096966 C-224.36123392 141.29088152 -226.29680992 138.47210055 -227.91681445 135.11096966 C-228.18606738 134.55772015 -228.45532031 134.00447064 -228.73273242 133.43445599 C-231.99339794 125.50567797 -231.27948032 116.95506925 -231.16681445 108.54846966 C-231.15271428 106.78276975 -231.13947318 105.01706281 -231.12701952 103.25135052 C-231.09535563 99.36679846 -231.05127253 95.48260689 -230.99933398 91.59827435 C-230.93840337 87.02345271 -230.89162728 82.44873636 -230.85382617 77.87366498 C-230.80118868 71.5570388 -230.7316695 65.24079711 -230.65033495 58.92447674 C-230.61981596 56.4369559 -230.59348509 53.94937992 -230.57147753 51.46176922 C-230.53801436 47.93953405 -230.4856104 44.41804787 -230.4285332 40.89612591 C-230.42212313 39.85284131 -230.41571307 38.8095567 -230.40910876 37.73465741 C-230.19472991 27.00719877 -227.83438003 18.71153046 -220.66681445 10.54846966 C-213.23420256 3.96047276 -206.01813851 0.80558976 -195.99661791 0.83249676 C-194.82646425 0.82380816 -194.82646425 0.82380816 -193.63267112 0.81494403 C-191.02665965 0.79798389 -188.4208258 0.79507053 -185.81476367 0.79212201 C-183.94127499 0.78281837 -182.06779045 0.77264905 -180.19431078 0.76168072 C-175.10151101 0.73434604 -170.00873903 0.71920936 -164.91588509 0.70625269 C-159.55150877 0.6905586 -154.18718765 0.66376511 -148.82285082 0.63822186 C-138.62366126 0.59136581 -128.42446085 0.55469012 -118.22521853 0.52154899 C-106.76294878 0.48376987 -95.30074098 0.43405495 -83.83852136 0.38356483 C-69.80066194 0.32214634 -55.76278587 0.26441991 -41.7248894 0.21213543 C-40.73213767 0.20837175 -39.73938594 0.20460806 -38.71655083 0.20073032 C-33.88176375 0.18302281 -29.04700679 0.16864598 -24.21219218 0.16132939 C-16.14049478 0.1478432 -8.07086072 0.12519997 0 0 Z M-145.7019707 43.09534466 C-153.37013672 52.81714728 -154.10350666 62.26183177 -154.10211718 74.29334271 C-154.10429703 76.4065868 -154.12246185 78.51930255 -154.14142382 80.63245404 C-154.19866952 93.93755408 -151.82920598 104.37590946 -142.71368945 114.47815716 C-134.1518975 122.25822028 -124.82089648 124.62395417 -113.4832207 124.41956341 C-103.2203092 123.53153493 -94.96666817 118.7243738 -88.1316582 111.12659466 C-82.49632338 103.98204242 -79.84539845 96.67159589 -79.60431445 87.54846966 C-79.56693163 86.6190556 -79.52954882 85.68964154 -79.4910332 84.73206341 C-80.05886117 81.23653523 -81.13932992 80.27512953 -83.91681445 78.11096966 C-87.13342484 77.4960842 -87.13342484 77.4960842 -90.72931445 77.57971966 C-91.38004931 77.57589276 -92.03078417 77.57206585 -92.70123827 77.56812298 C-94.07291748 77.5654089 -95.44464889 77.57273514 -96.81622851 77.58948529 C-98.9108313 77.61090847 -101.00200529 77.5896733 -103.09650195 77.56409466 C-104.43244698 77.56673804 -105.7683899 77.57186323 -107.10431445 77.57971966 C-108.31474413 77.58423138 -109.52517382 77.5887431 -110.7722832 77.59339154 C-113.98922863 77.87562166 -113.98922863 77.87562166 -116.34650195 79.92151654 C-118.27079069 82.14453714 -118.27079069 82.14453714 -117.85431445 85.67346966 C-116.92608795 89.07696681 -116.61764575 90.06358384 -113.91681445 92.11096966 C-111.7950786 92.52218409 -111.7950786 92.52218409 -109.4675957 92.40393841 C-108.19625781 92.38943646 -108.19625781 92.38943646 -106.89923632 92.37464154 C-106.0181621 92.34950482 -105.13708788 92.3243681 -104.22931445 92.29846966 C-103.33663867 92.28493451 -102.44396288 92.27139935 -101.52423632 92.25745404 C-99.32115279 92.22211045 -97.11928862 92.17277459 -94.91681445 92.11096966 C-95.67756287 93.7407153 -96.45079878 95.36463614 -97.22931445 96.98596966 C-97.65857226 97.89089154 -98.08783007 98.79581341 -98.5300957 99.72815716 C-99.91681445 102.11096966 -99.91681445 102.11096966 -102.91681445 104.11096966 C-102.91681445 104.77096966 -102.91681445 105.43096966 -102.91681445 106.11096966 C-110.17516291 109.05638643 -116.89405457 110.64673228 -124.5613457 108.30237591 C-131.05676072 105.48802068 -134.93615987 101.53422528 -137.91681445 95.11096966 C-139.34276775 89.24613128 -139.14007862 83.36316305 -139.16681445 77.36096966 C-139.18743945 76.21886029 -139.20806445 75.07675091 -139.22931445 73.90003216 C-139.26785122 65.51828425 -138.35593326 58.91312546 -133.79181445 51.79846966 C-128.85028181 47.17921089 -123.70225718 44.9275533 -116.91681445 44.61096966 C-109.42359189 44.97055155 -104.10330576 47.82480618 -98.72931445 52.92346966 C-95.7258789 55.77094255 -95.7258789 55.77094255 -91.60431445 56.29846966 C-88.47790953 54.91703493 -87.31704386 54.24089423 -85.91681445 51.11096966 C-85.44449012 47.71949055 -85.44449012 47.71949055 -86.91681445 44.11096966 C-93.81068747 36.26368867 -102.59330247 30.70696447 -113.0847832 29.85315716 C-126.36709717 29.41862126 -136.71257082 33.10275136 -145.7019707 43.09534466 Z M-68.91681445 32.11096966 C-70.1483115 35.80546083 -70.08032128 39.23460376 -70.0938164 43.08313763 C-70.1003876 43.89484417 -70.10695879 44.70655072 -70.11372912 45.54285443 C-70.13344398 48.22962295 -70.14511947 50.91633567 -70.1550957 53.60315716 C-70.15917122 54.52090043 -70.16324675 55.43864369 -70.16744578 56.38419735 C-70.18829684 61.23989651 -70.20260383 66.09556747 -70.21198046 70.95130169 C-70.22305467 75.96741055 -70.25746891 80.98307699 -70.29715216 85.99902928 C-70.32328572 89.85606477 -70.33166929 93.7129942 -70.33526194 97.57011044 C-70.34013481 99.41928997 -70.35176871 101.26846455 -70.37029994 103.11755764 C-70.39462673 105.70540081 -70.39373866 108.29209033 -70.38678515 110.88001263 C-70.40600024 112.02417141 -70.40600024 112.02417141 -70.42560351 113.19144452 C-70.3898304 116.84574938 -70.01062297 118.95851065 -68.07884753 122.09806073 C-66.02683645 124.3926797 -66.02683645 124.3926797 -62.85431445 124.54846966 C-59.7342964 124.29701404 -59.7342964 124.29701404 -56.91681445 122.11096966 C-55.67489209 118.38520258 -55.75323263 114.91279848 -55.73981249 111.03113568 C-55.7332413 110.20806927 -55.7266701 109.38500287 -55.71989977 108.53699505 C-55.70018596 105.81295442 -55.68851049 103.08896878 -55.6785332 100.36487591 C-55.67445767 99.43485194 -55.67038214 98.50482796 -55.66618311 97.54662144 C-55.64533385 92.62723652 -55.63102532 87.70787943 -55.62164843 82.7884599 C-55.61056647 77.7027534 -55.57614284 72.61748233 -55.53647673 67.53193009 C-55.51036614 63.62432286 -55.50196172 59.71682046 -55.49836695 55.80913365 C-55.49348917 53.93400825 -55.48184145 52.0588879 -55.46332896 50.18384755 C-55.43904793 47.56227639 -55.43988166 44.94184674 -55.44684374 42.32019818 C-55.43403368 41.54447964 -55.42122363 40.76876111 -55.40802538 39.96953595 C-55.44201515 36.46294591 -55.64487558 34.4793276 -57.75478137 31.62133038 C-61.80951773 28.78875831 -64.96894214 29.47905479 -68.91681445 32.11096966 Z M-40.91681445 32.11096966 C-42.1483115 35.80546083 -42.08032128 39.23460376 -42.0938164 43.08313763 C-42.1003876 43.89484417 -42.10695879 44.70655072 -42.11372912 45.54285443 C-42.13344398 48.22962295 -42.14511947 50.91633567 -42.1550957 53.60315716 C-42.15917122 54.52090043 -42.16324675 55.43864369 -42.16744578 56.38419735 C-42.18829684 61.23989651 -42.20260383 66.09556747 -42.21198046 70.95130169 C-42.22305467 75.96741055 -42.25746891 80.98307699 -42.29715216 85.99902928 C-42.32328572 89.85606477 -42.33166929 93.7129942 -42.33526194 97.57011044 C-42.34013481 99.41928997 -42.35176871 101.26846455 -42.37029994 103.11755764 C-42.39462673 105.70540081 -42.39373866 108.29209033 -42.38678515 110.88001263 C-42.40600024 112.02417141 -42.40600024 112.02417141 -42.42560351 113.19144452 C-42.38982494 116.84630688 -42.01383346 118.95403884 -40.07494128 122.09024823 C-38.02978124 124.3678606 -38.02978124 124.3678606 -34.91681445 124.67346966 C-31.16219967 123.96947939 -30.1994598 123.15489833 -27.91681445 120.11096966 C-27.49894743 117.30400963 -27.31207132 114.87245025 -27.30743945 112.06409466 C-27.29090319 111.29289288 -27.27436694 110.5216911 -27.25732958 109.72711957 C-27.20886852 107.27165512 -27.18748407 104.81680983 -27.16681445 102.36096966 C-27.13865299 100.69296979 -27.1087253 99.02499875 -27.0769707 97.35706341 C-27.00311073 93.27508316 -26.95352509 89.19344621 -26.91681445 85.11096966 C-26.11461474 85.09115033 -25.31241503 85.07133099 -24.48590624 85.05091107 C-20.85837268 84.95577471 -17.231424 84.84604886 -13.60431445 84.73596966 C-12.34167773 84.70503216 -11.07904101 84.67409466 -9.77814257 84.64221966 C-7.96539843 84.58421185 -7.96539843 84.58421185 -6.1160332 84.52503216 C-5.0005913 84.49361126 -3.88514941 84.46219037 -2.73590624 84.42981732 C0.28687341 84.30572066 0.28687341 84.30572066 3.08318555 82.11096966 C4.14767156 78.10165817 4.14767156 78.10165817 4.08318555 74.11096966 C1.90017033 71.29940623 0.69120614 70.22415098 -2.84943163 69.56507123 C-3.95963671 69.54412396 -5.06984179 69.52317669 -6.21368945 69.50159466 C-7.41896288 69.4693681 -8.62423632 69.43714154 -9.8660332 69.40393841 C-11.12029101 69.38975873 -12.37454882 69.37557904 -13.66681445 69.36096966 C-14.93654101 69.33132123 -16.20626757 69.30167279 -17.5144707 69.27112591 C-20.64824281 69.20043932 -23.78253295 69.1534396 -26.91681445 69.11096966 C-26.91681445 61.19096966 -26.91681445 53.27096966 -26.91681445 45.11096966 C-24.4366582 45.09678998 -21.95650195 45.08261029 -19.40118945 45.06800091 C-16.99496434 45.03737284 -14.58901475 44.99828645 -12.18292773 44.95838177 C-10.51277969 44.93520778 -8.84248564 44.92080741 -7.17218554 44.91541302 C-4.76842866 44.9061183 -2.36696604 44.86512306 0.03631055 44.81800091 C1.15371625 44.82389988 1.15371625 44.82389988 2.29369581 44.82991803 C6.07913833 44.72375691 7.76820268 44.40168769 10.59002149 41.79724896 C12.62117637 38.14309639 12.20410241 36.07154254 11.08318555 32.11096966 C7.92607464 30.00622905 7.17241576 29.8593374 3.56756055 29.8521806 C2.65651563 29.84587628 1.74547071 29.83957196 0.80681837 29.8330766 C-0.17448046 29.83712506 -1.15577929 29.84117352 -2.16681445 29.84534466 C-3.17647265 29.84343121 -4.18613085 29.84151776 -5.22638476 29.83954632 C-7.36147844 29.83818508 -9.49658041 29.84187729 -11.6316582 29.85022748 C-14.90398232 29.8609277 -18.17575744 29.85032999 -21.44806445 29.83753216 C-23.52098233 29.83885377 -25.59389987 29.84141618 -27.66681445 29.84534466 C-28.64811327 29.8412962 -29.6294121 29.83724774 -30.64044726 29.8330766 C-31.55149218 29.83938092 -32.4625371 29.84568524 -33.40118945 29.8521806 C-34.20266406 29.85377179 -35.00413867 29.85536297 -35.82990038 29.85700238 C-38.2218007 29.98920508 -38.2218007 29.98920508 -40.91681445 32.11096966 Z " fill="#4DB1FE" transform="translate(457.9168144464493,306.8890303373337)"/>
<path d="M0 0 C10.28888354 6.30938147 18.18419146 16.478076 25.67578125 25.76171875 C29.08749003 29.98318738 32.65629449 33.99011954 36.36328125 37.94921875 C40.89344958 42.7882622 45.17742447 47.75555285 49.3125 52.94140625 C51.81351555 55.99979098 54.49319818 58.86288884 57.24609375 61.6953125 C58.36328125 63.44921875 58.36328125 63.44921875 58.38671875 65.29296875 C56.83195541 68.56865334 54.36299244 70.94197911 51.86328125 73.51171875 C48.0336359 77.54530972 44.33796064 81.59948223 40.86328125 85.94921875 C37.52025173 90.11589323 34.01204012 94.05331911 30.36328125 97.94921875 C25.81023245 102.81299695 21.50295504 107.80861881 17.3359375 113.01171875 C15.1628824 115.6968403 12.89145538 118.27325716 10.5546875 120.81640625 C6.28439205 126.66881116 6.60744699 133.53413934 7.36328125 140.44921875 C9.37943202 147.61340498 12.97478649 151.59403334 19.27734375 155.390625 C21.46341256 156.56444768 21.46341256 156.56444768 24.36328125 157.44921875 C24.36328125 158.10921875 24.36328125 158.76921875 24.36328125 159.44921875 C14.30479564 159.51911851 4.24636902 159.57223118 -5.81231117 159.60465527 C-10.48433718 159.62022711 -15.15619547 159.64130788 -19.828125 159.67553711 C-24.34745274 159.7084363 -28.86662044 159.72613531 -33.38605881 159.73385048 C-35.0994048 159.73933971 -36.8127433 159.75005657 -38.52602005 159.76640892 C-57.75977243 159.94247271 -73.70256546 156.68136509 -89.37890625 144.7109375 C-90.63671875 143.44921875 -90.63671875 143.44921875 -90.63671875 141.44921875 C-91.29671875 141.44921875 -91.95671875 141.44921875 -92.63671875 141.44921875 C-94.36470347 139.35998287 -95.95045696 137.28366907 -97.51171875 135.07421875 C-97.96281006 134.4387915 -98.41390137 133.80336426 -98.87866211 133.14868164 C-108.26055091 119.58263111 -109.85741276 103.61742951 -107.63671875 87.44921875 C-105.51619973 82.59187224 -102.60324866 79.8779141 -98.63671875 76.44921875 C-96.5866907 74.32783764 -94.61779563 72.13484276 -92.63671875 69.94921875 C-91.605909 68.84464107 -90.57466425 67.74046917 -89.54296875 66.63671875 C-86.95413203 63.83214563 -84.52587127 60.92700305 -82.13671875 57.94921875 C-78.31677864 53.18813397 -74.24733056 48.7364885 -70.078125 44.28515625 C-66.96103321 40.93805006 -64.00090762 37.51907734 -61.13671875 33.94921875 C-57.26904031 29.13220106 -53.1644952 24.59927395 -48.94848633 20.08959961 C-46.17022433 17.11751576 -43.45852858 14.11369257 -40.82421875 11.01171875 C-30.11656474 -1.24402982 -15.91237863 -7.42230427 0 0 Z " fill="#5DC022" transform="translate(107.63671875,233.55078125)"/>
<path d="M0 0 C0.72574219 0.41378906 1.45148438 0.82757813 2.19921875 1.25390625 C3.36517578 1.89005859 3.36517578 1.89005859 4.5546875 2.5390625 C14.21861767 8.35037059 20.22824138 17.44432342 23.19921875 28.25390625 C24.57020406 40.46424418 22.218309 51.14758128 15.19921875 61.25390625 C8.02355213 69.50209243 -0.33154777 74.70194909 -11.296875 75.796875 C-23.7418581 76.55241379 -32.39920782 73.87604536 -42.44921875 66.2421875 C-49.66793814 59.75493303 -54.52924325 51.51234566 -55.26953125 41.734375 C-55.72376573 29.445869 -53.65701077 19.98066661 -45.80078125 10.25390625 C-34.36817242 -1.99004901 -15.61527786 -7.60880262 0 0 Z " fill="#FEB301" transform="translate(180.80078125,103.74609375)"/>
<path d="M0 0 C1.79143681 -0.01390715 3.58286486 -0.02898414 5.37428284 -0.0451355 C10.21497953 -0.08427283 15.0555519 -0.10379271 19.89638186 -0.11716747 C22.9240855 -0.12599012 25.95175585 -0.1383095 28.9794426 -0.15167999 C38.46319392 -0.19262598 47.94686832 -0.22167154 57.43070185 -0.23328567 C68.36076733 -0.24674758 79.28971099 -0.29951378 90.21943533 -0.38628745 C98.68425876 -0.45115149 107.14876641 -0.48139867 115.61383569 -0.48540902 C120.66360723 -0.48854984 125.71232044 -0.50619903 130.76182938 -0.55986786 C135.50827499 -0.60934435 140.25286751 -0.61576586 144.99947929 -0.58945084 C146.7377399 -0.58714196 148.47610077 -0.60014061 150.21410942 -0.62982559 C163.33839039 -0.84079591 163.33839039 -0.84079591 168.0499382 2.52349091 C173.19287109 8.18201788 173.19287109 8.18201788 173.19287109 10.48339844 C172.26595333 10.4839432 171.33903557 10.48448797 170.38402939 10.48504925 C147.7976042 10.49946461 125.21137129 10.54256377 102.62505722 10.61548901 C91.70232678 10.65009617 80.77972198 10.67548893 69.85693359 10.67895508 C60.33316252 10.68200091 50.80961547 10.70257462 41.28593087 10.74392301 C36.24629289 10.76519843 31.20697296 10.7778817 26.16728973 10.76955223 C21.41634843 10.76197752 16.66604972 10.77797316 11.91522598 10.81145859 C10.17872384 10.8196508 8.44215729 10.81949065 6.70566177 10.80999565 C-9.06857956 10.65742771 -9.06857956 10.65742771 -22.49826431 18.14879131 C-22.93018963 18.58921166 -23.36211494 19.02963202 -23.80712891 19.48339844 C-24.46712891 19.48339844 -25.12712891 19.48339844 -25.80712891 19.48339844 C-26.22285156 20.32064453 -26.22285156 20.32064453 -26.64697266 21.17480469 C-27.43927342 22.75140318 -28.24458414 24.3215136 -29.06103516 25.88574219 C-29.49287109 26.72234375 -29.92470703 27.55894531 -30.36962891 28.42089844 C-30.80404297 29.25492187 -31.23845703 30.08894531 -31.68603516 30.94824219 C-33.61104422 35.30131145 -33.93625153 39.45302782 -33.99658203 44.17578125 C-34.01329956 45.29333801 -34.03001709 46.41089478 -34.04724121 47.56231689 C-34.06081665 48.75830505 -34.07439209 49.95429321 -34.08837891 51.18652344 C-34.10678833 52.42005554 -34.12519775 53.65358765 -34.14416504 54.92449951 C-34.21286695 59.53183061 -34.27354794 64.13924951 -34.33319092 68.7467041 C-34.39209075 73.26839904 -34.45818828 77.78995287 -34.52587891 82.31152344 C-34.53945435 83.51560852 -34.55302979 84.7196936 -34.5670166 85.96026611 C-34.58373413 87.06521423 -34.60045166 88.17016235 -34.61767578 89.30859375 C-34.6364679 90.77489227 -34.6364679 90.77489227 -34.65563965 92.27081299 C-34.80712891 94.48339844 -34.80712891 94.48339844 -35.80712891 95.48339844 C-38.65730188 95.58927633 -41.48337259 95.63017578 -44.33422852 95.62866211 C-45.67562141 95.63370003 -45.67562141 95.63370003 -47.04411316 95.63883972 C-50.01591358 95.64838001 -52.98765785 95.65029436 -55.95947266 95.65136719 C-58.01591516 95.65457759 -60.07235743 95.6579415 -62.12879944 95.66145325 C-66.44565358 95.66745221 -70.76248768 95.66929236 -75.0793457 95.66870117 C-80.6225322 95.6685995 -86.16559076 95.68225377 -91.70874691 95.69947338 C-95.95769343 95.71056854 -100.20660878 95.71262115 -104.45556831 95.71209145 C-106.49978641 95.71327524 -108.54400523 95.71771922 -110.58820915 95.72542381 C-113.44244329 95.73517387 -116.29639652 95.73236551 -119.15063477 95.72631836 C-120.00214111 95.73193787 -120.85364746 95.73755737 -121.73095703 95.74334717 C-127.57881361 95.71171373 -127.57881361 95.71171373 -129.80712891 93.48339844 C-101.75712891 93.48339844 -73.70712891 93.48339844 -44.80712891 93.48339844 C-44.92564123 72.16797532 -44.92564123 72.16797532 -45.07739258 50.8527832 C-45.08615945 48.16846068 -45.09380291 45.48413415 -45.10009766 42.79980469 C-45.10793777 42.11345444 -45.11577789 41.42710419 -45.12385559 40.71995544 C-45.25598651 28.52961561 -43.77257258 19.07444286 -35.80712891 9.48339844 C-25.8145969 -0.38019767 -13.15361646 0.02390372 0 0 Z " fill="#206031" transform="translate(262.80712890625,297.5166015625)"/>
<path d="M0 0 C6.93 0 13.86 0 21 0 C21.33 3.3 21.66 6.6 22 10 C9.89609263 11.37698946 9.89609263 11.37698946 5.2890625 8.03125 C0 1.99751805 0 1.99751805 0 0 Z " fill="#C6CACD" transform="translate(428,298)"/>
</svg>
