<?xml version="1.0" encoding="UTF-8"?>
<svg version="1.1" xmlns="http://www.w3.org/2000/svg" width="512" height="512">
<path d="M0 0 C1.49997286 -0.00302645 2.99994417 -0.00691839 4.4999128 -0.01159257 C8.59054425 -0.02181658 12.68108751 -0.01970521 16.77172601 -0.01541197 C21.19497442 -0.01293473 25.61820215 -0.0219709 30.04144287 -0.02944946 C38.69230038 -0.04216775 47.3431268 -0.043994 55.99399208 -0.0416492 C63.023129 -0.0398638 70.0522565 -0.04162042 77.08139229 -0.04587364 C78.5838092 -0.04676643 78.5838092 -0.04676643 80.11657797 -0.04767724 C82.15144491 -0.04888901 84.18631184 -0.05010315 86.22117878 -0.05131962 C105.27994088 -0.06218266 124.33868527 -0.06003766 143.39744837 -0.05393478 C160.84001827 -0.04875843 178.28253245 -0.06004215 195.72509133 -0.07903299 C213.64184727 -0.09839061 231.55857682 -0.10667158 249.47534329 -0.10290974 C259.5318743 -0.1009956 269.5883578 -0.10350662 279.64488029 -0.11762428 C288.19920794 -0.12951207 296.75345876 -0.13097177 305.30778741 -0.11883412 C309.67298959 -0.11292904 314.03805106 -0.11189105 318.40324402 -0.12383652 C322.3969468 -0.13463881 326.39039041 -0.13165997 330.38408078 -0.11757483 C331.83063848 -0.1149124 333.27721613 -0.11734262 334.72375434 -0.1253107 C336.68663534 -0.13537484 338.64958907 -0.12522883 340.61246395 -0.1140337 C341.70373055 -0.11408871 342.79499716 -0.11414373 343.91933244 -0.11420041 C347.33847312 0.32353065 349.18655866 1.0695407 351.84767151 3.26069641 C352.17767151 4.91069641 352.50767151 6.56069641 352.84767151 8.26069641 C357.46767151 8.26069641 362.08767151 8.26069641 366.84767151 8.26069641 C367.17767151 6.61069641 367.50767151 4.96069641 367.84767151 3.26069641 C372.12934081 -0.65557529 377.06739074 -0.15863948 382.53907776 -0.10258484 C383.48016891 -0.10308334 384.42126007 -0.10358185 385.39086914 -0.10409546 C387.38210663 -0.10175819 389.37334725 -0.09205017 391.36451721 -0.07548523 C394.37545503 -0.05207353 397.38549495 -0.05490497 400.39649963 -0.06156921 C418.39112667 -0.03606228 432.89935073 0.83885027 446.58204651 13.72554016 C452.91231383 20.80889101 457.09197283 29.79580858 457.10494041 39.34342575 C457.11138931 40.54749313 457.1178382 41.75156051 457.12448251 42.99211478 C457.12138531 44.30630275 457.1182881 45.62049072 457.11509705 46.97450256 C457.11883501 48.39148776 457.12343712 49.80847089 457.12882769 51.22545075 C457.14105516 55.11475362 457.14079752 59.00397044 457.13843894 62.89328814 C457.13803071 67.08974564 457.14907058 71.28617559 457.15855408 75.48262024 C457.17516391 83.70283228 457.18066363 91.92301563 457.18177883 100.14324304 C457.18272936 106.82589451 457.1868399 113.50853652 457.19318008 120.191185 C457.21079282 139.14119405 457.22001896 158.09118045 457.21851914 177.04119775 C457.21839927 178.57345798 457.21839927 178.57345798 457.21827698 180.13667297 C457.21819522 181.15942834 457.21811345 182.18218371 457.21802922 183.23593166 C457.21721641 199.80900746 457.23635252 216.38199235 457.26455371 232.95504186 C457.29328752 249.97553335 457.30709372 266.99598053 457.30536616 284.0164969 C457.30470241 293.57083363 457.3101882 303.12507508 457.33172226 312.67938995 C457.34994064 320.81469227 457.35427603 328.94985611 457.34070341 337.08517 C457.33417693 341.23429346 457.33404483 345.38315131 457.35140991 349.53224945 C457.36716018 353.33469803 457.36425744 357.13667082 457.34684165 360.93910792 C457.34232986 362.95752101 457.35741376 364.97594897 457.37332094 366.99430442 C457.28070775 379.22343652 453.43382141 389.20613499 445.03517151 398.20210266 C431.84906075 410.5109117 416.15208625 410.56298445 399.0849762 410.5146637 C397.3012568 410.51697138 395.51753835 410.52014997 393.73382187 410.52411819 C388.85859541 410.53243248 383.98344771 410.52835626 379.10822105 410.52214575 C373.84025425 410.51760845 368.5723007 410.52461135 363.30433655 410.53010559 C352.99475975 410.5389876 342.68521212 410.53708289 332.37563419 410.53128031 C323.99501367 410.52675914 315.6144013 410.52615289 307.23377991 410.52832794 C306.03991441 410.52863441 304.8460489 410.52894087 303.61600566 410.52925663 C301.19050884 410.52989609 298.76501202 410.53054452 296.33951521 410.53120181 C273.60846418 410.53690161 250.87742929 410.5303527 228.1463809 410.51960108 C208.65227177 410.51066589 189.15818646 410.51221803 169.66407776 410.5214386 C147.0130232 410.5321474 124.36198279 410.53635232 101.71092606 410.53021407 C99.29447174 410.52957699 96.87801743 410.52894825 94.46156311 410.52832794 C93.27269587 410.52801939 92.08382864 410.52771084 90.85893512 410.52739294 C82.49071586 410.52566783 74.12250559 410.52857713 65.75428772 410.53328705 C55.55290701 410.53890265 45.35155706 410.53736512 35.15017986 410.52672556 C29.94770807 410.52147803 24.74528754 410.51939648 19.54281616 410.52602386 C14.7759418 410.5320044 10.00916599 410.52867356 5.24230051 410.51806876 C3.52240422 410.51584364 1.80249953 410.51695095 0.0826087 410.52182034 C-17.47855009 410.56770702 -31.58703806 409.32179541 -44.88670349 396.79585266 C-51.21697082 389.71250181 -55.39662981 380.72558424 -55.4095974 371.17796707 C-55.41927074 369.371866 -55.41927074 369.371866 -55.42913949 367.52927804 C-55.42604229 366.21509007 -55.42294509 364.9009021 -55.41975403 363.54689026 C-55.42349199 362.12990507 -55.4280941 360.71292194 -55.43348467 359.29594207 C-55.44571214 355.40663921 -55.44545451 351.51742238 -55.44309592 347.62810469 C-55.44268769 343.43164718 -55.45372756 339.23521724 -55.46321106 335.03877258 C-55.47982089 326.81856055 -55.48532061 318.59837719 -55.48643582 310.37814978 C-55.48738634 303.69549831 -55.49149688 297.0128563 -55.49783707 290.33020782 C-55.51544981 271.38019877 -55.52467594 252.43021237 -55.52317612 233.48019508 C-55.52309621 232.45868825 -55.52301629 231.43718143 -55.52293396 230.38471985 C-55.5228522 229.36196448 -55.52277044 228.33920911 -55.5226862 227.28546116 C-55.5218734 210.71238536 -55.54100951 194.13940047 -55.56921069 177.56635097 C-55.59794451 160.54585947 -55.6117507 143.52541229 -55.61002314 126.50489593 C-55.60935939 116.95055919 -55.61484518 107.39631775 -55.63637924 97.84200287 C-55.65459762 89.70670055 -55.65893302 81.57153671 -55.6453604 73.43622282 C-55.63883392 69.28709936 -55.63870181 65.13824151 -55.65606689 60.98914337 C-55.67181716 57.1866948 -55.66891442 53.38472201 -55.65149863 49.5822849 C-55.64698684 47.56387181 -55.66207075 45.54544385 -55.67797792 43.5270884 C-55.58536473 31.29795631 -51.73847839 21.31525783 -43.33982849 12.31929016 C-30.84917221 0.65966544 -16.35464689 -0.04722977 0 0 Z " fill="#CA7853" transform="translate(55.15232849121094,50.73930358886719)"/>
<path d="M0 0 C136.62 0 273.24 0 414 0 C414 52.8 414 105.6 414 160 C413.34 160 412.68 160 412 160 C412 159.34 412 158.68 412 158 C411.26117584 157.72369751 410.52235168 157.44739502 409.76113892 157.16271973 C407.21742064 156.09155616 405.11602391 154.91612474 402.82177734 153.39648438 C402.02751343 152.87354797 401.23324951 152.35061157 400.41491699 151.81182861 C399.56385376 151.24486267 398.71279053 150.67789673 397.8359375 150.09375 C396.93830688 149.50084167 396.04067627 148.90793335 395.11584473 148.29705811 C392.19934311 146.36902764 389.28715082 144.43459434 386.375 142.5 C384.37931185 141.17899503 382.3833801 139.85835803 380.38720703 138.53808594 C368.08527053 130.39644069 355.79707452 122.23328523 343.54443359 114.01757812 C342.55781738 113.35693359 341.57120117 112.69628906 340.5546875 112.015625 C339.29374268 111.16919434 339.29374268 111.16919434 338.00732422 110.30566406 C334.41559631 107.9694246 332.32821858 107.43523245 328 108 C325.0438466 109.71494297 322.49448814 111.87718596 319.875 114.0625 C318.27495858 115.35345005 316.67333729 116.6424439 315.0703125 117.9296875 C313.82556152 118.93660645 313.82556152 118.93660645 312.55566406 119.96386719 C308.3618298 123.30515279 304.05508369 126.49171936 299.75 129.6875 C292.82589201 134.85258907 285.98374823 140.10349277 279.2109375 145.46484375 C272.4477621 150.81783381 265.57548524 156.03217493 258.72265625 161.26953125 C257.9860376 161.83285156 257.24941895 162.39617187 256.49047852 162.9765625 C255.00946826 164.10753339 253.52690778 165.23647744 252.04272461 166.36328125 C247.5367539 169.79051711 243.12807855 173.30155135 238.859375 177.0234375 C236.21988292 178.40972536 234.84213137 177.78010679 232 177 C229.6418457 175.76342773 229.6418457 175.76342773 227.17578125 174.18359375 C226.24193604 173.59175293 225.30809082 172.99991211 224.34594727 172.39013672 C223.34490967 171.7457666 222.34387207 171.10139648 221.3125 170.4375 C219.16202967 169.07331768 217.01096631 167.71006987 214.859375 166.34765625 C214.30327042 165.99421143 213.74716583 165.6407666 213.17420959 165.27661133 C206.83905135 161.25189459 200.45369563 157.30991385 194.0625 153.375 C192.99233643 152.71298584 191.92217285 152.05097168 190.81958008 151.36889648 C187.88897596 149.56340408 184.94851472 147.77606361 182 146 C181.15034668 145.48211914 180.30069336 144.96423828 179.42529297 144.43066406 C178.64428223 143.97143555 177.86327148 143.51220703 177.05859375 143.0390625 C176.39013428 142.64154785 175.7216748 142.2440332 175.03295898 141.83447266 C172.45656707 140.77693602 170.76739045 140.66368335 168 141 C165.5618394 142.17200162 165.5618394 142.17200162 163.15234375 143.91796875 C162.17628174 144.58111084 161.20021973 145.24425293 160.19458008 145.92749023 C159.11974365 146.67329346 158.04490723 147.41909668 156.9375 148.1875 C155.16843316 149.39516391 153.39623908 150.59814125 151.62376404 151.80079651 C150.31155048 152.69121787 149.00019088 153.58289874 147.68959045 154.47569275 C137.04037619 161.71733123 126.24021552 168.73443859 115.47409058 175.80038452 C105.92871612 182.06818263 96.40482194 188.35639436 87.0125885 194.85198975 C78.30873988 200.87127075 69.52589003 206.77397972 60.75 212.6875 C59.36882492 213.61820816 59.36882492 213.61820816 57.95974731 214.56771851 C52.24576574 218.4171707 46.52976961 222.26361881 40.81256104 226.10827637 C38.05209012 227.96496427 35.29235945 229.8227483 32.53271484 231.68066406 C28.29555407 234.53237975 24.05491567 237.37884783 19.81140137 240.22109985 C18.23344516 241.2789196 16.65653308 242.33829861 15.08068848 243.39926147 C12.90956713 244.8604193 10.73465731 246.31574787 8.55859375 247.76953125 C7.59768074 248.41887131 7.59768074 248.41887131 6.61735535 249.08132935 C2.22851619 252 2.22851619 252 0 252 C0 168.84 0 85.68 0 0 Z " fill="#6DD8F5" transform="translate(49,101)"/>
<path d="M0 0 C3.59488566 0.44289861 6.03682274 1.40740865 9.00708008 3.44238281 C10.14456192 4.21257248 10.14456192 4.21257248 11.30502319 4.99832153 C12.11831085 5.56090668 12.93159851 6.12349182 13.76953125 6.703125 C14.63115875 7.28915497 15.49278625 7.87518494 16.38052368 8.47897339 C18.2331951 9.74014759 20.08339697 11.0049557 21.93136597 12.27301025 C26.7742836 15.59614565 31.63433015 18.89407356 36.4921875 22.1953125 C37.46552536 22.85784027 38.43886322 23.52036804 39.44169617 24.20297241 C49.69613824 31.17420363 60.06107323 37.97152046 70.45043945 44.73925781 C71.07348969 45.14564484 71.69653992 45.55203186 72.33847046 45.97073364 C73.98813926 47.04614046 75.63938696 48.11912421 77.29077148 49.19189453 C79.57930968 50.71923651 81.7988831 52.34916233 84 54 C84 97.56 84 141.12 84 186 C-52.62 186 -189.24 186 -330 186 C-330 146 -330 146 -321.88671875 136.76953125 C-319.07373047 134.80932617 -319.07373047 134.80932617 -316.54296875 133.6484375 C-315.59083496 133.18663086 -314.63870117 132.72482422 -313.65771484 132.24902344 C-312.1874585 131.53794434 -312.1874585 131.53794434 -310.6875 130.8125 C-308.67054344 129.68944436 -306.66280925 128.54968456 -304.6640625 127.39453125 C-300.52708589 125.01763983 -296.36129438 122.71185113 -292.16162109 120.44775391 C-283.42493266 115.65798734 -275.30576138 110.00238845 -267.1322937 104.32247925 C-262.71593949 101.26479845 -258.2598264 98.26638646 -253.8046875 95.265625 C-252.91972092 94.6683812 -252.03475433 94.07113739 -251.12297058 93.45579529 C-240.10107212 86.02736766 -228.98882791 78.73561534 -217.87472534 71.44616699 C-207.92747373 64.92176787 -198.01107368 58.3600948 -188.18359375 51.65625 C-187.32145264 51.06898132 -186.45931152 50.48171265 -185.57104492 49.87664795 C-181.49149829 47.09596126 -177.41867877 44.30618664 -173.35595703 41.50097656 C-171.91587146 40.51601083 -170.47561464 39.53129542 -169.03515625 38.546875 C-168.39146591 38.09735474 -167.74777557 37.64783447 -167.08457947 37.18469238 C-163.79050595 34.94521654 -161.043225 33.13823355 -157 33 C-154.91723633 33.82592773 -154.91723633 33.82592773 -152.83203125 35.18359375 C-152.03474609 35.69083984 -151.23746094 36.19808594 -150.41601562 36.72070312 C-149.12727539 37.57051758 -149.12727539 37.57051758 -147.8125 38.4375 C-145.92378248 39.64547834 -144.03443017 40.85246458 -142.14453125 42.05859375 C-141.14631348 42.7016748 -140.1480957 43.34475586 -139.11962891 44.00732422 C-133.79121494 47.41087053 -128.3921901 50.69881373 -123 54 C-120.78086773 55.36396158 -118.56211436 56.72853984 -116.34375 58.09375 C-115.27125 58.75375 -114.19875 59.41375 -113.09375 60.09375 C-108.55796627 62.88852584 -104.02849572 65.69343567 -99.5 68.5 C-89.35367681 74.78603049 -79.20035803 81.06049234 -69.0234375 87.296875 C-65.40867059 89.51248659 -61.80759349 91.74593567 -58.2265625 94.015625 C-57.53997559 94.44456055 -56.85338867 94.87349609 -56.14599609 95.31542969 C-54.40993524 96.40007652 -52.68114336 97.4963355 -50.953125 98.59375 C-47.66714116 100.15850421 -45.59487708 100.37596852 -42 100 C-39.98048938 99.06402685 -39.98048938 99.06402685 -39 97 C-37.91416823 93.67526792 -37.91416823 93.67526792 -39 90 C-40.88323038 88.25485778 -40.88323038 88.25485778 -43.32421875 86.7109375 C-44.6855896 85.80118164 -44.6855896 85.80118164 -46.07446289 84.87304688 C-50.87958457 81.79661413 -55.73318794 78.81137795 -60.625 75.875 C-62.59661204 74.6853231 -64.56797105 73.49522674 -66.5390625 72.3046875 C-67.46493164 71.74620117 -68.39080078 71.18771484 -69.34472656 70.61230469 C-72.91841161 68.44233263 -76.46172936 66.22717748 -80 64 C-78.57072237 60.55746401 -76.91813119 58.89599009 -73.921875 56.71484375 C-73.0976001 56.10729248 -72.2733252 55.49974121 -71.42407227 54.8737793 C-70.54162842 54.23480713 -69.65918457 53.59583496 -68.75 52.9375 C-66.91963488 51.58981474 -65.0902117 50.24084926 -63.26171875 48.890625 C-62.36243652 48.22869141 -61.4631543 47.56675781 -60.53662109 46.88476562 C-57.16364222 44.37856766 -53.85379084 41.79959025 -50.5625 39.1875 C-49.45062272 38.30716297 -48.33864533 37.42695236 -47.2265625 36.546875 C-46.69321289 36.12470703 -46.15986328 35.70253906 -45.61035156 35.26757812 C-41.30302057 31.87708957 -36.94191316 28.55532988 -32.59130859 25.22070312 C-29.97462222 23.21342606 -27.36279461 21.19983871 -24.75 19.1875 C-20.98531189 16.28878982 -17.21436094 13.39846155 -13.4375 10.515625 C-12.27202637 9.62580933 -12.27202637 9.62580933 -11.08300781 8.71801758 C-9.54641034 7.54530877 -8.0093133 6.37325421 -6.47167969 5.2019043 C-5.77461914 4.66992432 -5.07755859 4.13794434 -4.359375 3.58984375 C-3.73514648 3.11409912 -3.11091797 2.63835449 -2.46777344 2.14819336 C-1.03397061 1.07439183 -1.03397061 1.07439183 0 0 Z " fill="#5BCB2D" transform="translate(379,225)"/>
<path d="M0 0 C2.06982309 0.0025392 4.13965428 0.00111262 6.20947266 -0.00398254 C11.82535115 -0.00656544 17.43950045 0.04635407 23.05497694 0.10918307 C28.92455247 0.16543657 34.79416745 0.17073096 40.66397095 0.18141174 C51.77768413 0.20938747 62.89060074 0.28324626 74.00396311 0.37355715 C89.02243575 0.49295354 104.04112616 0.54154235 119.05995369 0.59407711 C142.72106712 0.67871047 166.38049957 0.85800552 190.04150391 1.02172852 C190.04150391 53.16172852 190.04150391 105.30172852 190.04150391 159.02172852 C181.04262591 154.52228952 181.04262591 154.52228952 177.59863281 152.17529297 C176.43281929 151.38633385 176.43281929 151.38633385 175.24345398 150.58143616 C174.01813713 149.74170509 174.01813713 149.74170509 172.76806641 148.88500977 C171.45724846 147.99579079 171.45724846 147.99579079 170.11994934 147.08860779 C168.25875344 145.82554561 166.3989683 144.56040246 164.54049683 143.29333496 C159.71840624 140.00627441 154.88552218 136.73516059 150.05322266 133.46313477 C149.10304764 132.81927826 148.15287262 132.17542175 147.17390442 131.51205444 C139.32045168 126.19603196 131.42346198 120.95061387 123.47900391 115.77172852 C121.89563232 114.73786011 121.89563232 114.73786011 120.28027344 113.68310547 C113.28052827 108.71922461 113.28052827 108.71922461 105.04150391 108.02172852 C102.08535051 109.73667149 99.53599204 111.89891447 96.91650391 114.08422852 C95.31646249 115.37517856 93.7148412 116.66417241 92.11181641 117.95141602 C90.86706543 118.95833496 90.86706543 118.95833496 89.59716797 119.9855957 C85.40333371 123.32688131 81.09658759 126.51344787 76.79150391 129.70922852 C69.86739591 134.87431759 63.02525213 140.12522128 56.25244141 145.48657227 C49.48926601 150.83956233 42.61698914 156.05390345 35.76416016 161.29125977 C34.65923218 162.13624023 34.65923218 162.13624023 33.53198242 162.99829102 C32.05097217 164.12926191 30.56841169 165.25820595 29.08422852 166.38500977 C24.5782578 169.81224563 20.16958245 173.32327987 15.90087891 177.04516602 C13.26138682 178.43145387 11.88363528 177.80183531 9.04150391 177.02172852 C6.68334961 175.78515625 6.68334961 175.78515625 4.21728516 174.20532227 C3.28343994 173.61348145 2.34959473 173.02164063 1.38745117 172.41186523 C0.38641357 171.76749512 -0.61462402 171.123125 -1.64599609 170.45922852 C-3.79646642 169.0950462 -5.94752979 167.73179838 -8.09912109 166.36938477 C-8.65522568 166.01593994 -9.21133026 165.66249512 -9.7842865 165.29833984 C-16.11944474 161.2736231 -22.50480047 157.33164237 -28.89599609 153.39672852 C-29.96615967 152.73471436 -31.03632324 152.0727002 -32.13891602 151.390625 C-35.06953674 149.58512236 -38.0092319 147.79658978 -40.95849609 146.02172852 C-41.79654785 145.51544922 -42.63459961 145.00916992 -43.49804688 144.48754883 C-44.27003418 144.03734375 -45.04202148 143.58713867 -45.83740234 143.12329102 C-46.49426025 142.73737793 -47.15111816 142.35146484 -47.82788086 141.95385742 C-50.49700889 140.78613302 -53.08199838 140.40840274 -55.95849609 140.02172852 C-56.38330927 116.24744043 -56.11691151 93.18598917 -49.54736328 70.1237793 C-48.89471327 67.79404606 -48.28980671 65.45418024 -47.68505859 63.11157227 C-43.44145277 47.05196525 -37.07802254 32.15885787 -29.77099609 17.27172852 C-29.47467285 16.66482178 -29.17834961 16.05791504 -28.87304688 15.43261719 C-28.29008736 14.27957861 -27.67664734 13.1412991 -27.02974892 12.0228796 C-25.8935684 10.02185554 -25.8935684 10.02185554 -25.15044212 7.73336887 C-20.59362178 -2.37525068 -9.43948631 -0.16115061 0 0 Z " fill="#92E4F8" transform="translate(271.95849609375,100.978271484375)"/>
<path d="M0 0 C1.09794045 -0.00827125 1.09794045 -0.00827125 2.21806151 -0.0167096 C4.67828011 -0.03033817 7.13749419 -0.01539022 9.5976944 -0.00063419 C11.3762397 -0.00452587 13.15478189 -0.01016524 14.93331671 -0.01740509 C19.82655544 -0.03219693 24.71947359 -0.02195638 29.61270213 -0.00766838 C34.88748577 0.00341636 40.1622235 -0.0084929 45.43700409 -0.01751041 C55.77263024 -0.03146194 66.10813443 -0.02387257 76.44375479 -0.00883483 C88.47340193 0.00800313 100.5030185 0.0048178 112.53267378 0.00107109 C133.99288926 -0.004811 155.45304612 0.00937776 176.91324615 0.03401852 C197.74953153 0.05794029 218.58573857 0.06502321 239.42203522 0.05452633 C262.09715112 0.0431236 284.77223076 0.04117908 307.44734621 0.05562443 C309.86406485 0.05715031 312.28078349 0.05867066 314.69750214 0.06018543 C315.88665516 0.06094325 317.07580819 0.06170106 318.30099615 0.06248184 C326.69146089 0.06722965 335.08190947 0.06536971 343.47237396 0.06112003 C353.69390629 0.05619936 363.91536448 0.06215097 374.1368798 0.08201433 C379.35465619 0.09190328 384.57231954 0.09697417 389.79010201 0.08912182 C394.56310784 0.08208565 399.33588517 0.08882114 404.10886079 0.10672545 C405.83893254 0.11078338 407.56902499 0.10974767 409.29908913 0.10320658 C411.64476227 0.09509452 413.98965834 0.10532145 416.33528137 0.12025452 C418.29228147 0.12179821 418.29228147 0.12179821 420.28881693 0.12337309 C424.19803329 0.55978213 426.86749307 1.70042363 429.66764069 4.50057125 C429.76775332 6.2648212 429.79688007 8.03311942 429.79906845 9.80020618 C429.8029096 10.95683447 429.80675074 12.11346275 429.81070828 13.30514038 C429.8098418 14.59197601 429.80897532 15.87881164 429.80808258 17.2046423 C429.81066403 18.57280185 429.81367656 19.94096065 429.81708598 21.30911839 C429.82518518 25.08639347 429.82694717 28.86364958 429.82768345 32.64093232 C429.82952895 36.70781833 429.8370737 40.77469438 429.84381866 44.84157467 C429.85742313 53.74225811 429.86342996 62.64293706 429.86782932 71.54362917 C429.87058813 77.09677349 429.87482481 82.64991606 429.8793335 88.2030592 C429.89152883 103.56521845 429.90182768 118.9273763 429.90520859 134.28954029 C429.90542815 135.27349742 429.90564772 136.25745455 429.90587394 137.27122856 C429.90609222 138.25759681 429.90631049 139.24396507 429.90653539 140.26022327 C429.90697886 142.25912182 429.90742542 144.25802036 429.90787506 146.25691891 C429.90809649 147.24845058 429.90831792 148.23998225 429.90854606 149.26156034 C429.91249578 165.33527576 429.92995392 181.4089459 429.95323458 197.48264383 C429.97692023 213.9684427 429.98940916 230.45421882 429.99057651 246.94003499 C429.99149483 256.20301504 429.99728655 265.4659361 430.01539612 274.72889996 C430.03075956 282.61527201 430.03593989 290.50156684 430.02765802 298.387951 C430.02373814 302.41461764 430.02474582 306.44112859 430.03871536 310.4677763 C430.05137476 314.15032653 430.05032767 317.83260281 430.03812465 321.51515223 C430.03521635 323.48628405 430.04716348 325.45742025 430.05954671 327.42851532 C430.05295686 328.59035909 430.04636702 329.75220287 430.03957748 330.94925404 C430.04017457 331.95611 430.04077166 332.96296596 430.04138684 334.00033271 C429.66764069 336.50057125 429.66764069 336.50057125 428.33189464 338.28502858 C424.64631493 340.97691308 420.9781579 340.62876828 416.58137703 340.63479233 C415.48689812 340.63832067 415.48689812 340.63832067 414.37030852 340.6419203 C411.90622292 340.64861865 409.44218996 340.64815183 406.97809601 340.64774227 C405.20128053 340.65104036 403.4244658 340.65476581 401.64765203 340.65888375 C396.7500037 340.66891782 391.85236763 340.67262279 386.95471048 340.67527306 C381.67853936 340.67917184 376.40237799 340.68875035 371.12621307 340.69748592 C358.37835168 340.71726047 345.63048948 340.72731695 332.88261658 340.73621371 C326.88416273 340.74059424 320.88570977 340.74596159 314.88725662 340.75120258 C294.95618689 340.76821443 275.02511771 340.78271026 255.09404182 340.78995132 C249.92033258 340.79186131 244.74662335 340.79378163 239.57291412 340.79573727 C237.64399376 340.79646288 237.64399376 340.79646288 235.67610531 340.79720315 C214.82833187 340.80550967 193.9806157 340.83085729 173.13286729 340.86331794 C151.74500231 340.89634907 130.35716647 340.91439643 108.96927583 340.91759557 C96.95416042 340.91976412 84.93912855 340.92856341 72.92403793 340.95405674 C62.6951401 340.97570972 52.46634611 340.9838408 42.23742796 340.97408996 C37.0155694 340.96952979 31.79392533 340.97153081 26.57209587 340.9908514 C21.79527251 341.00837345 17.01882186 341.00757515 12.24199514 340.99195411 C10.51050888 340.9895613 8.77899754 340.99398743 7.0475498 341.00578276 C4.69977069 341.02079086 2.35333128 341.01130764 0.00558662 340.99555588 C-1.30016425 340.99653269 -2.60591513 340.9975095 -3.95123422 340.9985159 C-7.97004459 340.40665814 -9.62946919 339.51845435 -12.33235931 336.50057125 C-12.95910513 333.87958622 -12.95910513 333.87958622 -12.96156502 330.83458614 C-12.97460375 329.67260141 -12.98764249 328.51061668 -13.00107634 327.3134203 C-12.98434593 325.39729781 -12.98434593 325.39729781 -12.96727753 323.44246578 C-12.97303733 322.07242006 -12.9809775 320.70238206 -12.99091375 319.33236027 C-13.0118305 315.5635881 -13.00145054 311.79544711 -12.98598266 308.02667236 C-12.97469258 303.96387118 -12.99212016 299.90118028 -13.00588226 295.83840084 C-13.02814438 287.87787102 -13.02330032 279.91757658 -13.00881906 271.95703745 C-12.99753847 265.48880197 -12.99599079 259.02063258 -13.00143814 252.5523901 C-13.00220431 251.63266702 -13.00297047 250.71294394 -13.00375985 249.76535046 C-13.00535844 247.8970955 -13.00697951 246.02884056 -13.00862281 244.16058564 C-13.02288902 226.63171683 -13.00647393 209.10297864 -12.97962098 191.57413125 C-12.9572814 176.52545727 -12.96116129 161.47697612 -12.98421478 146.42830563 C-13.01095741 128.9632331 -13.02151564 111.49827514 -13.00615346 94.03318501 C-13.00456068 92.17170749 -13.00298882 90.31022995 -13.00143814 88.4487524 C-13.00066676 87.53281059 -12.99989539 86.61686878 -12.99910063 85.67317116 C-12.99477901 79.21084513 -13.00208012 72.74859162 -13.01383591 66.28627682 C-13.0278424 58.41347631 -13.02410012 50.54092514 -12.99743219 42.66815329 C-12.98426887 38.64936153 -12.97918395 34.63098583 -12.99567795 30.61219692 C-13.01053925 26.93568163 -13.00245402 23.25996939 -12.97579019 19.58352733 C-12.96752801 17.61825825 -12.98391731 15.65293374 -13.00107634 13.68772221 C-12.9880376 12.52573748 -12.97499887 11.36375275 -12.96156502 10.16655636 C-12.96075326 9.16170633 -12.95994149 8.15685631 -12.95910513 7.12155628 C-12.33235931 4.50057125 -12.33235931 4.50057125 -10.25130641 2.17773288 C-6.58781863 0.07277485 -4.21800194 0.00034702 0 0 Z M1.66764069 15.50057125 C1.66764069 98.66057125 1.66764069 181.82057125 1.66764069 267.50057125 C5.22788799 266.07647233 7.61719785 265.02965953 10.65885162 262.96053219 C11.79184692 262.19504055 11.79184692 262.19504055 12.94773102 261.41408443 C14.16260193 260.58291103 14.16260193 260.58291103 15.40201569 259.73494625 C16.25914154 259.15424374 17.1162674 258.57354122 17.99936676 257.97524166 C19.84469078 256.72434104 21.68857582 255.47131556 23.53116608 254.21639156 C27.441226 251.55346316 31.35812872 248.90068297 35.27481842 246.24751949 C37.25904164 244.90337091 39.24292726 243.55872385 41.22647858 242.21358395 C49.51071997 236.59783412 57.83067353 231.03761411 66.16764069 225.50057125 C77.90613523 217.69965442 89.59656703 209.82960586 101.27268219 201.93566036 C117.31614804 191.08971465 133.41407264 180.33567038 149.61832428 169.73128414 C150.29509216 169.28812359 150.97186005 168.84496304 151.66913605 168.38837337 C152.96070476 167.54469975 154.25399531 166.70365469 155.54920197 165.86557674 C158.20727209 164.14157476 160.81773288 162.39010405 163.36978912 160.51180172 C168.79455622 156.53280238 168.79455622 156.53280238 173.26529694 156.36775875 C177.20555412 157.67966987 180.59985299 159.44274274 184.10514069 161.62557125 C184.82322906 162.06006588 185.54131744 162.49456051 186.28116608 162.94222164 C188.75323528 164.44613516 191.21140895 165.97093366 193.66764069 167.50057125 C194.60478912 168.0827441 195.54193756 168.66491695 196.50748444 169.26473141 C205.3829801 174.78567458 214.25182493 180.31755141 223.06217194 185.9419775 C224.68045103 186.96184283 226.29892803 187.98139422 227.91764069 189.00057125 C229.01580109 189.7129797 229.01580109 189.7129797 230.13614655 190.43978024 C233.62227065 192.81311821 233.62227065 192.81311821 237.65006256 193.28304195 C239.94070539 192.39466946 241.514773 191.29664346 243.43326569 189.76229 C244.14998444 189.19574703 244.86670319 188.62920406 245.60514069 188.04549313 C246.36826569 187.43254391 247.13139069 186.81959469 247.91764069 186.18807125 C249.54690319 184.89911438 251.17712927 183.61137466 252.80826569 182.32479 C253.62617584 181.67816402 254.444086 181.03153805 255.28678131 180.36531734 C258.70574901 177.68749994 262.18141491 175.08983623 265.66764069 172.50057125 C272.13668027 167.68081851 278.51683138 162.75493334 284.87540436 157.79061031 C291.44466473 152.66414134 298.05856563 147.59804453 304.68326569 142.54354 C307.81811169 140.15159506 310.946114 137.75101503 314.06851959 135.34285641 C315.66370863 134.1142374 317.26324042 132.8912631 318.86295319 131.66854 C320.6063523 130.32092648 322.33378305 128.95204808 324.03482819 127.5513525 C324.71803131 126.99834469 325.40123444 126.44533688 326.10514069 125.87557125 C326.66072662 125.40893063 327.21631256 124.94229 327.78873444 124.46150875 C330.59807039 123.02471739 332.52607437 123.20160532 335.66764069 123.50057125 C338.18711178 124.77073614 340.374954 126.04181386 342.70279694 127.5982275 C343.38761642 128.0412672 344.07243591 128.48430691 344.77800751 128.94077206 C347.08636466 130.44353107 349.37809213 131.9693222 351.66764069 133.50057125 C352.48867279 134.04703304 353.3097049 134.59349483 354.15561676 135.15651608 C360.49537004 139.38286748 366.80260769 143.6564921 373.10514069 147.93807125 C388.68627398 158.51632924 388.68627398 158.51632924 404.39029694 168.9107275 C405.45684761 169.6136417 405.45684761 169.6136417 406.54494476 170.33075619 C409.83556253 172.69213677 409.83556253 172.69213677 413.66764069 173.50057125 C413.66764069 174.16057125 413.66764069 174.82057125 413.66764069 175.50057125 C414.32764069 175.50057125 414.98764069 175.50057125 415.66764069 175.50057125 C415.66764069 122.70057125 415.66764069 69.90057125 415.66764069 15.50057125 C279.04764069 15.50057125 142.42764069 15.50057125 1.66764069 15.50057125 Z M326.98014069 143.25057125 C322.45820095 147.05446019 317.85104739 150.66830711 313.10514069 154.18807125 C307.17515794 158.59853152 301.30675684 163.07938111 295.48014069 167.62557125 C294.71830475 168.2199902 293.95646881 168.81440914 293.17154694 169.42684078 C291.68678148 170.58561175 290.20207891 171.7444633 288.71744537 172.90340328 C282.26493782 177.93107175 275.766016 182.89878026 269.26529694 187.8638525 C268.50354156 188.44578365 267.74178619 189.02771481 266.95694733 189.62728024 C265.46831392 190.76411546 263.9792425 191.90037744 262.48966217 193.03597164 C261.14602978 194.06170444 259.80419849 195.08980252 258.46451569 196.12068844 C256.87293377 197.34291955 255.27102154 198.55167264 253.66764069 199.75838375 C253.00764069 200.33330563 252.34764069 200.9082275 251.66764069 201.50057125 C251.66764069 202.16057125 251.66764069 202.82057125 251.66764069 203.50057125 C253.58881523 204.94005418 253.58881523 204.94005418 256.10123444 206.371665 C257.05304596 206.94118893 258.00485748 207.51071285 258.98551178 208.09749508 C260.52972809 209.00858028 260.52972809 209.00858028 262.10514069 209.93807125 C264.21174964 211.19918941 266.31720798 212.46223144 268.42154694 213.72713375 C269.47358307 214.35909664 270.5256192 214.99105953 271.60953522 215.64217281 C275.96933624 218.29160642 280.26529579 221.03296124 284.54264069 223.81307125 C285.25476715 224.27447506 285.96689362 224.73587887 286.70059967 225.21126461 C291.52288418 228.35581475 291.52288418 228.35581475 292.66764069 229.50057125 C293.1274947 235.70860045 293.1274947 235.70860045 291.54264069 238.43807125 C288.74005295 240.0262043 286.87204516 239.80753523 283.66764069 239.50057125 C281.05132432 238.24556622 278.73499171 236.97053834 276.29264069 235.43807125 C275.20003937 234.7741235 275.20003937 234.7741235 274.0853653 234.09676266 C271.60268006 232.580497 269.13445852 231.04250651 266.66764069 229.50057125 C265.77158112 228.94353512 264.87552155 228.38649899 263.95230865 227.81258297 C258.97353441 224.71669062 254.00376257 221.60673501 249.03873444 218.4888525 C242.64482391 214.47851151 236.2229713 210.51468729 229.79264069 206.56307125 C228.72038239 205.90403805 227.64812408 205.24500484 226.54337311 204.56600094 C223.25178581 202.54366387 219.95971578 200.52211414 216.66764069 198.50057125 C213.24463016 196.39781221 209.82208902 194.29429319 206.4003067 192.18953609 C204.18842202 190.82988561 201.97539534 189.47209092 199.76114655 188.11629391 C195.02292054 185.21004596 190.3046069 182.28669083 185.65592194 179.2388525 C184.91745026 178.75916012 184.17897858 178.27946774 183.41812897 177.78523922 C182.09426884 176.92073506 180.77801953 176.04439592 179.4718399 175.15340328 C176.23851432 173.04868566 176.23851432 173.04868566 172.49723053 172.56624508 C168.27886148 173.95914399 164.95344955 176.40452053 161.31998444 178.92244625 C160.49293503 179.48542416 159.66588562 180.04840206 158.81377411 180.6284399 C157.01767662 181.85198629 155.22402219 183.07912488 153.43253326 184.30940914 C148.57336597 187.64549749 143.69569013 190.95434767 138.81998444 194.26619625 C137.81164551 194.95205807 136.80330658 195.63791988 135.76441193 196.34456539 C125.46906625 203.33734385 115.07490331 210.17599889 104.66764069 217.00057125 C93.63342597 224.24322069 82.61696123 231.50900989 71.67545319 238.89119625 C70.77178513 239.49973949 69.86811707 240.10828274 68.93706512 240.73526669 C64.43330789 243.77294905 59.94622968 246.83146756 55.48477936 249.93099117 C47.60792671 255.37242545 39.78997201 260.57883277 31.29654694 265.01848507 C27.67111468 266.92012162 24.10721991 268.92477272 20.54087067 270.93453121 C18.87159393 271.83316747 17.17215869 272.67848086 15.44480133 273.4596777 C8.40869864 276.64799648 7.10593495 278.81905981 1.66764069 285.50057125 C1.66764069 298.70057125 1.66764069 311.90057125 1.66764069 325.50057125 C138.28764069 325.50057125 274.90764069 325.50057125 415.66764069 325.50057125 C415.66764069 281.94057125 415.66764069 238.38057125 415.66764069 193.50057125 C409.16102393 188.94593952 402.65267369 184.45854567 396.01529694 180.10604 C395.12478638 179.52016109 394.23427582 178.93428219 393.31678009 178.33064938 C390.4554827 176.44839285 387.59291065 174.56808721 384.73014069 172.68807125 C380.78410968 170.09541267 376.83875369 167.50173179 372.89420319 164.90682125 C371.92645462 164.27020061 370.95870605 163.63357998 369.96163177 162.97766781 C364.24667478 159.21334616 358.55084305 155.42264708 352.87857819 151.59432125 C351.91911537 150.94805531 351.91911537 150.94805531 350.94026947 150.28873348 C348.05391161 148.34390911 345.1723622 146.39263646 342.2987442 144.42903805 C341.31575348 143.76557369 340.33276276 143.10210934 339.31998444 142.41854 C338.48459137 141.84901608 337.6491983 141.27949215 336.7884903 140.69270992 C332.32504043 138.18378559 330.45645806 140.24805517 326.98014069 143.25057125 Z " fill="#252021" transform="translate(47.332359313964844,85.49942874908447)"/>
<path d="M0 0 C1.49997286 -0.00302645 2.99994417 -0.00691839 4.4999128 -0.01159257 C8.59054425 -0.02181658 12.68108751 -0.01970521 16.77172601 -0.01541197 C21.19497442 -0.01293473 25.61820215 -0.0219709 30.04144287 -0.02944946 C38.69230038 -0.04216775 47.3431268 -0.043994 55.99399208 -0.0416492 C63.023129 -0.0398638 70.0522565 -0.04162042 77.08139229 -0.04587364 C78.5838092 -0.04676643 78.5838092 -0.04676643 80.11657797 -0.04767724 C82.15144491 -0.04888901 84.18631184 -0.05010315 86.22117878 -0.05131962 C105.27994088 -0.06218266 124.33868527 -0.06003766 143.39744837 -0.05393478 C160.84001827 -0.04875843 178.28253245 -0.06004215 195.72509133 -0.07903299 C213.64184727 -0.09839061 231.55857682 -0.10667158 249.47534329 -0.10290974 C259.5318743 -0.1009956 269.5883578 -0.10350662 279.64488029 -0.11762428 C288.19920794 -0.12951207 296.75345876 -0.13097177 305.30778741 -0.11883412 C309.67298959 -0.11292904 314.03805106 -0.11189105 318.40324402 -0.12383652 C322.3969468 -0.13463881 326.39039041 -0.13165997 330.38408078 -0.11757483 C331.83063848 -0.1149124 333.27721613 -0.11734262 334.72375434 -0.1253107 C336.68663534 -0.13537484 338.64958907 -0.12522883 340.61246395 -0.1140337 C341.70373055 -0.11408871 342.79499716 -0.11414373 343.91933244 -0.11420041 C347.55243142 0.35092239 350.23937216 1.65239707 352.84767151 4.26069641 C352.90235901 6.22163391 352.90235901 6.22163391 352.72267151 8.63569641 C352.65692932 9.82292297 352.65692932 9.82292297 352.58985901 11.03413391 C351.84767151 13.26069641 351.84767151 13.26069641 349.69621485 14.87668192 C346.37794485 16.4889213 344.20703052 16.63418664 340.52879047 16.63149071 C339.24659604 16.63786375 337.96440161 16.6442368 336.64335281 16.65080297 C335.22255069 16.64271872 333.80175008 16.63436754 332.38095093 16.6257782 C330.8699587 16.6276367 329.35896763 16.63082507 327.84798068 16.63522971 C323.6941258 16.64357302 319.54049134 16.63331683 315.38665664 16.62014103 C310.90729662 16.60924182 306.42795934 16.6157025 301.94859314 16.62026978 C294.18496243 16.62601938 286.42139411 16.62137948 278.65777016 16.6102562 C267.4219511 16.5946102 256.18621621 16.60016172 244.9503959 16.61187263 C226.70708808 16.63077448 208.46379169 16.63998452 190.22047424 16.63960266 C189.12836923 16.63958522 188.03626422 16.63956778 186.91106512 16.63954981 C174.73075218 16.63909774 162.55044335 16.63577288 150.37013245 16.62867737 C148.72845896 16.62772879 148.72845896 16.62772879 147.05362035 16.62676106 C145.96031208 16.62612849 144.86700382 16.62549593 143.740565 16.62484419 C141.53595142 16.62357444 139.33133783 16.62230903 137.12672424 16.62104797 C136.03746452 16.62041978 134.94820479 16.61979159 133.82593719 16.61914437 C115.65736371 16.60918737 97.48885839 16.61852302 79.32029933 16.64323199 C68.11479562 16.65766355 56.90953182 16.65559518 45.70404192 16.63226999 C38.02291455 16.61751475 30.34192769 16.62068252 22.66080592 16.63789891 C18.23013425 16.64723095 13.79985274 16.64840101 9.3692112 16.62766838 C5.30943705 16.6088197 1.25035687 16.61313153 -2.80939332 16.63549598 C-4.27442088 16.63951683 -5.73950172 16.63515978 -7.20446982 16.62136202 C-16.75064898 16.53735319 -24.78521007 17.31221695 -32.05622834 24.01609075 C-39.40445307 31.77640973 -39.58911837 39.62220899 -39.54673767 49.86697388 C-39.55162992 51.26007586 -39.55782127 52.65317377 -39.56519556 54.04626483 C-39.58157617 57.86493645 -39.57928102 61.68340137 -39.57382059 65.50209582 C-39.57114805 69.62424597 -39.58568643 73.74634132 -39.59791565 77.86846924 C-39.61896274 85.94083269 -39.6235109 94.01312431 -39.62172776 102.08551196 C-39.62041972 108.64800691 -39.62422647 115.21047946 -39.63165283 121.7729702 C-39.63375205 123.66389725 -39.63584965 125.55482431 -39.63794565 127.44575137 C-39.63898918 128.38694839 -39.64003271 129.32814542 -39.64110786 130.29786357 C-39.66000749 148.09585619 -39.65896094 165.8938076 -39.65213853 183.6918061 C-39.6465639 199.96738379 -39.6673856 216.24280402 -39.700499 232.51834492 C-39.73424755 249.23603183 -39.74940284 265.95364335 -39.74478197 282.67136496 C-39.74253838 292.05467844 -39.74776425 301.4378464 -39.77267456 310.82113075 C-39.79370278 318.81004731 -39.79726466 326.79873859 -39.77837497 334.78766445 C-39.76922626 338.86191394 -39.76804716 342.93574357 -39.78873062 347.00996017 C-39.80747708 350.74400457 -39.80289702 354.47728632 -39.78018481 358.211302 C-39.77403839 360.19288809 -39.79236181 362.17450416 -39.81172132 364.1560052 C-39.72725997 372.69119534 -38.32594718 379.7236172 -32.39694357 386.16894943 C-26.58271656 391.65876565 -20.32816837 393.71853944 -12.43166637 393.64101315 C-11.30718576 393.64800302 -11.30718576 393.64800302 -10.15998837 393.65513411 C-7.65173694 393.66707081 -5.14402852 393.65769396 -2.63577271 393.64837646 C-0.81781794 393.65254997 1.00013423 393.65802758 2.81808156 393.66469628 C7.81110591 393.67916755 12.80396542 393.67490086 17.79699886 393.66752946 C23.18295464 393.66280422 28.56887443 393.675302 33.95481873 393.68554688 C44.50571987 393.70275332 55.05656152 393.70357098 65.60747305 393.69833397 C74.18321885 393.69429417 82.75894705 393.69573357 91.334692 393.70108223 C93.16483997 393.70220486 93.16483997 393.70220486 95.03196063 393.70335018 C97.51052959 393.70488164 99.98909854 393.70641999 102.46766748 393.70796514 C125.71797751 393.72169708 148.9682539 393.71624781 172.21856316 393.70477993 C193.48950126 393.69484868 214.76035236 393.70778516 236.03127704 393.73171412 C257.87017565 393.75609697 279.70903373 393.76571488 301.54794568 393.7590614 C313.80963145 393.75556713 326.07125031 393.75781484 338.3329258 393.77531242 C348.77203197 393.79002427 359.21102413 393.79068318 369.65012804 393.77324151 C374.97591274 393.76472048 380.30149369 393.76260899 385.62726784 393.77789307 C390.50474338 393.79171724 395.38184019 393.78700605 400.2592937 393.76765383 C402.02169914 393.76388653 403.78413475 393.76683679 405.54651336 393.77726548 C415.59315538 393.83247764 424.98836862 393.88144747 433.25001526 387.36616516 C434.0099176 386.41677063 434.0099176 386.41677063 434.78517151 385.44819641 C435.30981995 384.8230011 435.83446838 384.19780579 436.37501526 383.55366516 C441.25496715 375.95543768 441.27887682 369.54921607 441.24208069 360.65441895 C441.24697293 359.26131697 441.25316429 357.86821905 441.26053858 356.475128 C441.27691919 352.65645637 441.27462404 348.83799145 441.26916361 345.019297 C441.26649107 340.89714685 441.28102945 336.77505151 441.29325867 332.65292358 C441.31430576 324.58056013 441.31885392 316.50826851 441.31707078 308.43588086 C441.31576273 301.87338591 441.31956948 295.31091336 441.32699585 288.74842262 C441.32909507 286.85749557 441.33119267 284.96656851 441.33328867 283.07564145 C441.3343322 282.13444443 441.33537573 281.1932474 441.33645087 280.22352926 C441.35535051 262.42553663 441.35430396 244.62758523 441.34748155 226.82958672 C441.34190691 210.55400904 441.36272862 194.2785888 441.39584202 178.00304791 C441.42959057 161.28536099 441.44474585 144.56774947 441.44012499 127.85002786 C441.4378814 118.46671439 441.44310727 109.08354642 441.46801758 99.70026207 C441.4890458 91.71134551 441.49260768 83.72265423 441.47371799 75.73372837 C441.46456928 71.65947888 441.46339018 67.58564926 441.48407364 63.51143265 C441.5028201 59.77738825 441.49824004 56.04410651 441.47552782 52.31009082 C441.46938141 50.32850473 441.48770483 48.34688866 441.50706434 46.36538762 C441.42247517 37.81728026 439.99514198 30.84587562 434.12158346 24.3524434 C427.02320201 17.50984592 418.91600649 16.8387285 409.52345276 16.92475891 C407.33920494 16.91225618 405.15496012 16.89921952 402.97071838 16.88569641 C399.55386339 16.88175569 396.13730179 16.88579381 392.72047424 16.90034485 C389.40435647 16.90890196 386.08946262 16.88726831 382.77345276 16.86225891 C381.24208427 16.88227463 381.24208427 16.88227463 379.67977905 16.9026947 C374.94653799 16.85332068 372.59974347 16.81218089 368.69606018 13.94966125 C366.29449483 10.45595622 366.23197168 8.41667025 366.84767151 4.26069641 C368.67882358 1.64476488 369.75735517 1.29080186 372.84767151 0.26069641 C374.24164186 0.16513175 375.63965683 0.12264165 377.03688049 0.11543274 C377.87883469 0.10905289 378.72078888 0.10267303 379.58825684 0.09609985 C380.49757462 0.09498703 381.4068924 0.09387421 382.34376526 0.09272766 C383.75964684 0.08773506 383.75964684 0.08773506 385.20413208 0.0826416 C387.20729587 0.07757464 389.21046811 0.0752332 391.21363831 0.07539368 C394.24218725 0.07322716 397.27035987 0.05512477 400.29884338 0.03608704 C418.35992359 -0.01797072 432.83868849 0.78171712 446.58204651 13.72554016 C452.91231383 20.80889101 457.09197283 29.79580858 457.10494041 39.34342575 C457.11138931 40.54749313 457.1178382 41.75156051 457.12448251 42.99211478 C457.12138531 44.30630275 457.1182881 45.62049072 457.11509705 46.97450256 C457.11883501 48.39148776 457.12343712 49.80847089 457.12882769 51.22545075 C457.14105516 55.11475362 457.14079752 59.00397044 457.13843894 62.89328814 C457.13803071 67.08974564 457.14907058 71.28617559 457.15855408 75.48262024 C457.17516391 83.70283228 457.18066363 91.92301563 457.18177883 100.14324304 C457.18272936 106.82589451 457.1868399 113.50853652 457.19318008 120.191185 C457.21079282 139.14119405 457.22001896 158.09118045 457.21851914 177.04119775 C457.21839927 178.57345798 457.21839927 178.57345798 457.21827698 180.13667297 C457.21819522 181.15942834 457.21811345 182.18218371 457.21802922 183.23593166 C457.21721641 199.80900746 457.23635252 216.38199235 457.26455371 232.95504186 C457.29328752 249.97553335 457.30709372 266.99598053 457.30536616 284.0164969 C457.30470241 293.57083363 457.3101882 303.12507508 457.33172226 312.67938995 C457.34994064 320.81469227 457.35427603 328.94985611 457.34070341 337.08517 C457.33417693 341.23429346 457.33404483 345.38315131 457.35140991 349.53224945 C457.36716018 353.33469803 457.36425744 357.13667082 457.34684165 360.93910792 C457.34232986 362.95752101 457.35741376 364.97594897 457.37332094 366.99430442 C457.28070775 379.22343652 453.43382141 389.20613499 445.03517151 398.20210266 C431.84906075 410.5109117 416.15208625 410.56298445 399.0849762 410.5146637 C397.3012568 410.51697138 395.51753835 410.52014997 393.73382187 410.52411819 C388.85859541 410.53243248 383.98344771 410.52835626 379.10822105 410.52214575 C373.84025425 410.51760845 368.5723007 410.52461135 363.30433655 410.53010559 C352.99475975 410.5389876 342.68521212 410.53708289 332.37563419 410.53128031 C323.99501367 410.52675914 315.6144013 410.52615289 307.23377991 410.52832794 C306.03991441 410.52863441 304.8460489 410.52894087 303.61600566 410.52925663 C301.19050884 410.52989609 298.76501202 410.53054452 296.33951521 410.53120181 C273.60846418 410.53690161 250.87742929 410.5303527 228.1463809 410.51960108 C208.65227177 410.51066589 189.15818646 410.51221803 169.66407776 410.5214386 C147.0130232 410.5321474 124.36198279 410.53635232 101.71092606 410.53021407 C99.29447174 410.52957699 96.87801743 410.52894825 94.46156311 410.52832794 C93.27269587 410.52801939 92.08382864 410.52771084 90.85893512 410.52739294 C82.49071586 410.52566783 74.12250559 410.52857713 65.75428772 410.53328705 C55.55290701 410.53890265 45.35155706 410.53736512 35.15017986 410.52672556 C29.94770807 410.52147803 24.74528754 410.51939648 19.54281616 410.52602386 C14.7759418 410.5320044 10.00916599 410.52867356 5.24230051 410.51806876 C3.52240422 410.51584364 1.80249953 410.51695095 0.0826087 410.52182034 C-17.47855009 410.56770702 -31.58703806 409.32179541 -44.88670349 396.79585266 C-51.21697082 389.71250181 -55.39662981 380.72558424 -55.4095974 371.17796707 C-55.41927074 369.371866 -55.41927074 369.371866 -55.42913949 367.52927804 C-55.42604229 366.21509007 -55.42294509 364.9009021 -55.41975403 363.54689026 C-55.42349199 362.12990507 -55.4280941 360.71292194 -55.43348467 359.29594207 C-55.44571214 355.40663921 -55.44545451 351.51742238 -55.44309592 347.62810469 C-55.44268769 343.43164718 -55.45372756 339.23521724 -55.46321106 335.03877258 C-55.47982089 326.81856055 -55.48532061 318.59837719 -55.48643582 310.37814978 C-55.48738634 303.69549831 -55.49149688 297.0128563 -55.49783707 290.33020782 C-55.51544981 271.38019877 -55.52467594 252.43021237 -55.52317612 233.48019508 C-55.52309621 232.45868825 -55.52301629 231.43718143 -55.52293396 230.38471985 C-55.5228522 229.36196448 -55.52277044 228.33920911 -55.5226862 227.28546116 C-55.5218734 210.71238536 -55.54100951 194.13940047 -55.56921069 177.56635097 C-55.59794451 160.54585947 -55.6117507 143.52541229 -55.61002314 126.50489593 C-55.60935939 116.95055919 -55.61484518 107.39631775 -55.63637924 97.84200287 C-55.65459762 89.70670055 -55.65893302 81.57153671 -55.6453604 73.43622282 C-55.63883392 69.28709936 -55.63870181 65.13824151 -55.65606689 60.98914337 C-55.67181716 57.1866948 -55.66891442 53.38472201 -55.65149863 49.5822849 C-55.64698684 47.56387181 -55.66207075 45.54544385 -55.67797792 43.5270884 C-55.58536473 31.29795631 -51.73847839 21.31525783 -43.33982849 12.31929016 C-30.84917221 0.65966544 -16.35464689 -0.04722977 0 0 Z " fill="#231F20" transform="translate(55.15232849121094,50.73930358886719)"/>
<path d="M0 0 C0.33 0 0.66 0 1 0 C1.05945801 0.5762915 1.11891602 1.15258301 1.18017578 1.74633789 C4.9181647 36.65832828 15.70889866 71.03906445 36 100 C36.66773438 100.96035156 37.33546875 101.92070312 38.0234375 102.91015625 C39.96963302 105.6448302 41.96707737 108.32929772 44 111 C44.61617187 111.82242188 45.23234375 112.64484375 45.8671875 113.4921875 C50.73645631 119.72560944 56.1373439 125.3732618 61.6875 131 C62.39310059 131.72324463 63.09870117 132.44648926 63.82568359 133.19165039 C66.16305953 135.52615486 68.56935953 137.76253285 71 140 C71.48008302 140.4563151 71.96016604 140.91263021 72.45479703 141.38277304 C81.51032295 149.85771861 88.72075789 152.61120184 101.18505859 152.34057617 C102.75363348 152.34735475 104.32219363 152.35897329 105.89070129 152.375 C110.1036622 152.40459746 114.31357649 152.36743476 118.52624083 152.31726241 C122.94518081 152.2763226 127.36382644 152.29818072 131.78286743 152.31306458 C140.13042613 152.33179864 148.47675425 152.29495587 156.82409918 152.23759204 C168.11810625 152.16324047 179.41200581 152.17585872 190.70619965 152.18332005 C208.47153691 152.19278764 226.23426626 152.0870274 244 152 C244 108.77 244 65.54 244 21 C244.33 21 244.66 21 245 21 C245 64.56 245 108.12 245 153 C108.38 153 -28.24 153 -169 153 C-169 113 -169 113 -160.88671875 103.76953125 C-158.07373047 101.80932617 -158.07373047 101.80932617 -155.54296875 100.6484375 C-154.59083496 100.18663086 -153.63870117 99.72482422 -152.65771484 99.24902344 C-151.67754395 98.7749707 -150.69737305 98.30091797 -149.6875 97.8125 C-147.67054344 96.68944436 -145.66280925 95.54968456 -143.6640625 94.39453125 C-139.52708589 92.01763983 -135.36129438 89.71185113 -131.16162109 87.44775391 C-122.42493266 82.65798734 -114.30576138 77.00238845 -106.1322937 71.32247925 C-101.71593949 68.26479845 -97.2598264 65.26638646 -92.8046875 62.265625 C-91.91972092 61.6683812 -91.03475433 61.07113739 -90.12297058 60.45579529 C-80.01010587 53.64002904 -69.81821493 46.94471947 -59.625 40.25 C-45.29450362 30.83721644 -31.0162367 21.35316743 -16.8125 11.75 C-16.00588928 11.20508911 -15.19927856 10.66017822 -14.3682251 10.09875488 C-12.12588289 8.5830939 -9.8848458 7.06553107 -7.64453125 5.546875 C-6.98019577 5.09735474 -6.31586029 4.64783447 -5.63139343 4.18469238 C-2.67753302 2.26586618 -2.67753302 2.26586618 0 0 Z " fill="#479E1A" transform="translate(218,258)"/>
<path d="M0 0 C12.42640705 0.24365504 24.56820653 5.06150342 33.6953125 13.51171875 C43.52307784 24.07537956 48.06565482 35.89626718 47.91088867 50.21142578 C47.4894272 59.83624934 44.36016301 68.64722364 38.3125 76.25 C37.75949219 76.95640625 37.20648438 77.6628125 36.63671875 78.390625 C28.63563594 88.07530238 17.88401622 93.99284838 5.3125 95.25 C-8.409991 95.94701542 -20.49143437 93.18837467 -31.5 84.5 C-40.4879698 76.03687515 -46.97146704 63.66123795 -47.6875 51.25 C-47.73777344 50.59128906 -47.78804688 49.93257812 -47.83984375 49.25390625 C-48.41037354 36.45121769 -43.60924065 25.6151794 -35.4375 16.0625 C-25.48480576 5.45177639 -14.28910692 0.96875301 0 0 Z " fill="#242122" transform="translate(134.6875,139.75)"/>
<path d="M0 0 C-0.70125 0.309375 -1.4025 0.61875 -2.125 0.9375 C-8.88133168 5.7844336 -11.20782924 11.85957704 -12.58384824 19.8009634 C-13.32398768 25.49055403 -13.28155311 31.16099191 -13.26742554 36.89074707 C-13.27116955 38.2659621 -13.27577404 39.64117501 -13.28115618 41.0163846 C-13.2933081 44.76704389 -13.29313504 48.51761346 -13.29076743 52.2682879 C-13.29035729 56.32425301 -13.30141685 60.3801901 -13.31088257 64.43614197 C-13.32744876 72.37058494 -13.33299006 80.30499818 -13.33410732 88.23945701 C-13.33505953 94.69028703 -13.33917843 101.14110728 -13.34550858 107.5919342 C-13.36310617 125.89862419 -13.37234934 144.20529079 -13.37084763 162.5119893 C-13.37076772 163.49754943 -13.3706878 164.48310956 -13.37060547 165.49853516 C-13.37052371 166.48530394 -13.37044195 167.47207273 -13.37035771 168.4887436 C-13.36954441 184.48853972 -13.38869696 200.48824179 -13.4168822 216.4880107 C-13.44562322 232.93348923 -13.45942194 249.3789219 -13.45769465 265.82442617 C-13.45703135 275.05063956 -13.46249793 284.27675423 -13.48405075 293.50294495 C-13.50227819 301.35556396 -13.50659677 309.20803947 -13.4930319 317.0606705 C-13.48651117 321.06413696 -13.48635266 325.06732823 -13.5037384 329.07076836 C-13.51951324 332.74107854 -13.51656118 336.41089632 -13.49917014 340.08119482 C-13.49466887 342.02605851 -13.50972252 343.97093776 -13.52564943 345.91574144 C-13.4380871 357.10274563 -10.80288133 366.69773427 -3 375 C-2.01 375.66 -1.02 376.32 0 377 C-7.70239361 376.5186004 -13.13204581 373.31837045 -18.3125 367.625 C-24.63536354 360.26946247 -24.43275667 352.66353412 -24.39440918 343.39372253 C-24.39930143 342.00062055 -24.40549278 340.60752264 -24.41286707 339.21443158 C-24.42924768 335.39575996 -24.42695253 331.57729504 -24.4214921 327.75860059 C-24.41881956 323.63645044 -24.43335794 319.51435509 -24.44558716 315.39222717 C-24.46663425 307.31986372 -24.47118241 299.2475721 -24.46939927 291.17518445 C-24.46809122 284.6126895 -24.47189798 278.05021695 -24.47932434 271.48772621 C-24.48142356 269.59679916 -24.48352116 267.7058721 -24.48561716 265.81494504 C-24.48666069 264.87374802 -24.48770422 263.93255099 -24.48877937 262.96283285 C-24.507679 245.16484022 -24.50663245 227.36688881 -24.49981004 209.56889031 C-24.4942354 193.29331262 -24.51505711 177.01789239 -24.54817051 160.74235149 C-24.58191906 144.02466458 -24.59707435 127.30705306 -24.59245348 110.58933145 C-24.59020989 101.20601798 -24.59543576 91.82285001 -24.62034607 82.43956566 C-24.64137429 74.4506491 -24.64493617 66.46195782 -24.62604648 58.47303196 C-24.61689777 54.39878247 -24.61571867 50.32495285 -24.63640213 46.25073624 C-24.65514859 42.51669184 -24.65056853 38.78341009 -24.62785631 35.04939441 C-24.6217099 33.06780832 -24.64003332 31.08619225 -24.65939283 29.10469121 C-24.57301468 20.37579932 -23.08154395 13.41527649 -17.02293539 6.86127824 C-12.66638447 2.73233422 -6.29514465 -2.76986365 0 0 Z " fill="#B15E41" transform="translate(39,68)"/>
<path d="M0 0 C0.33 0.66 0.66 1.32 1 2 C2.1446875 2.1546875 2.1446875 2.1546875 3.3125 2.3125 C6.94327564 3.24130307 7.95847941 4.93771912 10 8 C10.99720246 10.99160738 11.1271745 12.95778428 11.13142776 16.08165359 C11.13526891 17.13877871 11.13911005 18.19590382 11.1430676 19.28506303 C11.14220112 20.450507 11.14133463 21.61595097 11.14044189 22.81671143 C11.14341302 24.0516521 11.14638414 25.28659278 11.1494453 26.55895591 C11.15663406 29.99335577 11.15930527 33.42770562 11.16004276 36.86210942 C11.16189207 40.56366236 11.1694388 44.26520443 11.17617798 47.9667511 C11.18976722 56.06389116 11.195787 64.16102628 11.20018864 72.25817585 C11.20295019 77.31318835 11.20718739 82.36819894 11.21169281 87.42321014 C11.22388649 101.41633611 11.23418545 115.40946054 11.2375679 129.40259171 C11.23778747 130.29841162 11.23800703 131.19423153 11.23823325 132.1171975 C11.23845153 133.01517422 11.23866981 133.91315095 11.2388947 134.83833909 C11.23933817 136.65801382 11.23978473 138.47768855 11.24023438 140.29736328 C11.24056652 141.65129868 11.24056652 141.65129868 11.24090537 143.03258631 C11.24485335 157.65820575 11.26230691 172.28377538 11.2855939 186.90937558 C11.3093039 201.92172109 11.3217696 216.93404159 11.32293582 231.94640613 C11.3238528 240.37670526 11.32961094 248.8069395 11.34775543 257.23722076 C11.36315172 264.4159966 11.3682797 271.59468748 11.36001733 278.77347669 C11.35610907 282.43611071 11.35704885 286.09857361 11.37107468 289.7611866 C11.3861441 293.73264972 11.37795219 297.70387167 11.36749268 301.675354 C11.37554908 302.83187509 11.38360548 303.98839617 11.39190602 305.17996335 C11.35456179 311.22973619 10.98395158 315.68439532 8 321 C5.25715085 323.65437015 3.83306691 324.04173327 0 325 C0 217.75 0 110.5 0 0 Z " fill="#AD5D41" transform="translate(477,93)"/>
<path d="M0 0 C5.53721703 3.04124541 10.13611143 6.29345447 13.625 11.625 C14.11355469 12.35460937 14.60210937 13.08421875 15.10546875 13.8359375 C19.44546282 21.7013813 19.95935594 31.28363297 17.75 39.9453125 C16.8071674 42.20025381 15.74246802 44.18481697 14.4375 46.25 C14.01339844 46.94609375 13.58929688 47.6421875 13.15234375 48.359375 C8.34073075 55.48967616 1.7123253 59.98208492 -6.5625 62.25 C-18.00171015 63.59884111 -26.60592865 61.65646578 -35.71875 54.57421875 C-39.88839754 50.73142917 -42.40920508 46.4546465 -44.5625 41.25 C-44.91957031 40.47398437 -45.27664062 39.69796875 -45.64453125 38.8984375 C-47.90326857 32.38174004 -47.53586518 24.62770507 -44.8125 18.3125 C-44.09431617 16.94119429 -43.34653109 15.58475189 -42.5625 14.25 C-41.964375 13.198125 -41.36625 12.14625 -40.75 11.0625 C-30.98885278 -1.48754643 -14.86894313 -7.32378465 0 0 Z " fill="#FE9328" transform="translate(148.5625,157.75)"/>
<path d="M0 0 C1.27230469 0.00902344 2.54460937 0.01804688 3.85546875 0.02734375 C5.31919922 0.04474609 5.31919922 0.04474609 6.8125 0.0625 C6.8125 0.3925 6.8125 0.7225 6.8125 1.0625 C5.93207031 1.08828125 5.05164063 1.1140625 4.14453125 1.140625 C2.40236328 1.22570312 2.40236328 1.22570312 0.625 1.3125 C-1.09783203 1.38210937 -1.09783203 1.38210937 -2.85546875 1.453125 C-7.96087788 2.38682233 -10.22504064 4.67763863 -13.13671875 8.8671875 C-13.71035156 9.88039062 -14.28398438 10.89359375 -14.875 11.9375 C-15.45636719 12.94554687 -16.03773437 13.95359375 -16.63671875 14.9921875 C-19.49990258 20.66085877 -20.55193273 25.54598076 -20.5 31.875 C-20.49508545 32.58277588 -20.4901709 33.29055176 -20.48510742 34.01977539 C-20.36099829 39.56904453 -19.60416792 44.08474177 -17.1875 49.0625 C-16.81238281 49.84238281 -16.43726562 50.62226563 -16.05078125 51.42578125 C-13.04606118 57.21721331 -9.67391513 61.40488991 -4.1875 65.0625 C-12.94738471 64.50335842 -19.73057063 60.28626871 -25.6875 53.95703125 C-28.10014912 50.90980515 -29.70767024 47.6393397 -31.1875 44.0625 C-31.54457031 43.28648437 -31.90164062 42.51046875 -32.26953125 41.7109375 C-34.52826857 35.19424004 -34.16086518 27.44020507 -31.4375 21.125 C-30.71931617 19.75369429 -29.97153109 18.39725189 -29.1875 17.0625 C-28.589375 16.010625 -27.99125 14.95875 -27.375 13.875 C-20.40381861 4.9120525 -11.37085728 -0.10431979 0 0 Z " fill="#E76B14" transform="translate(135.1875,154.9375)"/>
</svg>
