<?xml version="1.0" encoding="UTF-8"?>
<svg version="1.1" xmlns="http://www.w3.org/2000/svg" width="512" height="512">
<path d="M0 0 C1.46214033 -0.0046197 2.924276 -0.01097974 4.38640213 -0.01890898 C8.36821863 -0.03547893 12.34964758 -0.0274128 16.33146477 -0.0149641 C20.63966258 -0.00586491 24.94779657 -0.01990734 29.25598145 -0.03088379 C37.68148999 -0.04862191 46.10685559 -0.04485008 54.53236961 -0.03323323 C61.3831232 -0.02418059 68.23383687 -0.02298281 75.08459473 -0.02732849 C76.06155784 -0.02794142 77.03852095 -0.02855436 78.04508901 -0.02918586 C80.03009257 -0.03046483 82.01509612 -0.03176168 84.00009966 -0.03307623 C102.59082476 -0.04446824 121.18147081 -0.03138999 139.77218294 -0.00987476 C155.70590892 0.00799496 171.63951831 0.00489046 187.57324219 -0.0135498 C206.09980054 -0.03498091 224.62628971 -0.04336973 243.15285873 -0.03110075 C245.13034819 -0.02982662 247.10783767 -0.02856914 249.08532715 -0.02732849 C250.05815809 -0.02671139 251.03098902 -0.02609429 252.03329968 -0.02545848 C258.87170406 -0.0220123 265.71006436 -0.02781812 272.54846191 -0.0372467 C280.88810405 -0.04849298 289.22759568 -0.04537153 297.56722069 -0.02412373 C301.81801506 -0.01364859 306.06855897 -0.00943072 310.3193512 -0.02272034 C314.21791148 -0.03472394 318.11599143 -0.02795213 322.01450872 -0.00681013 C323.41743294 -0.00237752 324.82039855 -0.00453422 326.22329569 -0.01431328 C343.22616016 -0.12365229 357.46890407 4.92815153 369.89746094 16.69543457 C384.38952849 32.00189785 386.69433498 48.07545945 386.5390625 68.16931152 C386.53793231 70.23031594 386.53857123 72.29132196 386.54083252 74.35232544 C386.54197389 79.91143912 386.5185583 85.4702032 386.49053669 91.02923608 C386.46542647 96.85212925 386.46317347 102.67503162 386.45843506 108.49797058 C386.44603347 119.50843865 386.41325009 130.51874667 386.3730371 141.52914447 C386.32823153 154.07090175 386.30631028 166.61266692 386.28625536 179.15448439 C386.2445149 204.9390563 386.17421783 230.72348644 386.08496094 256.50793457 C387.24431152 256.4869873 388.40366211 256.46604004 389.59814453 256.44445801 C393.94046451 256.37151227 398.28273143 256.3259383 402.62548828 256.28820801 C404.49732603 256.26821594 406.36910232 256.24101289 408.24072266 256.20617676 C431.88797111 255.77737332 431.88797111 255.77737332 441.55371094 264.80480957 C448.5234622 272.55687985 450.38534875 280.4020178 450.37548828 290.59313965 C450.38556412 292.09432594 450.38556412 292.09432594 450.39584351 293.62583923 C450.4148039 296.92643227 450.41874678 300.22682174 450.42089844 303.52746582 C450.42732784 305.82903628 450.43405631 308.13060593 450.44107056 310.43217468 C450.45303852 315.25472915 450.45675188 320.07721201 450.45556641 324.89978027 C450.45536328 331.06666917 450.48266186 337.23309692 450.51711082 343.39987659 C450.53939412 348.15351961 450.54340349 352.90705192 450.54234695 357.66074181 C450.54470088 359.93363725 450.5535126 362.20653584 450.56901169 364.47937965 C450.5886994 367.66475961 450.58282205 370.84914855 450.57080078 374.0345459 C450.58203979 374.96523895 450.59327881 375.89593201 450.6048584 376.85482788 C450.51355547 386.41911075 446.67299857 394.58747302 440.08496094 401.50793457 C432.73996494 407.29579142 425.63344257 408.80710223 416.46452332 408.77536011 C415.5020285 408.77989122 414.53953369 408.78442233 413.54787236 408.78909075 C410.32605541 408.80174048 407.10440738 408.800114 403.88256836 408.79846191 C401.57119021 408.80444679 399.25981407 408.81125225 396.94844055 408.81881714 C390.67152155 408.8364883 384.39465707 408.84117299 378.1177156 408.84244871 C372.87669973 408.8443482 367.63569655 408.85170631 362.39468557 408.8587929 C350.73489797 408.87414856 339.07513693 408.88013044 327.41534003 408.8787822 C326.716166 408.87870229 326.01699198 408.87862237 325.29663086 408.87854004 C324.59659958 408.87845828 323.89656829 408.87837652 323.17532394 408.87829228 C311.83297446 408.87747955 300.49075783 408.8966153 289.14844676 408.92481677 C277.49212389 408.95356948 265.83587185 408.96698978 254.1795128 408.96562922 C247.63940726 408.96511941 241.09945208 408.97081318 234.55937767 408.99198532 C228.40746074 409.01135712 222.25583778 409.01149909 216.10391045 408.99695206 C213.84848857 408.99486158 211.59304835 408.99957899 209.33765793 409.01167297 C206.25354393 409.02713715 203.1704421 409.01780889 200.08634949 409.00241089 C199.19839398 409.01269801 198.31043847 409.02298514 197.39557523 409.033584 C188.00911964 408.93035224 179.86203574 404.95947303 173.08496094 398.50793457 C167.12610702 390.94593722 165.78519411 383.72265031 165.88964844 374.29699707 C165.89247833 373.32886078 165.89530823 372.36072449 165.89822388 371.36325073 C165.90937398 368.28635029 165.93446914 365.20974629 165.95996094 362.13293457 C165.96999742 360.04049087 165.9791221 357.94804259 165.98730469 355.85559082 C166.00929641 350.73959206 166.04379068 345.62381349 166.08496094 340.50793457 C165.1641187 340.51162174 164.24327646 340.51530891 163.29452991 340.51910782 C140.8497594 340.60758893 118.40501911 340.6737074 95.96011066 340.71518326 C85.10574884 340.73577571 74.25150371 340.76383275 63.3972168 340.80969238 C53.93250245 340.84966185 44.46787266 340.87539147 35.00307626 340.88428855 C29.99524888 340.8894862 24.98766331 340.90163305 19.97991371 340.9308548 C15.25786057 340.95818386 10.53614679 340.96634451 5.81402206 340.9603653 C4.08918979 340.96145776 2.36434511 340.9693068 0.63958168 340.98475647 C-17.37938664 341.13812455 -32.29485903 337.0384154 -45.72753906 324.32043457 C-61.16891245 308.0113183 -62.51358267 290.97074723 -62.43261719 269.65637207 C-62.43804451 267.25192848 -62.44517058 264.84748822 -62.45385742 262.4430542 C-62.47013941 256.61637094 -62.46784501 250.78991974 -62.45620686 244.96322966 C-62.44713549 240.22345512 -62.44596444 235.48373826 -62.45030212 230.74395752 C-62.45091506 230.06673342 -62.45152799 229.38950932 -62.45215949 228.69176328 C-62.45343853 227.31555571 -62.45473538 225.93934816 -62.45604986 224.56314063 C-62.46742812 211.68939517 -62.45438538 198.81576405 -62.43284839 185.94203734 C-62.41497989 174.92032609 -62.41808477 163.89878341 -62.43652344 152.8770752 C-62.45797903 140.04618116 -62.46632974 127.21538709 -62.45407438 114.38447762 C-62.45280032 113.0136223 -62.45154284 111.64276697 -62.45030212 110.27191162 C-62.44968502 109.59760459 -62.44906792 108.92329756 -62.44843212 108.22855699 C-62.44499324 103.50010468 -62.45077581 98.77171632 -62.46022034 94.04327393 C-62.47181921 87.66715756 -62.46367909 81.29135791 -62.44064331 74.91527557 C-62.43537781 72.58252232 -62.43683274 70.24974218 -62.44569397 67.91699982 C-62.5148549 47.85236503 -60.14122863 31.91911534 -45.72753906 16.69543457 C-32.55860741 4.22716914 -17.85017889 -0.12442674 0 0 Z " fill="#D4D9DC" transform="translate(61.9150390625,51.4920654296875)"/>
<path d="M0 0 C8.83584226 5.11046012 14.81122622 12.73812048 21.10546875 20.59765625 C23.86058126 23.92218788 26.74481579 27.09207529 29.6875 30.25 C30.20675049 30.80727783 30.72600098 31.36455566 31.26098633 31.9387207 C32.25763934 33.00798496 33.25430228 34.07723995 34.25097656 35.14648438 C38.05312013 39.25155376 41.67129896 43.51631885 45.30078125 47.7734375 C46.32533092 48.97412041 47.35007646 50.17463621 48.375 51.375 C48.89231689 51.98118164 49.40963379 52.58736328 49.94262695 53.21191406 C53.14752229 56.9532082 56.41459278 60.62365383 59.75 64.25 C62.93986844 67.72386309 65.98298894 71.26160025 68.9375 74.9375 C72.80468863 79.7339071 76.91230716 84.2329146 81.12060547 88.72607422 C84.23789336 92.07331785 87.19816482 95.49245906 90.0625 99.0625 C94.40061256 104.46542201 99.06401501 109.50932342 103.78515625 114.57421875 C107.13131853 118.16410418 110.37318282 121.83273368 113.5625 125.5625 C114.01077148 126.08440918 114.45904297 126.60631836 114.92089844 127.14404297 C116.45051259 128.92661273 117.97585419 130.71275327 119.5 132.5 C119.99765869 133.08072266 120.49531738 133.66144531 121.00805664 134.25976562 C124.5625 138.447175 124.5625 138.447175 124.5625 139.5625 C123.64404612 139.56488835 122.72559223 139.56727671 121.77930641 139.56973743 C99.41058435 139.62892511 77.0419697 139.70449941 54.67336464 139.79821491 C43.85598348 139.84314204 33.03863503 139.88256385 22.22119141 139.90893555 C12.79050455 139.93194055 3.35992142 139.96536661 -6.07068312 140.01120156 C-11.06211541 140.03509996 -16.05344517 140.05385092 -21.04493332 140.06011391 C-25.74812982 140.06618004 -30.4510641 140.08623509 -35.15416336 140.11677551 C-36.87538072 140.12553126 -38.59663238 140.12928345 -40.31787109 140.12750816 C-52.51094469 140.11890693 -64.03765085 140.25833855 -73.25 149.3515625 C-79.88097921 156.50749423 -82.48842387 163.49953911 -82.64282227 173.27075195 C-82.66276749 174.39153641 -82.68271271 175.51232086 -82.70326233 176.66706848 C-82.71997482 177.8661937 -82.73668732 179.06531891 -82.75390625 180.30078125 C-82.7850779 182.15463692 -82.7850779 182.15463692 -82.81687927 184.04594421 C-82.87109931 187.31902126 -82.92137578 190.5921274 -82.96972656 193.86529541 C-83.0201157 197.2103826 -83.07578816 200.55537724 -83.13085938 203.90039062 C-83.23785943 210.45435771 -83.33965892 217.00839013 -83.4375 223.5625 C-106.81241057 223.65609618 -130.18729008 223.72655401 -153.56235027 223.76974869 C-164.4167121 223.79034114 -175.27095723 223.81839818 -186.12524414 223.86425781 C-195.58995848 223.90422728 -205.05458828 223.9299569 -214.51938468 223.93885398 C-219.52721205 223.94405163 -224.53479763 223.95619848 -229.54254723 223.98542023 C-234.26460037 224.01274929 -238.98631415 224.02090994 -243.70843887 224.01493073 C-245.43327115 224.01602319 -247.15811583 224.02387223 -248.88287926 224.0393219 C-266.90184758 224.19268998 -281.81731996 220.09298082 -295.25 207.375 C-307.92812231 193.98441837 -312.25565401 179.27475801 -312.2487793 161.23413086 C-311.96114673 153.7832172 -310.72488598 149.29299187 -305.203125 143.98828125 C-304.29046875 143.18777344 -303.3778125 142.38726562 -302.4375 141.5625 C-300.39067736 139.43827074 -298.41989029 137.24673022 -296.4375 135.0625 C-295.40660955 133.95799763 -294.37536381 132.85382677 -293.34375 131.75 C-290.75491328 128.94542688 -288.32665252 126.0402843 -285.9375 123.0625 C-282.11755989 118.30141522 -278.04811181 113.84976975 -273.87890625 109.3984375 C-270.76181446 106.05133131 -267.80168887 102.63235859 -264.9375 99.0625 C-261.06982156 94.24548231 -256.96527645 89.7125552 -252.74926758 85.20288086 C-249.97100558 82.23079701 -247.25930983 79.22697382 -244.625 76.125 C-238.37629758 68.97287072 -231.84215964 63.29746094 -222.1015625 62.1796875 C-211.57684642 61.8372347 -204.34776353 63.76797405 -196.375 70.6875 C-189.78545068 76.98875653 -183.84611278 83.78534765 -178.125 90.875 C-174.71329122 95.09646863 -171.14448676 99.10340079 -167.4375 103.0625 C-162.90969399 107.89902006 -158.63626732 112.87192644 -154.484375 118.0390625 C-151.56772009 121.63478593 -148.5173214 125.10636601 -145.4375 128.5625 C-140.42537391 124.83553444 -136.81396085 120.4582367 -132.92578125 115.58984375 C-130.36365577 112.47265812 -127.68836855 109.5115 -124.9375 106.5625 C-121.48542779 102.85432168 -118.17225159 99.0774075 -115 95.125 C-111.15639943 90.34628372 -107.06789836 85.87092313 -102.87915039 81.39868164 C-99.76196055 78.05150673 -96.80176202 74.63244977 -93.9375 71.0625 C-90.11755989 66.30141522 -86.04811181 61.84976975 -81.87890625 57.3984375 C-78.76181446 54.05133131 -75.80168887 50.63235859 -72.9375 47.0625 C-69.1169151 42.30061158 -65.04682197 37.84814406 -60.87670898 33.39624023 C-57.77969916 30.070952 -54.84128316 26.67530061 -52 23.125 C-38.54190696 6.55745586 -23.22561848 -10.56247872 0 0 Z " fill="#256F3A" transform="translate(311.4375,168.4375)"/>
<path d="M0 0 C0.94460061 -0.00367669 1.88920123 -0.00735338 2.8624261 -0.01114148 C6.0296936 -0.02216023 9.19692826 -0.02601909 12.36421204 -0.02983093 C14.63441064 -0.0360969 16.90460823 -0.04274382 19.17480469 -0.04974365 C26.63156929 -0.07076894 34.08833407 -0.08114398 41.54512024 -0.09111023 C44.11328962 -0.09515823 46.6814589 -0.09927516 49.24962807 -0.10346031 C59.93243893 -0.120326 70.6152464 -0.13496106 81.29806805 -0.14220905 C84.06783741 -0.1441188 86.83760677 -0.14603915 89.6073761 -0.147995 C90.63993412 -0.14872061 90.63993412 -0.14872061 91.6933519 -0.14946087 C102.84108793 -0.1577588 113.98871657 -0.1830939 125.13640573 -0.21557567 C136.59268714 -0.24868338 148.04888847 -0.26632859 159.50522262 -0.26985329 C165.93304453 -0.27220322 172.36069658 -0.2811567 178.78847313 -0.30631447 C184.83695044 -0.3296057 190.88514615 -0.33382397 196.93365669 -0.32355309 C199.14996147 -0.32305789 201.36628016 -0.32937336 203.58254242 -0.34310913 C206.61599197 -0.36085335 209.64843362 -0.35370901 212.68188477 -0.34057617 C213.55204576 -0.35154542 214.42220675 -0.36251466 215.31873626 -0.37381631 C223.96224056 -0.28391176 231.75820407 2.49568946 238.12715149 8.44404602 C245.09690275 16.1961163 246.9587893 24.04125425 246.94892883 34.2323761 C246.95564606 35.23316696 246.96236328 36.23395782 246.96928406 37.26507568 C246.98824445 40.56566872 246.99218733 43.86605819 246.99433899 47.16670227 C247.00076839 49.46827273 247.00749686 51.76984238 247.01451111 54.07141113 C247.02647907 58.8939656 247.03019243 63.71644846 247.02900696 68.53901672 C247.02880383 74.70590562 247.05610241 80.87233337 247.09055138 87.03911304 C247.11283467 91.79275606 247.11684405 96.54628837 247.11578751 101.29997826 C247.11814144 103.5728737 247.12695316 105.84577229 247.14245224 108.1186161 C247.16213995 111.30399606 247.1562626 114.488385 247.14424133 117.67378235 C247.15548035 118.6044754 247.16671936 119.53516846 247.17829895 120.49406433 C247.08699602 130.0583472 243.24643913 138.22670947 236.65840149 145.14717102 C229.31340549 150.93502787 222.20688312 152.44633868 213.03796387 152.41459656 C212.07546905 152.41912767 211.11297424 152.42365878 210.12131292 152.4283272 C206.89949597 152.44097693 203.67784793 152.43935045 200.45600891 152.43769836 C198.14463076 152.44368324 195.83325462 152.4504887 193.5218811 152.45805359 C187.2449621 152.47572475 180.96809762 152.48040944 174.69115615 152.48168516 C169.45014028 152.48358465 164.2091371 152.49094276 158.96812612 152.49802935 C147.30833852 152.51338501 135.64857749 152.51936689 123.98878058 152.51801865 C123.28960655 152.51793874 122.59043253 152.51785882 121.87007141 152.51777649 C121.17004013 152.51769473 120.47000884 152.51761297 119.74876449 152.51752873 C108.40641501 152.516716 97.06419838 152.53585175 85.72188731 152.56405322 C74.06556444 152.59280593 62.4093124 152.60622623 50.75295335 152.60486567 C44.21284781 152.60435586 37.67289263 152.61004963 31.13281822 152.63122177 C24.98090129 152.65059357 18.82927833 152.65073554 12.677351 152.63618851 C10.42192912 152.63409803 8.1664889 152.63881545 5.91109848 152.65090942 C2.82698449 152.6663736 -0.25611735 152.65704534 -3.34020996 152.64164734 C-4.22816547 152.65193447 -5.11612097 152.66222159 -6.03098422 152.67282045 C-15.41743981 152.56958869 -23.56452371 148.59870948 -30.34159851 142.14717102 C-36.15000677 134.77609455 -37.64164327 127.64486168 -37.61625671 118.44502258 C-37.62392311 117.00476715 -37.62392311 117.00476715 -37.63174438 115.53541565 C-37.645614 112.36947854 -37.64468517 109.20375986 -37.64237976 106.03779602 C-37.64626893 103.8283022 -37.65060406 101.61880913 -37.65536499 99.40931702 C-37.66282215 94.77926714 -37.66254013 90.14929351 -37.65727234 85.51924133 C-37.65148704 79.6036238 -37.66838864 73.68832032 -37.69161701 67.77275467 C-37.7063956 63.20865573 -37.70722028 58.64463163 -37.70410728 54.080513 C-37.7046187 51.90055979 -37.7098226 49.72060219 -37.7199192 47.5406723 C-37.73234234 44.48254405 -37.72545598 41.42501719 -37.71391296 38.36689758 C-37.7215567 37.47720276 -37.72920044 36.58750793 -37.73707581 35.67085266 C-37.64746675 24.85678341 -34.47170334 16.51576706 -27.15409851 8.52217102 C-19.45188779 1.03529092 -10.25371939 -0.00214498 0 0 Z " fill="#FEB300" transform="translate(265.3415985107422,307.8528289794922)"/>
<path d="M0 0 C10.28888354 6.30938147 18.18419146 16.478076 25.67578125 25.76171875 C29.08749003 29.98318738 32.65629449 33.99011954 36.36328125 37.94921875 C40.89344958 42.7882622 45.17742447 47.75555285 49.3125 52.94140625 C51.81351555 55.99979098 54.49319818 58.86288884 57.24609375 61.6953125 C58.36328125 63.44921875 58.36328125 63.44921875 58.38671875 65.29296875 C56.83195541 68.56865334 54.36299244 70.94197911 51.86328125 73.51171875 C48.0336359 77.54530972 44.33796064 81.59948223 40.86328125 85.94921875 C37.52025173 90.11589323 34.01204012 94.05331911 30.36328125 97.94921875 C25.81023245 102.81299695 21.50295504 107.80861881 17.3359375 113.01171875 C15.1628824 115.6968403 12.89145538 118.27325716 10.5546875 120.81640625 C6.28439205 126.66881116 6.60744699 133.53413934 7.36328125 140.44921875 C9.37784338 147.60775991 12.93240117 151.56829256 19.27734375 155.29296875 C19.96570313 155.67453125 20.6540625 156.05609375 21.36328125 156.44921875 C22.35328125 157.10921875 23.34328125 157.76921875 24.36328125 158.44921875 C13.50525113 158.54231155 2.64731753 158.61318183 -8.21103191 158.65646744 C-13.25419501 158.67725294 -18.29708304 158.70540353 -23.34008789 158.75097656 C-28.21603371 158.7947591 -33.09171663 158.81842364 -37.96784401 158.82872772 C-39.81879623 158.83606137 -41.66973571 158.85038059 -43.52057457 158.87213898 C-62.24793608 159.08333986 -77.35326777 155.60768052 -91.44921875 142.26171875 C-104.12734106 128.87113712 -108.45487276 114.16147676 -108.44799805 96.12084961 C-108.16036548 88.66993595 -106.92410473 84.17971062 -101.40234375 78.875 C-100.4896875 78.07449219 -99.57703125 77.27398437 -98.63671875 76.44921875 C-96.58989611 74.32498949 -94.61910904 72.13344897 -92.63671875 69.94921875 C-91.6058283 68.84471638 -90.57458256 67.74054552 -89.54296875 66.63671875 C-86.95413203 63.83214563 -84.52587127 60.92700305 -82.13671875 57.94921875 C-78.31677864 53.18813397 -74.24733056 48.7364885 -70.078125 44.28515625 C-66.96103321 40.93805006 -64.00090762 37.51907734 -61.13671875 33.94921875 C-57.26904031 29.13220106 -53.1644952 24.59927395 -48.94848633 20.08959961 C-46.17022433 17.11751576 -43.45852858 14.11369257 -40.82421875 11.01171875 C-30.11656474 -1.24402982 -15.91237863 -7.42230427 0 0 Z " fill="#5DC122" transform="translate(107.63671875,233.55078125)"/>
<path d="M0 0 C0.72574219 0.41378906 1.45148438 0.82757813 2.19921875 1.25390625 C3.36517578 1.89005859 3.36517578 1.89005859 4.5546875 2.5390625 C14.21861767 8.35037059 20.22824138 17.44432342 23.19921875 28.25390625 C24.57020406 40.46424418 22.218309 51.14758128 15.19921875 61.25390625 C8.02355213 69.50209243 -0.33154777 74.70194909 -11.296875 75.796875 C-23.7418581 76.55241379 -32.39920782 73.87604536 -42.44921875 66.2421875 C-49.66793814 59.75493303 -54.52924325 51.51234566 -55.26953125 41.734375 C-55.72376573 29.445869 -53.65701077 19.98066661 -45.80078125 10.25390625 C-34.36817242 -1.99004901 -15.61527786 -7.60880262 0 0 Z " fill="#FEB301" transform="translate(180.80078125,103.74609375)"/>
<path d="M0 0 C9.38286553 -0.55991783 19.12009213 2.48448451 26.3125 8.546875 C33.67376642 15.54091271 33.67376642 15.54091271 34.72265625 20.30859375 C33.77696732 24.26329293 32.284624 25.78181324 29.03515625 28.18359375 C26.03515625 28.80859375 26.03515625 28.80859375 23.03515625 28.18359375 C20.66015625 25.99609375 20.66015625 25.99609375 18.03515625 23.18359375 C10.88632418 18.10341978 4.89253665 16.0026097 -3.96484375 17.18359375 C-10.54847606 19.61647339 -14.72669931 23.12956694 -17.97460938 29.33178711 C-19.81684868 34.63730912 -19.66355628 40.11531513 -19.56176758 45.66772461 C-19.52733449 47.74665269 -19.54118066 49.82134114 -19.56054688 51.90039062 C-19.55105843 59.35663007 -18.97635968 64.80690658 -14.96484375 71.18359375 C-14.63484375 72.17359375 -14.30484375 73.16359375 -13.96484375 74.18359375 C-12.21616892 75.26790469 -12.21616892 75.26790469 -9.96484375 76.18359375 C-9.09859375 76.71984375 -8.23234375 77.25609375 -7.33984375 77.80859375 C-1.42804191 80.21710561 4.43138692 79.99486015 10.41015625 77.80859375 C11.60640625 77.27234375 12.80265625 76.73609375 14.03515625 76.18359375 C14.81890625 75.87421875 15.60265625 75.56484375 16.41015625 75.24609375 C18.55896427 73.84110389 19.08708404 72.55377428 20.03515625 70.18359375 C20.70182292 68.51692708 21.36848958 66.85026042 22.03515625 65.18359375 C20.86597656 65.16941406 19.69679688 65.15523438 18.4921875 65.140625 C16.94397168 65.09370937 15.39579581 65.04546206 13.84765625 64.99609375 C13.07873047 64.99029297 12.30980469 64.98449219 11.51757812 64.97851562 C7.25769936 64.81397095 5.48611446 64.53745849 2.0234375 61.8203125 C0.03515625 59.18359375 0.03515625 59.18359375 -0.58984375 56.18359375 C0.25468086 52.12987564 1.8528953 50.78254822 5.03515625 48.18359375 C8.18554688 47.56835938 8.18554688 47.56835938 11.69140625 47.58984375 C12.96113281 47.59242188 14.23085938 47.595 15.5390625 47.59765625 C17.51712891 47.64019531 17.51712891 47.64019531 19.53515625 47.68359375 C20.85386719 47.68101562 22.17257812 47.6784375 23.53125 47.67578125 C34.46589783 47.7867929 34.46589783 47.7867929 39.03515625 51.18359375 C41.90004864 56.91337853 40.1979842 64.53283402 38.41015625 70.37109375 C34.96492431 79.69490326 28.47759937 87.98177714 19.44140625 92.47265625 C9.09024932 96.70445276 -1.15247984 97.69803241 -11.96484375 94.18359375 C-22.64443326 89.17203226 -29.61097007 82.14165785 -33.96484375 71.18359375 C-35.51096454 66.41635799 -36.22070304 62.29573073 -36.23046875 57.2890625 C-36.23304688 56.00322266 -36.235625 54.71738281 -36.23828125 53.39257812 C-36.2340918 52.73088623 -36.22990234 52.06919434 -36.22558594 51.38745117 C-36.21492625 49.38657991 -36.22651722 47.3856307 -36.23828125 45.38476562 C-36.21035532 31.41481944 -34.40011274 21.06910082 -24.83984375 10.43359375 C-17.80958635 3.84077459 -9.38007718 0.87646844 0 0 Z " fill="#FFFDFB" transform="translate(435.96484375,335.81640625)"/>
<path d="M0 0 C1.26005859 -0.02771484 2.52011719 -0.05542969 3.81835938 -0.08398438 C13.61616667 -0.05866704 21.74028032 2.0771536 29.20117188 8.69555664 C34.82140112 14.52860402 37.02037707 20.42988239 37.5 28.4375 C37.28440354 36.17937273 34.27044806 42.73557587 29.296875 48.6328125 C27.59664767 50.21386502 25.90110539 51.45206494 23.9375 52.6875 C23.339375 53.09742188 22.74125 53.50734375 22.125 53.9296875 C14.51173722 58.24188712 5.38479107 57.01555014 -3.0625 56.6875 C-3.04678955 57.69127686 -3.0310791 58.69505371 -3.01489258 59.72924805 C-2.96044886 63.46581955 -2.92609774 67.20235621 -2.89770508 70.93920898 C-2.88265124 72.55417789 -2.86220352 74.16910613 -2.83618164 75.78393555 C-2.79964714 78.10996555 -2.78273985 80.43545341 -2.76953125 82.76171875 C-2.75404739 83.47962082 -2.73856354 84.19752289 -2.72261047 84.93717957 C-2.72113386 89.37060969 -3.32578577 92.16649113 -6.0625 95.6875 C-8.87165474 97.09207737 -10.95060534 96.93645157 -14.0625 96.6875 C-17.1984157 94.90765595 -17.90352736 94.16441793 -19.0625 90.6875 C-19.17924426 87.99150157 -19.24056976 85.32036913 -19.25537109 82.62353516 C-19.26354858 81.80207504 -19.27172607 80.98061493 -19.28015137 80.13426208 C-19.30497058 77.41503628 -19.32151061 74.69586248 -19.3359375 71.9765625 C-19.34126118 71.04778667 -19.34658485 70.11901085 -19.35206985 69.1620903 C-19.37878367 64.24804256 -19.39816604 59.33402009 -19.41259766 54.41992188 C-19.42595037 50.35165998 -19.45382981 46.28389807 -19.49462891 42.21582031 C-19.54388996 37.30398799 -19.56871031 32.39261005 -19.57582474 27.48054123 C-19.58254459 25.60901302 -19.59778571 23.73749523 -19.62171555 21.86610794 C-19.65330209 19.24695052 -19.65341434 16.62955144 -19.64599609 14.01025391 C-19.66240143 13.23813065 -19.67880676 12.46600739 -19.69570923 11.67048645 C-19.64945528 7.67957111 -19.21602807 5.88239392 -16.71598816 2.70875549 C-11.77348301 -1.05612496 -5.98302461 -0.06890815 0 0 Z " fill="#FFFEFC" transform="translate(356.0625,335.3125)"/>
<path d="M0 0 C1.79143681 -0.01390715 3.58286486 -0.02898414 5.37428284 -0.0451355 C10.21497953 -0.08427283 15.0555519 -0.10379271 19.89638186 -0.11716747 C22.9240855 -0.12599012 25.95175585 -0.1383095 28.9794426 -0.15167999 C38.46319392 -0.19262598 47.94686832 -0.22167154 57.43070185 -0.23328567 C68.36076733 -0.24674758 79.28971099 -0.29951378 90.21943533 -0.38628745 C98.68425876 -0.45115149 107.14876641 -0.48139867 115.61383569 -0.48540902 C120.66360723 -0.48854984 125.71232044 -0.50619903 130.76182938 -0.55986786 C135.50827499 -0.60934435 140.25286751 -0.61576586 144.99947929 -0.58945084 C146.7377399 -0.58714196 148.47610077 -0.60014061 150.21410942 -0.62982559 C163.33839039 -0.84079591 163.33839039 -0.84079591 168.0499382 2.52349091 C173.19287109 8.18201788 173.19287109 8.18201788 173.19287109 10.48339844 C172.27441721 10.48578679 171.35596333 10.48817514 170.40967751 10.49063587 C148.04095545 10.54982355 125.67234079 10.62539784 103.30373573 10.71911335 C92.48635458 10.76404048 81.66900612 10.80346229 70.8515625 10.82983398 C61.42087564 10.85283899 51.99029252 10.88626505 42.55968797 10.9321 C37.56825569 10.95599839 32.57692593 10.97474936 27.58543777 10.98101234 C22.88224128 10.98707848 18.17930699 11.00713352 13.47620773 11.03767395 C11.75499037 11.0464297 10.03373871 11.05018189 8.3125 11.0484066 C-3.88057359 11.03980537 -15.40727975 11.17923699 -24.61962891 20.27246094 C-31.25060812 27.42839267 -33.85805277 34.42043755 -34.01245117 44.19165039 C-34.03239639 45.31243484 -34.05234161 46.4332193 -34.07289124 47.58796692 C-34.08960373 48.78709213 -34.10631622 49.98621735 -34.12353516 51.22167969 C-34.14431625 52.45758347 -34.16509735 53.69348724 -34.18650818 54.96684265 C-34.24072821 58.23991969 -34.29100469 61.51302584 -34.33935547 64.78619385 C-34.38974461 68.13128103 -34.44541707 71.47627568 -34.50048828 74.82128906 C-34.60748833 81.37525615 -34.70928782 87.92928857 -34.80712891 94.48339844 C-38.10712891 94.48339844 -41.40712891 94.48339844 -44.80712891 94.48339844 C-44.87688787 85.9031511 -44.93007079 77.32302386 -44.96256542 68.74256229 C-44.97816758 64.75755297 -44.99930507 60.77273883 -45.03344727 56.7878418 C-45.06623673 52.93637126 -45.08402283 49.08508752 -45.09176064 45.23348808 C-45.09726923 43.76999411 -45.10802552 42.30650942 -45.12431908 40.84309578 C-45.2550836 28.60261976 -43.8066608 19.11548786 -35.80712891 9.48339844 C-25.8145969 -0.38019767 -13.15361646 0.02390372 0 0 Z " fill="#216031" transform="translate(262.80712890625,297.5166015625)"/>
<path d="M0 0 C4.05488352 0.8447674 5.39897694 2.44225501 8 5.625 C8.64164734 8.76502991 8.64164734 8.76502991 8.6628418 12.33618164 C8.67320969 12.99063263 8.68357758 13.64508362 8.69425964 14.31936646 C8.72127814 16.47527528 8.71167356 18.62913982 8.69921875 20.78515625 C8.70513443 22.29626527 8.71238398 23.80736959 8.72090149 25.31846619 C8.73277654 28.48689156 8.72609206 31.65461445 8.70678711 34.82299805 C8.68403038 38.85245659 8.71053377 42.87978767 8.75184917 46.90903568 C8.77764331 50.0330345 8.77478719 53.15654005 8.76395607 56.28060722 C8.76248407 57.76393998 8.7699867 59.24731342 8.78720665 60.73054695 C8.88977488 71.28661871 7.44506372 80.39406357 0.25810242 88.61830139 C-5.41803123 94.06348763 -12.19186043 96.82735808 -20 97.125 C-28.53062015 96.78940454 -35.01776021 93.54926988 -41.203125 87.72265625 C-47.06241203 80.88257552 -48.86453264 73.34574862 -48.484375 64.46484375 C-48 61.625 -48 61.625 -45.875 58.3125 C-42.44657382 56.30016289 -40.9001417 55.81247048 -37 56.625 C-34.28053122 58.29376494 -33.41502015 58.88783748 -32 61.625 C-31.61642074 63.7802187 -31.31127173 65.95009464 -31.0625 68.125 C-30.48672971 73.64238911 -30.48672971 73.64238911 -27.3125 77.9375 C-23.43324127 79.91372614 -21.29705912 80.25002678 -17 79.625 C-12.77513276 77.80062551 -11.01716502 75.70754558 -9 71.625 C-8.56483373 68.49266317 -8.56483373 68.49266317 -8.64697266 65.078125 C-8.64148911 63.12084473 -8.64148911 63.12084473 -8.63589478 61.12402344 C-8.64069477 60.43175659 -8.64549477 59.73948975 -8.65044022 59.02624512 C-8.66423189 56.84824985 -8.6577113 54.67116026 -8.64559937 52.49316406 C-8.61470703 46.30397471 -8.61952221 40.11499976 -8.63964844 33.92578125 C-8.65057738 30.1331635 -8.63735558 26.34122894 -8.60975266 22.54870605 C-8.60432078 21.10705997 -8.60835406 19.66534518 -8.62215042 18.22375488 C-8.64123597 16.20654893 -8.6272141 14.18911247 -8.61181641 12.171875 C-8.61539658 10.45242676 -8.61539658 10.45242676 -8.61904907 8.69824219 C-7.6299051 3.78767997 -4.89175149 1.01911489 0 0 Z " fill="#FFFEFB" transform="translate(312,335.375)"/>
<path d="M0 0 C3.5578125 -0.0928125 3.5578125 -0.0928125 7.1875 -0.1875 C8.29387817 -0.22846802 8.29387817 -0.22846802 9.42260742 -0.27026367 C15.26172576 -0.34359764 18.22010688 1.2682121 22.3125 5.25 C24.49381184 8.80473041 24.51379023 10.88967819 24 15 C22.48007896 18.18459646 20.71704041 20.73579966 18 23 C14.37918537 24.20693821 11.0749281 24.10782079 7.3125 24.0625 C3.6928125 24.0315625 3.6928125 24.0315625 0 24 C0 16.08 0 8.16 0 0 Z " fill="#FFB302" transform="translate(353,352)"/>
<path d="M0 0 C6.6 0 13.2 0 20 0 C20 3.3 20 6.6 20 10 C15.86810221 10.5578062 12.1138106 10.76256001 8 10 C4.65989242 7.44937239 2.26698232 4.52715779 0 1 C0 0.67 0 0.34 0 0 Z " fill="#C7CBCD" transform="translate(428,298)"/>
</svg>
