<?xml version="1.0" encoding="UTF-8"?>
<svg version="1.1" xmlns="http://www.w3.org/2000/svg" width="512" height="512">
<path d="M0 0 C1.86621689 -0.00346109 3.73243174 -0.00822867 5.59864235 -0.01418173 C10.70193033 -0.02665934 15.80504915 -0.0205361 20.90833759 -0.01122308 C26.42171158 -0.00441964 31.93505702 -0.01492024 37.44842529 -0.02316284 C48.23928218 -0.03648854 59.0300764 -0.0336276 69.82093573 -0.02492492 C78.59248207 -0.01814421 87.36401087 -0.01723333 96.13555908 -0.02049637 C98.00961817 -0.02118592 98.00961817 -0.02118592 99.92153704 -0.0218894 C102.45977386 -0.02284859 104.99801068 -0.02382123 107.53624749 -0.02480717 C130.64811018 -0.03311401 153.75994016 -0.02450585 176.87179533 -0.00877938 C197.95344824 0.00545659 219.03504678 0.00418267 240.11669922 -0.01016235 C263.8225105 -0.02623921 287.52829548 -0.03253372 311.23411369 -0.02332556 C313.76290766 -0.02236994 316.29170163 -0.02142682 318.82049561 -0.02049637 C320.68671977 -0.01980213 320.68671977 -0.01980213 322.59064543 -0.01909386 C331.34960195 -0.01650579 340.10853915 -0.02087105 348.86749268 -0.02793503 C359.54465796 -0.0363569 370.22175709 -0.03405538 380.89891481 -0.0180928 C386.34443839 -0.0102194 391.78985174 -0.00710269 397.23537445 -0.01704025 C402.22434077 -0.02600682 407.21309514 -0.02102193 412.20204234 -0.0051076 C414.00269066 -0.00176811 415.80335704 -0.00343503 417.60399365 -0.01073496 C432.28618516 -0.06567228 444.42055615 0.56087314 455.41552734 11.26766968 C463.5292666 19.87161402 463.91931842 28.18462312 463.8657074 39.56977844 C463.86988394 41.01395298 463.87536321 42.45812424 463.88202721 43.90228945 C463.89645851 47.85745575 463.89224439 51.81241326 463.8848604 55.76759088 C463.88012531 60.03830244 463.89264156 64.30896904 463.90287781 68.57966614 C463.92006421 76.94099181 463.92090618 85.30224232 463.9156649 93.66358107 C463.91162183 100.46013665 463.9130684 107.25667004 463.91841316 114.05322456 C463.91916158 115.02091857 463.91991001 115.98861258 463.92068111 116.98563065 C463.9222126 118.9515568 463.92375095 120.91748295 463.92529608 122.88340909 C463.93902044 141.31469244 463.93358378 159.74593333 463.92211086 178.1772157 C463.91217762 195.03537024 463.92512086 211.89341503 463.94904505 228.75155263 C463.97343294 246.0670408 463.98304474 263.38247785 463.97639233 280.69798285 C463.97289954 290.41713087 463.97513618 300.13619448 463.99264336 309.85532951 C464.00736139 318.12859225 464.00800593 326.40171113 463.99057245 334.67497104 C463.98205697 338.89486198 463.97992622 343.1144959 463.995224 347.33437347 C464.00906476 351.20022703 464.00431615 355.0656032 463.98498476 358.9314291 C463.98122255 360.32703261 463.9841532 361.7226743 463.99459641 363.11824381 C464.07365297 374.49530295 462.15729834 382.20388033 454.33740234 390.59188843 C445.69774787 398.90483328 436.41855767 400.54420231 424.61680889 400.50958538 C423.85195979 400.51133842 423.08711068 400.51309146 422.29908434 400.51489761 C419.73930355 400.51954502 417.17957988 400.51709536 414.61979675 400.5146637 C412.76472166 400.5165323 410.90964696 400.5188332 409.05457288 400.52152902 C403.95898176 400.52764727 398.86340704 400.52751339 393.76781309 400.52633464 C388.27144008 400.52613065 382.77507234 400.5316493 377.27870178 400.53639221 C366.51124495 400.54469936 355.74379359 400.54744708 344.97633382 400.54800459 C336.22467802 400.5484797 327.47302402 400.55053419 318.72136879 400.55370522 C297.94860822 400.56107877 277.17584873 400.56723002 256.40308666 400.56670666 C255.73891384 400.56669108 255.07474102 400.5666755 254.39044175 400.56665945 C251.02420999 400.56657634 247.65797822 400.5664773 244.29174646 400.56637474 C243.62321196 400.5663548 242.95467746 400.56633485 242.26588435 400.5663143 C240.91394508 400.56627386 239.56200582 400.56623207 238.21006655 400.56618891 C217.17625165 400.56557616 196.14245287 400.57308303 175.10864258 400.58676147 C151.47211097 400.60212619 127.83558742 400.6107148 104.19904977 400.60979825 C91.68587119 400.60946615 79.17271078 400.61221907 66.65953636 400.6229763 C56.00636373 400.63207583 45.35321752 400.63426104 34.70004269 400.62746688 C29.26494653 400.62419898 23.82990108 400.62415479 18.39480972 400.63282013 C13.41751384 400.64067398 8.44030899 400.63926506 3.46301536 400.630536 C1.66426947 400.62899856 -0.13448316 400.63082633 -1.93322108 400.63639607 C-29.05540708 400.71480414 -29.05540708 400.71480414 -39.77197266 390.63095093 C-45.55127305 384.55644069 -48.64197258 377.97679333 -48.65619373 369.57086754 C-48.6628805 367.74145058 -48.6628805 367.74145058 -48.66970235 365.8750757 C-48.66961305 364.51451579 -48.66942319 363.15395588 -48.66914368 361.793396 C-48.67244235 360.35353993 -48.67616792 358.91368478 -48.68028516 357.47383082 C-48.69031302 353.50743216 -48.69402322 349.54104863 -48.69667447 345.57463908 C-48.70057522 341.30044456 -48.71015376 337.02626206 -48.71888733 332.7520752 C-48.73865882 322.42468178 -48.74871908 312.09728737 -48.75761512 301.76987976 C-48.76199713 296.90760702 -48.76736419 292.04533538 -48.77260399 287.18306351 C-48.78961739 271.02133345 -48.80411162 254.85960408 -48.81135273 238.69786644 C-48.81326266 234.50287246 -48.81518298 230.30787848 -48.81713867 226.11288452 C-48.81762241 225.07022665 -48.81810615 224.02756878 -48.81860455 222.95331521 C-48.82690504 206.06251848 -48.85224177 189.17179257 -48.88471935 172.28102677 C-48.91778513 154.94310664 -48.93580108 137.60522251 -48.93899697 120.26727068 C-48.94116257 110.53126868 -48.94991855 100.79536994 -48.97545815 91.05939865 C-48.99715861 82.76773032 -49.0052188 74.47619031 -48.99549136 66.18449681 C-48.99094469 61.95450406 -48.99285413 57.72477612 -49.01225281 53.49481964 C-49.02987131 49.61953166 -49.02889768 45.74470192 -49.01335552 41.86940916 C-49.01097742 40.47028452 -49.01531357 39.07112826 -49.02718417 37.67205195 C-49.11769149 26.29674674 -47.23357594 18.52361749 -39.35791016 10.16610718 C-28.34023466 -0.5468241 -14.48983456 -0.05874297 0 0 Z M-15.52197266 34.38095093 C-15.52197266 109.29095093 -15.52197266 184.20095093 -15.52197266 261.38095093 C-7.80833617 253.66731444 -0.65086547 245.61817019 6.19677734 237.13095093 C8.54521703 234.29995514 10.98712637 231.58711495 13.47802734 228.88095093 C17.59181643 224.41109973 21.44890031 219.790502 25.26318359 215.06454468 C28.14283621 211.57544177 31.1849661 208.25098172 34.23193359 204.90829468 C36.53990332 202.311327 38.73358597 199.6469108 40.91552734 196.94345093 C44.77511337 192.1709889 48.85002725 187.64985984 53.00537109 183.13485718 C56.22512253 179.54887809 59.2370791 175.81393601 62.26318359 172.06454468 C65.14283621 168.57544177 68.1849661 165.25098172 71.23193359 161.90829468 C73.53990332 159.311327 75.73358597 156.6469108 77.91552734 153.94345093 C81.77285271 149.17378425 85.84233488 144.6533731 90.00146484 140.14657593 C92.47668282 137.38245238 94.7942254 134.53480492 97.10302734 131.63095093 C104.24874693 122.85550582 110.40342201 117.42765903 121.85302734 115.94345093 C134.65483686 117.4884969 140.65818996 123.87692611 148.47802734 133.38095093 C149.26048828 134.31809937 150.04294922 135.2552478 150.84912109 136.22079468 C152.31034687 137.99458211 153.76091562 139.77720253 155.20068359 141.56845093 C157.74712919 144.71328941 160.35548008 147.7996161 162.97802734 150.88095093 C166.3327804 154.82720905 169.65025305 158.79738077 172.91552734 162.81845093 C176.37076885 167.06487475 179.90500569 171.23391387 183.47802734 175.38095093 C187.79731691 180.39414581 192.02899853 185.46632413 196.20068359 190.60360718 C198.76006706 193.7249136 201.3639265 196.80548517 203.97802734 199.88095093 C207.33249861 203.82745573 210.65024564 207.79737165 213.91552734 211.81845093 C217.37076885 216.06487475 220.90500569 220.23391387 224.47802734 224.38095093 C228.79731691 229.39414581 233.02899853 234.46632413 237.20068359 239.60360718 C239.76007034 242.7249176 242.36408159 245.80534935 244.97802734 248.88095093 C252.64683091 257.91167868 260.0991804 267.11215408 267.47802734 276.38095093 C271.73830806 274.73692329 274.54558173 271.54343437 277.66430664 268.34237671 C278.27466263 267.72428131 278.88501862 267.10618591 279.51387024 266.46936035 C280.83751274 265.12807926 282.15893892 263.7846082 283.47839928 262.4392128 C285.57150738 260.30663896 287.67209299 258.18170841 289.77510071 256.05889893 C295.75324667 250.02276654 301.72177853 243.9772672 307.67504883 237.91659546 C311.31930407 234.20767817 314.97583333 230.51123743 318.64023781 226.82223129 C320.03031449 225.41794631 321.41571053 224.00901121 322.79617882 222.59527969 C324.73421903 220.61121368 326.68752768 218.64340982 328.64477539 216.67831421 C329.20458099 216.09739014 329.7643866 215.51646606 330.34115601 214.91793823 C335.25418826 210.04080529 340.79728702 206.99440765 347.66552734 205.84970093 C361.15043524 205.99953324 367.66863833 211.90714239 376.92626953 220.88973999 C379.08296005 222.96228022 381.30708986 224.95418346 383.54052734 226.94345093 C387.20909688 230.23148813 390.85056912 233.54768859 394.47802734 236.88095093 C398.92801655 240.96957701 403.40583531 245.02530629 407.90771484 249.05673218 C409.7803335 250.75005755 411.63831556 252.45366929 413.48583984 254.17391968 C414.00404297 254.65473999 414.52224609 255.1355603 415.05615234 255.63095093 C416.51451423 256.98619632 417.96905295 258.34555243 419.42333984 259.70516968 C422.94688194 262.79164836 426.73066991 265.57043285 430.47802734 268.38095093 C430.47802734 191.16095093 430.47802734 113.94095093 430.47802734 34.38095093 C283.29802734 34.38095093 136.11802734 34.38095093 -15.52197266 34.38095093 Z " fill="#000000" transform="translate(48.52197265625,55.619049072265625)"/>
<path d="M0 0 C0.87180908 0.00572021 1.74361816 0.01144043 2.6418457 0.01733398 C14.23201438 0.33526879 23.91948723 4.39037204 32.25 12.5 C42.5812259 23.4584789 45.80009889 34.49650938 45.52734375 49.3515625 C44.97480788 61.34241552 38.80935169 71.76555125 30.21484375 79.87109375 C20.55393643 87.88023561 9.69277382 91.14835428 -2.80078125 90.7890625 C-16.87571524 89.40953255 -27.4417673 83.01065561 -36.578125 72.37109375 C-44.12180531 62.02710787 -45.89241526 50.02477222 -44.75 37.5 C-42.66221468 25.76022254 -35.91973575 14.80791727 -26.328125 7.70703125 C-17.93654519 2.42971786 -9.90891732 -0.07622986 0 0 Z " fill="#000000" transform="translate(385.75,129.5)"/>
</svg>
