<?xml version="1.0" encoding="UTF-8"?>
<svg version="1.1" xmlns="http://www.w3.org/2000/svg" width="512" height="512">
<path d="M0 0 C1.46214033 -0.0046197 2.924276 -0.01097974 4.38640213 -0.01890898 C8.36821863 -0.03547893 12.34964758 -0.0274128 16.33146477 -0.0149641 C20.63966258 -0.00586491 24.94779657 -0.01990734 29.25598145 -0.03088379 C37.68148999 -0.04862191 46.10685559 -0.04485008 54.53236961 -0.03323323 C61.3831232 -0.02418059 68.23383687 -0.02298281 75.08459473 -0.02732849 C76.06155784 -0.02794142 77.03852095 -0.02855436 78.04508901 -0.02918586 C80.03009257 -0.03046483 82.01509612 -0.03176168 84.00009966 -0.03307623 C102.59082476 -0.04446824 121.18147081 -0.03138999 139.77218294 -0.00987476 C155.70590892 0.00799496 171.63951831 0.00489046 187.57324219 -0.0135498 C206.09980054 -0.03498091 224.62628971 -0.04336973 243.15285873 -0.03110075 C245.13034819 -0.02982662 247.10783767 -0.02856914 249.08532715 -0.02732849 C250.05815809 -0.02671139 251.03098902 -0.02609429 252.03329968 -0.02545848 C258.87170406 -0.0220123 265.71006436 -0.02781812 272.54846191 -0.0372467 C280.88810405 -0.04849298 289.22759568 -0.04537153 297.56722069 -0.02412373 C301.81801506 -0.01364859 306.06855897 -0.00943072 310.3193512 -0.02272034 C314.21791148 -0.03472394 318.11599143 -0.02795213 322.01450872 -0.00681013 C323.41743294 -0.00237752 324.82039855 -0.00453422 326.22329569 -0.01431328 C343.22616016 -0.12365229 357.46890407 4.92815153 369.89746094 16.69543457 C384.38952849 32.00189785 386.69433498 48.07545945 386.5390625 68.16931152 C386.53793231 70.23031594 386.53857123 72.29132196 386.54083252 74.35232544 C386.54197389 79.91143912 386.5185583 85.4702032 386.49053669 91.02923608 C386.46542647 96.85212925 386.46317347 102.67503162 386.45843506 108.49797058 C386.44603347 119.50843865 386.41325009 130.51874667 386.3730371 141.52914447 C386.32823153 154.07090175 386.30631028 166.61266692 386.28625536 179.15448439 C386.2445149 204.9390563 386.17421783 230.72348644 386.08496094 256.50793457 C387.24431152 256.4869873 388.40366211 256.46604004 389.59814453 256.44445801 C393.94046451 256.37151227 398.28273143 256.3259383 402.62548828 256.28820801 C404.49732603 256.26821594 406.36910232 256.24101289 408.24072266 256.20617676 C431.88797111 255.77737332 431.88797111 255.77737332 441.55371094 264.80480957 C448.5234622 272.55687985 450.38534875 280.4020178 450.37548828 290.59313965 C450.38556412 292.09432594 450.38556412 292.09432594 450.39584351 293.62583923 C450.4148039 296.92643227 450.41874678 300.22682174 450.42089844 303.52746582 C450.42732784 305.82903628 450.43405631 308.13060593 450.44107056 310.43217468 C450.45303852 315.25472915 450.45675188 320.07721201 450.45556641 324.89978027 C450.45536328 331.06666917 450.48266186 337.23309692 450.51711082 343.39987659 C450.53939412 348.15351961 450.54340349 352.90705192 450.54234695 357.66074181 C450.54470088 359.93363725 450.5535126 362.20653584 450.56901169 364.47937965 C450.5886994 367.66475961 450.58282205 370.84914855 450.57080078 374.0345459 C450.58203979 374.96523895 450.59327881 375.89593201 450.6048584 376.85482788 C450.51355547 386.41911075 446.67299857 394.58747302 440.08496094 401.50793457 C432.73996494 407.29579142 425.63344257 408.80710223 416.46452332 408.77536011 C415.5020285 408.77989122 414.53953369 408.78442233 413.54787236 408.78909075 C410.32605541 408.80174048 407.10440738 408.800114 403.88256836 408.79846191 C401.57119021 408.80444679 399.25981407 408.81125225 396.94844055 408.81881714 C390.67152155 408.8364883 384.39465707 408.84117299 378.1177156 408.84244871 C372.87669973 408.8443482 367.63569655 408.85170631 362.39468557 408.8587929 C350.73489797 408.87414856 339.07513693 408.88013044 327.41534003 408.8787822 C326.716166 408.87870229 326.01699198 408.87862237 325.29663086 408.87854004 C324.59659958 408.87845828 323.89656829 408.87837652 323.17532394 408.87829228 C311.83297446 408.87747955 300.49075783 408.8966153 289.14844676 408.92481677 C277.49212389 408.95356948 265.83587185 408.96698978 254.1795128 408.96562922 C247.63940726 408.96511941 241.09945208 408.97081318 234.55937767 408.99198532 C228.40746074 409.01135712 222.25583778 409.01149909 216.10391045 408.99695206 C213.84848857 408.99486158 211.59304835 408.99957899 209.33765793 409.01167297 C206.25354393 409.02713715 203.1704421 409.01780889 200.08634949 409.00241089 C199.19839398 409.01269801 198.31043847 409.02298514 197.39557523 409.033584 C188.00911964 408.93035224 179.86203574 404.95947303 173.08496094 398.50793457 C167.12610702 390.94593722 165.78519411 383.72265031 165.88964844 374.29699707 C165.89247833 373.32886078 165.89530823 372.36072449 165.89822388 371.36325073 C165.90937398 368.28635029 165.93446914 365.20974629 165.95996094 362.13293457 C165.96999742 360.04049087 165.9791221 357.94804259 165.98730469 355.85559082 C166.00929641 350.73959206 166.04379068 345.62381349 166.08496094 340.50793457 C165.1641187 340.51162174 164.24327646 340.51530891 163.29452991 340.51910782 C140.8497594 340.60758893 118.40501911 340.6737074 95.96011066 340.71518326 C85.10574884 340.73577571 74.25150371 340.76383275 63.3972168 340.80969238 C53.93250245 340.84966185 44.46787266 340.87539147 35.00307626 340.88428855 C29.99524888 340.8894862 24.98766331 340.90163305 19.97991371 340.9308548 C15.25786057 340.95818386 10.53614679 340.96634451 5.81402206 340.9603653 C4.08918979 340.96145776 2.36434511 340.9693068 0.63958168 340.98475647 C-17.37938664 341.13812455 -32.29485903 337.0384154 -45.72753906 324.32043457 C-61.16891245 308.0113183 -62.51358267 290.97074723 -62.43261719 269.65637207 C-62.43804451 267.25192848 -62.44517058 264.84748822 -62.45385742 262.4430542 C-62.47013941 256.61637094 -62.46784501 250.78991974 -62.45620686 244.96322966 C-62.44713549 240.22345512 -62.44596444 235.48373826 -62.45030212 230.74395752 C-62.45091506 230.06673342 -62.45152799 229.38950932 -62.45215949 228.69176328 C-62.45343853 227.31555571 -62.45473538 225.93934816 -62.45604986 224.56314063 C-62.46742812 211.68939517 -62.45438538 198.81576405 -62.43284839 185.94203734 C-62.41497989 174.92032609 -62.41808477 163.89878341 -62.43652344 152.8770752 C-62.45797903 140.04618116 -62.46632974 127.21538709 -62.45407438 114.38447762 C-62.45280032 113.0136223 -62.45154284 111.64276697 -62.45030212 110.27191162 C-62.44968502 109.59760459 -62.44906792 108.92329756 -62.44843212 108.22855699 C-62.44499324 103.50010468 -62.45077581 98.77171632 -62.46022034 94.04327393 C-62.47181921 87.66715756 -62.46367909 81.29135791 -62.44064331 74.91527557 C-62.43537781 72.58252232 -62.43683274 70.24974218 -62.44569397 67.91699982 C-62.5148549 47.85236503 -60.14122863 31.91911534 -45.72753906 16.69543457 C-32.55860741 4.22716914 -17.85017889 -0.12442674 0 0 Z " fill="#D4D9DC" transform="translate(61.9150390625,51.4920654296875)"/>
<path d="M0 0 C8.83584226 5.11046012 14.81122622 12.73812048 21.10546875 20.59765625 C23.86058126 23.92218788 26.74481579 27.09207529 29.6875 30.25 C30.20675049 30.80727783 30.72600098 31.36455566 31.26098633 31.9387207 C32.25763934 33.00798496 33.25430228 34.07723995 34.25097656 35.14648438 C38.05312013 39.25155376 41.67129896 43.51631885 45.30078125 47.7734375 C46.32533092 48.97412041 47.35007646 50.17463621 48.375 51.375 C48.89231689 51.98118164 49.40963379 52.58736328 49.94262695 53.21191406 C53.14752229 56.9532082 56.41459278 60.62365383 59.75 64.25 C62.93986844 67.72386309 65.98298894 71.26160025 68.9375 74.9375 C72.80468863 79.7339071 76.91230716 84.2329146 81.12060547 88.72607422 C84.23789336 92.07331785 87.19816482 95.49245906 90.0625 99.0625 C94.40061256 104.46542201 99.06401501 109.50932342 103.78515625 114.57421875 C107.13131853 118.16410418 110.37318282 121.83273368 113.5625 125.5625 C114.01077148 126.08440918 114.45904297 126.60631836 114.92089844 127.14404297 C116.45051259 128.92661273 117.97585419 130.71275327 119.5 132.5 C119.99765869 133.08072266 120.49531738 133.66144531 121.00805664 134.25976562 C124.5625 138.447175 124.5625 138.447175 124.5625 139.5625 C123.64404612 139.56488835 122.72559223 139.56727671 121.77930641 139.56973743 C99.41058435 139.62892511 77.0419697 139.70449941 54.67336464 139.79821491 C43.85598348 139.84314204 33.03863503 139.88256385 22.22119141 139.90893555 C12.79050455 139.93194055 3.35992142 139.96536661 -6.07068312 140.01120156 C-11.06211541 140.03509996 -16.05344517 140.05385092 -21.04493332 140.06011391 C-25.74812982 140.06618004 -30.4510641 140.08623509 -35.15416336 140.11677551 C-36.87538072 140.12553126 -38.59663238 140.12928345 -40.31787109 140.12750816 C-51.88585378 140.11934788 -61.82409292 140.5282997 -71.4375 147.5625 C-72.4275 147.8925 -73.4175 148.2225 -74.4375 148.5625 C-75.53640431 150.35753151 -75.53640431 150.35753151 -76.4375 152.5625 C-76.85128906 153.35527344 -77.26507813 154.14804687 -77.69140625 154.96484375 C-78.12324219 155.80144531 -78.55507812 156.63804687 -79 157.5 C-79.43441406 158.33402344 -79.86882812 159.16804687 -80.31640625 160.02734375 C-82.24189883 164.38150641 -82.56818007 168.54696726 -82.64282227 173.27075195 C-82.66276749 174.39153641 -82.68271271 175.51232086 -82.70326233 176.66706848 C-82.71997482 177.8661937 -82.73668732 179.06531891 -82.75390625 180.30078125 C-82.7850779 182.15463692 -82.7850779 182.15463692 -82.81687927 184.04594421 C-82.87109931 187.31902126 -82.92137578 190.5921274 -82.96972656 193.86529541 C-83.0201157 197.2103826 -83.07578816 200.55537724 -83.13085938 203.90039062 C-83.23785943 210.45435771 -83.33965892 217.00839013 -83.4375 223.5625 C-106.81241057 223.65609618 -130.18729008 223.72655401 -153.56235027 223.76974869 C-164.4167121 223.79034114 -175.27095723 223.81839818 -186.12524414 223.86425781 C-195.58995848 223.90422728 -205.05458828 223.9299569 -214.51938468 223.93885398 C-219.52721205 223.94405163 -224.53479763 223.95619848 -229.54254723 223.98542023 C-234.26460037 224.01274929 -238.98631415 224.02090994 -243.70843887 224.01493073 C-245.43327115 224.01602319 -247.15811583 224.02387223 -248.88287926 224.0393219 C-266.90184758 224.19268998 -281.81731996 220.09298082 -295.25 207.375 C-307.92812231 193.98441837 -312.25565401 179.27475801 -312.2487793 161.23413086 C-311.96114673 153.7832172 -310.72488598 149.29299187 -305.203125 143.98828125 C-304.29046875 143.18777344 -303.3778125 142.38726562 -302.4375 141.5625 C-300.39067736 139.43827074 -298.41989029 137.24673022 -296.4375 135.0625 C-295.40660955 133.95799763 -294.37536381 132.85382677 -293.34375 131.75 C-290.75491328 128.94542688 -288.32665252 126.0402843 -285.9375 123.0625 C-282.11755989 118.30141522 -278.04811181 113.84976975 -273.87890625 109.3984375 C-270.76181446 106.05133131 -267.80168887 102.63235859 -264.9375 99.0625 C-261.06982156 94.24548231 -256.96527645 89.7125552 -252.74926758 85.20288086 C-249.97100558 82.23079701 -247.25930983 79.22697382 -244.625 76.125 C-238.37629758 68.97287072 -231.84215964 63.29746094 -222.1015625 62.1796875 C-211.57684642 61.8372347 -204.34776353 63.76797405 -196.375 70.6875 C-189.78545068 76.98875653 -183.84611278 83.78534765 -178.125 90.875 C-174.71329122 95.09646863 -171.14448676 99.10340079 -167.4375 103.0625 C-162.90969399 107.89902006 -158.63626732 112.87192644 -154.484375 118.0390625 C-151.56772009 121.63478593 -148.5173214 125.10636601 -145.4375 128.5625 C-140.42537391 124.83553444 -136.81396085 120.4582367 -132.92578125 115.58984375 C-130.36365577 112.47265812 -127.68836855 109.5115 -124.9375 106.5625 C-121.48542779 102.85432168 -118.17225159 99.0774075 -115 95.125 C-111.15639943 90.34628372 -107.06789836 85.87092313 -102.87915039 81.39868164 C-99.76196055 78.05150673 -96.80176202 74.63244977 -93.9375 71.0625 C-90.11755989 66.30141522 -86.04811181 61.84976975 -81.87890625 57.3984375 C-78.76181446 54.05133131 -75.80168887 50.63235859 -72.9375 47.0625 C-69.1169151 42.30061158 -65.04682197 37.84814406 -60.87670898 33.39624023 C-57.77969916 30.070952 -54.84128316 26.67530061 -52 23.125 C-38.54190696 6.55745586 -23.22561848 -10.56247872 0 0 Z " fill="#256F3A" transform="translate(311.4375,168.4375)"/>
<path d="M0 0 C1.42074583 -0.00679667 1.42074583 -0.00679667 2.8701936 -0.01373065 C6.02818759 -0.02634053 9.18600836 -0.02475648 12.34402466 -0.02310181 C14.61466696 -0.02908911 16.88530722 -0.03589512 19.15594482 -0.04345703 C25.31298188 -0.06110191 31.46996332 -0.06581173 37.62702322 -0.0670886 C41.47585343 -0.06851142 45.32466954 -0.07278346 49.17349625 -0.07808304 C61.91389338 -0.09562335 74.6542443 -0.10492392 87.39465056 -0.10342209 C88.08048308 -0.10334218 88.76631559 -0.10326227 89.47293091 -0.10317993 C90.15960642 -0.10309817 90.84628193 -0.10301641 91.55376579 -0.10293217 C102.68191826 -0.10211928 113.80993538 -0.12126127 124.93804871 -0.14945666 C136.38087291 -0.17821937 147.82360374 -0.19162929 159.26647007 -0.19026911 C165.68417686 -0.18975963 172.10173035 -0.19543594 178.51940536 -0.21662521 C184.55562429 -0.23601178 190.5915437 -0.2361289 196.62777328 -0.22159195 C198.83923786 -0.21950342 201.0507212 -0.2242073 203.26215363 -0.23631287 C206.28888832 -0.25180454 209.3145952 -0.24243091 212.34130859 -0.22705078 C213.20942323 -0.23733791 214.07753786 -0.24762503 214.97195899 -0.25822389 C223.6080436 -0.16172432 231.40310807 2.62123726 237.76638794 8.56430054 C244.7361392 16.31637082 246.59802575 24.16150877 246.58816528 34.35263062 C246.59488251 35.35342148 246.60159973 36.35421234 246.60852051 37.3853302 C246.6274809 40.68592324 246.63142378 43.98631271 246.63357544 47.28695679 C246.64000484 49.58852725 246.64673331 51.89009689 246.65374756 54.19166565 C246.66571552 59.01422012 246.66942888 63.83670297 246.66824341 68.65927124 C246.66804028 74.82616013 246.69533886 80.99258789 246.72978783 87.15936756 C246.75207112 91.91301058 246.7560805 96.66654288 246.75502396 101.42023277 C246.75737789 103.69312822 246.76618961 105.9660268 246.78168869 108.23887062 C246.8013764 111.42425058 246.79549905 114.60863952 246.78347778 117.79403687 C246.7947168 118.72472992 246.80595581 119.65542297 246.8175354 120.61431885 C246.72623247 130.17860172 242.88567558 138.34696398 236.29763794 145.26742554 C228.95264194 151.05528238 221.84611957 152.56659319 212.67720032 152.53485107 C211.7147055 152.53938219 210.75221069 152.5439133 209.76054937 152.54858172 C206.53873242 152.56123144 203.31708438 152.55960496 200.09524536 152.55795288 C197.78386721 152.56393776 195.47249107 152.57074321 193.16111755 152.57830811 C186.88419855 152.59597926 180.60733407 152.60066396 174.3303926 152.60193968 C169.08937673 152.60383917 163.84837355 152.61119728 158.60736257 152.61828387 C146.94757497 152.63363953 135.28781394 152.63962141 123.62801703 152.63827316 C122.928843 152.63819325 122.22966898 152.63811334 121.50930786 152.63803101 C120.80927658 152.63794924 120.1092453 152.63786748 119.38800094 152.63778324 C108.04565146 152.63697052 96.70343483 152.65610626 85.36112376 152.68430774 C73.70480089 152.71306045 62.04854885 152.72648075 50.3921898 152.72512019 C43.85208426 152.72461038 37.31212909 152.73030415 30.77205467 152.75147629 C24.62013774 152.77084809 18.46851478 152.77099006 12.31658745 152.75644302 C10.06116557 152.75435255 7.80572535 152.75906996 5.55033493 152.77116394 C2.46622094 152.78662812 -0.6168809 152.77729986 -3.70097351 152.76190186 C-4.58892902 152.77218898 -5.47688452 152.78247611 -6.39174777 152.79307497 C-15.77820336 152.6898432 -23.92528726 148.718964 -30.70236206 142.26742554 C-36.51077032 134.89634906 -38.00240682 127.76511619 -37.97702026 118.5652771 C-37.98468666 117.12502167 -37.98468666 117.12502167 -37.99250793 115.65567017 C-38.00637755 112.48973306 -38.00544872 109.32401437 -38.00314331 106.15805054 C-38.00703248 103.94855672 -38.01136761 101.73906364 -38.01612854 99.52957153 C-38.0235857 94.89952166 -38.02330368 90.26954803 -38.01803589 85.63949585 C-38.01225059 79.72387832 -38.02915219 73.80857484 -38.05238056 67.89300919 C-38.06715915 63.32891025 -38.06798383 58.76488615 -38.06487083 54.20076752 C-38.06538225 52.02081431 -38.07058615 49.84085671 -38.08068275 47.66092682 C-38.09310589 44.60279856 -38.08621953 41.54527171 -38.07467651 38.4871521 C-38.08232025 37.59745728 -38.08996399 36.70776245 -38.09783936 35.79110718 C-38.01294903 25.54649587 -35.25173265 17.44865315 -28.45236206 9.70492554 C-19.80365161 2.0390231 -11.35357011 -0.04029943 0 0 Z " fill="#9B76FE" transform="translate(265.7023620605469,307.7325744628906)"/>
<path d="M0 0 C10.28888354 6.30938147 18.18419146 16.478076 25.67578125 25.76171875 C29.08749003 29.98318738 32.65629449 33.99011954 36.36328125 37.94921875 C40.89344958 42.7882622 45.17742447 47.75555285 49.3125 52.94140625 C51.81351555 55.99979098 54.49319818 58.86288884 57.24609375 61.6953125 C58.36328125 63.44921875 58.36328125 63.44921875 58.38671875 65.29296875 C56.83195541 68.56865334 54.36299244 70.94197911 51.86328125 73.51171875 C48.0336359 77.54530972 44.33796064 81.59948223 40.86328125 85.94921875 C37.52025173 90.11589323 34.01204012 94.05331911 30.36328125 97.94921875 C25.81023245 102.81299695 21.50295504 107.80861881 17.3359375 113.01171875 C15.1628824 115.6968403 12.89145538 118.27325716 10.5546875 120.81640625 C6.28439205 126.66881116 6.60744699 133.53413934 7.36328125 140.44921875 C9.37784338 147.60775991 12.93240117 151.56829256 19.27734375 155.29296875 C19.96570313 155.67453125 20.6540625 156.05609375 21.36328125 156.44921875 C22.35328125 157.10921875 23.34328125 157.76921875 24.36328125 158.44921875 C13.50525113 158.54231155 2.64731753 158.61318183 -8.21103191 158.65646744 C-13.25419501 158.67725294 -18.29708304 158.70540353 -23.34008789 158.75097656 C-28.21603371 158.7947591 -33.09171663 158.81842364 -37.96784401 158.82872772 C-39.81879623 158.83606137 -41.66973571 158.85038059 -43.52057457 158.87213898 C-62.24793608 159.08333986 -77.35326777 155.60768052 -91.44921875 142.26171875 C-104.12734106 128.87113712 -108.45487276 114.16147676 -108.44799805 96.12084961 C-108.16036548 88.66993595 -106.92410473 84.17971062 -101.40234375 78.875 C-100.4896875 78.07449219 -99.57703125 77.27398437 -98.63671875 76.44921875 C-96.58989611 74.32498949 -94.61910904 72.13344897 -92.63671875 69.94921875 C-91.6058283 68.84471638 -90.57458256 67.74054552 -89.54296875 66.63671875 C-86.95413203 63.83214563 -84.52587127 60.92700305 -82.13671875 57.94921875 C-78.31677864 53.18813397 -74.24733056 48.7364885 -70.078125 44.28515625 C-66.96103321 40.93805006 -64.00090762 37.51907734 -61.13671875 33.94921875 C-57.26904031 29.13220106 -53.1644952 24.59927395 -48.94848633 20.08959961 C-46.17022433 17.11751576 -43.45852858 14.11369257 -40.82421875 11.01171875 C-30.11656474 -1.24402982 -15.91237863 -7.42230427 0 0 Z " fill="#5DC122" transform="translate(107.63671875,233.55078125)"/>
<path d="M0 0 C0.72574219 0.41378906 1.45148438 0.82757813 2.19921875 1.25390625 C3.36517578 1.89005859 3.36517578 1.89005859 4.5546875 2.5390625 C14.21861767 8.35037059 20.22824138 17.44432342 23.19921875 28.25390625 C24.57020406 40.46424418 22.218309 51.14758128 15.19921875 61.25390625 C8.02355213 69.50209243 -0.33154777 74.70194909 -11.296875 75.796875 C-23.7418581 76.55241379 -32.39920782 73.87604536 -42.44921875 66.2421875 C-49.66793814 59.75493303 -54.52924325 51.51234566 -55.26953125 41.734375 C-55.72376573 29.445869 -53.65701077 19.98066661 -45.80078125 10.25390625 C-34.36817242 -1.99004901 -15.61527786 -7.60880262 0 0 Z " fill="#FEB301" transform="translate(180.80078125,103.74609375)"/>
<path d="M0 0 C3.00990256 0.79950537 4.04784358 2.09295254 6 4.53125 C7.02642763 7.36256021 7.5780685 10.25302234 8.140625 13.20703125 C8.39848785 14.47210762 8.39848785 14.47210762 8.66156006 15.76274109 C9.02149707 17.54407942 9.37406211 19.32692116 9.71972656 21.11108398 C10.24676548 23.82708149 10.79709935 26.53752965 11.3515625 29.24804688 C11.69930357 30.98409777 12.04570179 32.7204183 12.390625 34.45703125 C12.55306702 35.26143143 12.71550903 36.0658316 12.88287354 36.89460754 C13.77239998 41.53006719 14.16187577 45.81131393 14 50.53125 C14.66 50.53125 15.32 50.53125 16 50.53125 C16.11730469 49.43296875 16.23460937 48.3346875 16.35546875 47.203125 C17.01174823 41.98507097 18.12785341 36.90151579 19.3125 31.78125 C19.51294922 30.84925781 19.71339844 29.91726563 19.91992188 28.95703125 C21.93884988 20.24376303 21.93884988 20.24376303 26 17.53125 C28 17 28 17 30 17.03125 C30.66 17.0209375 31.32 17.010625 32 17 C34.90764169 17.77234232 36.05112795 19.26096092 38 21.53125 C39.18847656 24.32446289 39.18847656 24.32446289 40.140625 27.50390625 C40.48867188 28.65052734 40.83671875 29.79714844 41.1953125 30.97851562 C41.54335938 32.17154297 41.89140625 33.36457031 42.25 34.59375 C42.61351562 35.79064453 42.97703125 36.98753906 43.3515625 38.22070312 C46 47.06708177 46 47.06708177 46 50.53125 C46.66 50.53125 47.32 50.53125 48 50.53125 C47.95875 49.45875 47.9175 48.38625 47.875 47.28125 C47.875 42.70128321 48.6231081 38.37366821 49.4296875 33.875 C50.04827309 30.24822422 50.53271864 26.61799493 51 22.96875 C51.33093777 20.48926242 51.66415876 18.01007818 52 15.53125 C52.14179688 14.45617187 52.28359375 13.38109375 52.4296875 12.2734375 C53.02880332 8.33188607 53.55019808 5.27515318 55.625 1.84375 C58.98913308 -0.01537618 62.2572037 -0.46293027 66 0.53125 C68.2578125 2.08984375 68.2578125 2.08984375 70 4.53125 C70.18741221 7.2426815 70.15999473 9.43171819 69.875 12.09375 C69.78303345 13.16882813 69.78303345 13.16882813 69.68920898 14.265625 C69.24193704 19.10898774 68.50433645 23.85806922 67.53515625 28.625 C66.86888987 32.24326412 66.43140684 35.87938048 66 39.53125 C65.46087068 44.05930384 64.86352189 48.55173021 64 53.03125 C63.16117098 57.38795888 62.58187383 61.75219357 62.0625 66.15625 C61.34829853 72.02613754 60.56181734 77.879952 59.625 83.71875 C59.52324463 84.42531738 59.42148926 85.13188477 59.31665039 85.85986328 C58.55209026 90.416488 57.359634 93.32432664 54 96.53125 C52 97.1953125 52 97.1953125 50 97.15625 C49.34 97.16914063 48.68 97.18203125 48 97.1953125 C44.87381207 96.15732041 43.85644169 94.21884514 42 91.53125 C40.85637219 88.8766244 40.02631899 86.15522769 39.203125 83.38671875 C38.9646283 82.61693192 38.72613159 81.84714508 38.48040771 81.05403137 C37.72643426 78.61201995 36.98803295 76.16562049 36.25 73.71875 C35.73930493 72.05502397 35.22759666 70.39160859 34.71484375 68.72851562 C33.46480817 64.66626178 32.22870941 60.60000267 31 56.53125 C30.7733667 57.39814453 30.5467334 58.26503906 30.31323242 59.15820312 C29.46111135 62.40942622 28.60521094 65.65960713 27.74682617 68.90917969 C27.37782069 70.30917779 27.01027553 71.70956171 26.64428711 73.11035156 C21.26507162 93.68786892 21.26507162 93.68786892 17 96.53125 C13.60486983 96.96467087 11.73802548 96.99515173 8.8125 95.15625 C4.41106135 88.78175264 3.37445414 80.1262822 1.9140625 72.625 C1.64067802 71.25204269 1.64067802 71.25204269 1.36177063 69.85134888 C0.77788931 66.9122717 0.20109303 63.97186281 -0.375 61.03125 C-0.77503455 59.0043403 -1.17534513 56.97748505 -1.57592773 54.95068359 C-2.36299677 50.9634682 -3.14685859 46.9756418 -3.92822266 42.98730469 C-4.71429948 38.97788683 -5.50933975 34.9704066 -6.31329346 30.96453857 C-6.90157168 28.02947401 -7.48158548 25.09277945 -8.0625 22.15625 C-8.26601074 21.15013672 -8.46952148 20.14402344 -8.67919922 19.10742188 C-11.15532549 6.40865392 -11.15532549 6.40865392 -8.5 2.09375 C-5.48763856 0.2110241 -3.4842503 0.05444141 0 0 Z " fill="#FDFCFF" transform="translate(406,335.46875)"/>
<path d="M0 0 C2.16348724 0.0062619 4.32133247 -0.04037268 6.48413086 -0.09130859 C15.34718751 -0.17271535 22.40824638 1.05674166 29.63061523 6.63134766 C35.14623124 12.37520554 38.71356366 18.81815855 39.06811523 26.88134766 C38.7370868 36.53413688 35.57959789 43.5200166 28.63061523 50.17041016 C26.55929963 51.68344148 25.09924505 52.0932635 22.63061523 52.63134766 C24.35492374 56.2794976 26.08595574 59.92441967 27.81811523 63.56884766 C28.30086914 64.59042969 28.78362305 65.61201172 29.28100586 66.66455078 C31.89554017 72.15682756 34.60169193 77.52462971 37.6862793 82.76928711 C39.11681958 85.59005513 39.26050394 87.55189177 38.63061523 90.63134766 C37.13061523 93.50634766 37.13061523 93.50634766 34.63061523 95.63134766 C31.81631411 96.34645696 29.398436 96.55035064 26.63061523 95.63134766 C23.22994188 91.87640073 20.96439526 87.72439367 18.73999023 83.21337891 C18.21577484 82.16569588 18.21577484 82.16569588 17.68096924 81.09684753 C16.94873368 79.63004831 16.21942775 78.16178328 15.49291992 76.69213867 C14.37716533 74.43687439 13.2507128 72.18719381 12.12280273 69.93798828 C11.41122888 68.50926858 10.70026937 67.08024271 9.98999023 65.65087891 C9.65255798 64.97692581 9.31512573 64.30297272 8.96746826 63.6085968 C6.63061523 58.86243345 6.63061523 58.86243345 6.63061523 56.63134766 C3.99061523 56.63134766 1.35061523 56.63134766 -1.36938477 56.63134766 C-1.3484375 57.63512451 -1.32749023 58.63890137 -1.3059082 59.6730957 C-1.23331782 63.40960332 -1.18751665 67.14604903 -1.1496582 70.88305664 C-1.12958584 72.49807224 -1.10232146 74.11301555 -1.06762695 75.7277832 C-1.01891262 78.05389267 -0.99637322 80.37903859 -0.97875977 82.70556641 C-0.95811462 83.42346848 -0.93746948 84.14137054 -0.91619873 84.88102722 C-0.91457857 88.5293353 -1.27607595 90.48623925 -3.26879883 93.58520508 C-5.36938477 95.63134766 -5.36938477 95.63134766 -7.36938477 96.29541016 C-8.35938477 96.27607422 -8.35938477 96.27607422 -9.36938477 96.25634766 C-10.02938477 96.26923828 -10.68938477 96.28212891 -11.36938477 96.29541016 C-14.56295725 95.23504429 -15.57533738 93.43753916 -17.36938477 90.63134766 C-17.75671009 87.70372998 -17.91731129 85.15585106 -17.88696289 82.23266602 C-17.89397217 81.39955399 -17.90098145 80.56644196 -17.90820312 79.70808411 C-17.92576765 76.96211133 -17.91416719 74.21717413 -17.90063477 71.47119141 C-17.90332987 69.55977684 -17.90721245 67.64836361 -17.91223145 65.73695374 C-17.91812418 61.73474042 -17.90956981 57.7328846 -17.89086914 53.73071289 C-17.86806429 48.60013136 -17.8812138 43.47038611 -17.905159 38.33983517 C-17.91960987 34.39443148 -17.91501452 30.44922625 -17.90464783 26.5038166 C-17.90197937 24.61197371 -17.90525446 22.7201128 -17.91456604 20.82829094 C-17.92472169 18.18525285 -17.90924576 15.54357172 -17.88696289 12.90063477 C-17.89505981 12.11870758 -17.90315674 11.3367804 -17.91149902 10.53115845 C-17.85672695 7.02567257 -17.64613465 5.00651134 -15.5381012 2.14884949 C-11.11712362 -0.94461238 -5.22363538 -0.03159103 0 0 Z " fill="#FDFDFF" transform="translate(281.369384765625,335.36865234375)"/>
<path d="M0 0 C0.66 -0.0103125 1.32 -0.020625 2 -0.03125 C4.99110304 0.76326175 6.03032684 2.10017103 8 4.5 C9.20937794 7.27331589 10.0186255 10.13444859 10.83984375 13.04296875 C11.08867813 13.88483231 11.33751251 14.72669586 11.59388733 15.59407043 C12.38725589 18.28849072 13.16264578 20.98770411 13.9375 23.6875 C14.45389101 25.45282165 14.97145863 27.21779956 15.49023438 28.98242188 C16.76301298 33.32121315 18.02240429 37.66375688 19.27813721 42.00750732 C21.71678732 50.42782986 24.15990573 58.84842273 26.765625 67.21875 C27.01570313 68.02570313 27.26578125 68.83265625 27.5234375 69.6640625 C28.01805612 71.25428797 28.51827994 72.84277841 29.0234375 74.4296875 C33.18680523 87.97158886 33.18680523 87.97158886 30.5625 93.5625 C27.48673932 95.88807515 25.6810141 96.25574554 21.890625 95.9609375 C20 95.5 20 95.5 17.75 93.75 C15.0446083 88.72570113 12 82.30246522 12 76.5 C4.08 76.5 -3.84 76.5 -12 76.5 C-12.4125 78.35625 -12.825 80.2125 -13.25 82.125 C-14.58167881 87.49610453 -16.03414111 91.53414111 -20 95.5 C-27.07908283 96.19630323 -27.07908283 96.19630323 -30.5625 93.5625 C-33.50471885 87.29429463 -30.75799111 79.84702457 -28.83862305 73.47338867 C-28.62057007 72.72747467 -28.40251709 71.98156067 -28.17785645 71.21304321 C-27.4637727 68.77892112 -26.7384116 66.34835374 -26.01171875 63.91796875 C-25.50676339 62.21414468 -25.0021145 60.51022976 -24.49775696 58.80622864 C-23.44304934 55.25014625 -22.38229069 51.6959359 -21.31762695 48.14282227 C-19.95520539 43.59298313 -18.61176065 39.03778212 -17.27319622 34.48087597 C-16.23805025 30.96690419 -15.19110649 27.45653077 -14.14075661 23.9470768 C-13.64032452 22.26858438 -13.14398552 20.5888659 -12.65186119 18.90791893 C-11.96332493 16.56129563 -11.25858263 14.22014058 -10.54956055 11.87963867 C-10.35044571 11.18815231 -10.15133087 10.49666595 -9.94618225 9.78422546 C-8.3216706 4.51894962 -6.05895037 -0.0946711 0 0 Z " fill="#FCFCFF" transform="translate(364,335.5)"/>
<path d="M0 0 C1.79143681 -0.01390715 3.58286486 -0.02898414 5.37428284 -0.0451355 C10.21497953 -0.08427283 15.0555519 -0.10379271 19.89638186 -0.11716747 C22.9240855 -0.12599012 25.95175585 -0.1383095 28.9794426 -0.15167999 C38.46319392 -0.19262598 47.94686832 -0.22167154 57.43070185 -0.23328567 C68.36076733 -0.24674758 79.28971099 -0.29951378 90.21943533 -0.38628745 C98.68425876 -0.45115149 107.14876641 -0.48139867 115.61383569 -0.48540902 C120.66360723 -0.48854984 125.71232044 -0.50619903 130.76182938 -0.55986786 C135.50827499 -0.60934435 140.25286751 -0.61576586 144.99947929 -0.58945084 C146.7377399 -0.58714196 148.47610077 -0.60014061 150.21410942 -0.62982559 C163.33839039 -0.84079591 163.33839039 -0.84079591 168.0499382 2.52349091 C173.19287109 8.18201788 173.19287109 8.18201788 173.19287109 10.48339844 C172.27441721 10.48578679 171.35596333 10.48817514 170.40967751 10.49063587 C148.04095545 10.54982355 125.67234079 10.62539784 103.30373573 10.71911335 C92.48635458 10.76404048 81.66900612 10.80346229 70.8515625 10.82983398 C61.42087564 10.85283899 51.99029252 10.88626505 42.55968797 10.9321 C37.56825569 10.95599839 32.57692593 10.97474936 27.58543777 10.98101234 C22.88224128 10.98707848 18.17930699 11.00713352 13.47620773 11.03767395 C11.75499037 11.0464297 10.03373871 11.05018189 8.3125 11.0484066 C-3.25548268 11.04024632 -13.19372182 11.44919813 -22.80712891 18.48339844 C-23.79712891 18.81339844 -24.78712891 19.14339844 -25.80712891 19.48339844 C-26.90603322 21.27842995 -26.90603322 21.27842995 -27.80712891 23.48339844 C-28.22091797 24.27617187 -28.63470703 25.06894531 -29.06103516 25.88574219 C-29.49287109 26.72234375 -29.92470703 27.55894531 -30.36962891 28.42089844 C-30.80404297 29.25492187 -31.23845703 30.08894531 -31.68603516 30.94824219 C-33.61152773 35.30240484 -33.93780898 39.46786569 -34.01245117 44.19165039 C-34.03239639 45.31243484 -34.05234161 46.4332193 -34.07289124 47.58796692 C-34.08960373 48.78709213 -34.10631622 49.98621735 -34.12353516 51.22167969 C-34.14431625 52.45758347 -34.16509735 53.69348724 -34.18650818 54.96684265 C-34.24072821 58.23991969 -34.29100469 61.51302584 -34.33935547 64.78619385 C-34.38974461 68.13128103 -34.44541707 71.47627568 -34.50048828 74.82128906 C-34.60748833 81.37525615 -34.70928782 87.92928857 -34.80712891 94.48339844 C-38.10712891 94.48339844 -41.40712891 94.48339844 -44.80712891 94.48339844 C-44.87688787 85.9031511 -44.93007079 77.32302386 -44.96256542 68.74256229 C-44.97816758 64.75755297 -44.99930507 60.77273883 -45.03344727 56.7878418 C-45.06623673 52.93637126 -45.08402283 49.08508752 -45.09176064 45.23348808 C-45.09726923 43.76999411 -45.10802552 42.30650942 -45.12431908 40.84309578 C-45.2550836 28.60261976 -43.8066608 19.11548786 -35.80712891 9.48339844 C-25.8145969 -0.38019767 -13.15361646 0.02390372 0 0 Z " fill="#216031" transform="translate(262.80712890625,297.5166015625)"/>
<path d="M0 0 C2.701875 -0.0825 5.40375 -0.165 8.1875 -0.25 C9.02949951 -0.28641602 9.87149902 -0.32283203 10.73901367 -0.36035156 C14.67834344 -0.41841372 16.55879581 -0.282719 19.96875 1.90234375 C23.07707013 5.11228203 23.87789278 6.90103504 24.375 11.375 C23.93060645 15.67080432 22.70408706 17.67783589 20 21 C16.95318939 23.03120707 16.39881676 23.24659875 12.98828125 23.1953125 C12.30548096 23.19031738 11.62268066 23.18532227 10.91918945 23.18017578 C10.05898193 23.16196777 9.19877441 23.14375977 8.3125 23.125 C4.1978125 23.063125 4.1978125 23.063125 0 23 C0 15.41 0 7.82 0 0 Z " fill="#9C77FF" transform="translate(280,352)"/>
<path d="M0 0 C0.66 0 1.32 0 2 0 C3.00906461 3.24725579 4.00565122 6.49821074 5 9.75 C5.28617187 10.67039062 5.57234375 11.59078125 5.8671875 12.5390625 C6.13789063 13.42851562 6.40859375 14.31796875 6.6875 15.234375 C6.93886719 16.05131836 7.19023437 16.86826172 7.44921875 17.70996094 C8 20 8 20 8 24 C3.38 24 -1.24 24 -6 24 C-5.36145015 18.47324097 -4.06306646 13.37632649 -2.4375 8.0625 C-2.20353516 7.28326172 -1.96957031 6.50402344 -1.72851562 5.70117188 C-1.15682579 3.79942813 -0.57904309 1.89951774 0 0 Z " fill="#A483FF" transform="translate(363,372)"/>
<path d="M0 0 C6.6 0 13.2 0 20 0 C20 3.3 20 6.6 20 10 C15.86810221 10.5578062 12.1138106 10.76256001 8 10 C4.65989242 7.44937239 2.26698232 4.52715779 0 1 C0 0.67 0 0.34 0 0 Z " fill="#C7CBCD" transform="translate(428,298)"/>
</svg>
