<?xml version="1.0" encoding="UTF-8"?>
<svg version="1.1" xmlns="http://www.w3.org/2000/svg" width="512" height="512">
<path d="M0 0 C1.46214033 -0.0046197 2.924276 -0.01097974 4.38640213 -0.01890898 C8.36821863 -0.03547893 12.34964758 -0.0274128 16.33146477 -0.0149641 C20.63966258 -0.00586491 24.94779657 -0.01990734 29.25598145 -0.03088379 C37.68148999 -0.04862191 46.10685559 -0.04485008 54.53236961 -0.03323323 C61.3831232 -0.02418059 68.23383687 -0.02298281 75.08459473 -0.02732849 C76.06155784 -0.02794142 77.03852095 -0.02855436 78.04508901 -0.02918586 C80.03009257 -0.03046483 82.01509612 -0.03176168 84.00009966 -0.03307623 C102.59082476 -0.04446824 121.18147081 -0.03138999 139.77218294 -0.00987476 C155.70590892 0.00799496 171.63951831 0.00489046 187.57324219 -0.0135498 C206.09980054 -0.03498091 224.62628971 -0.04336973 243.15285873 -0.03110075 C245.13034819 -0.02982662 247.10783767 -0.02856914 249.08532715 -0.02732849 C250.05815809 -0.02671139 251.03098902 -0.02609429 252.03329968 -0.02545848 C258.87170406 -0.0220123 265.71006436 -0.02781812 272.54846191 -0.0372467 C280.88810405 -0.04849298 289.22759568 -0.04537153 297.56722069 -0.02412373 C301.81801506 -0.01364859 306.06855897 -0.00943072 310.3193512 -0.02272034 C314.21791148 -0.03472394 318.11599143 -0.02795213 322.01450872 -0.00681013 C323.41743294 -0.00237752 324.82039855 -0.00453422 326.22329569 -0.01431328 C343.22616016 -0.12365229 357.46890407 4.92815153 369.89746094 16.69543457 C384.38952849 32.00189785 386.69433498 48.07545945 386.5390625 68.16931152 C386.53793231 70.23031594 386.53857123 72.29132196 386.54083252 74.35232544 C386.54197389 79.91143912 386.5185583 85.4702032 386.49053669 91.02923608 C386.46542647 96.85212925 386.46317347 102.67503162 386.45843506 108.49797058 C386.44603347 119.50843865 386.41325009 130.51874667 386.3730371 141.52914447 C386.32823153 154.07090175 386.30631028 166.61266692 386.28625536 179.15448439 C386.2445149 204.9390563 386.17421783 230.72348644 386.08496094 256.50793457 C387.24431152 256.4869873 388.40366211 256.46604004 389.59814453 256.44445801 C393.94046451 256.37151227 398.28273143 256.3259383 402.62548828 256.28820801 C404.49732603 256.26821594 406.36910232 256.24101289 408.24072266 256.20617676 C431.88797111 255.77737332 431.88797111 255.77737332 441.55371094 264.80480957 C448.5234622 272.55687985 450.38534875 280.4020178 450.37548828 290.59313965 C450.38556412 292.09432594 450.38556412 292.09432594 450.39584351 293.62583923 C450.4148039 296.92643227 450.41874678 300.22682174 450.42089844 303.52746582 C450.42732784 305.82903628 450.43405631 308.13060593 450.44107056 310.43217468 C450.45303852 315.25472915 450.45675188 320.07721201 450.45556641 324.89978027 C450.45536328 331.06666917 450.48266186 337.23309692 450.51711082 343.39987659 C450.53939412 348.15351961 450.54340349 352.90705192 450.54234695 357.66074181 C450.54470088 359.93363725 450.5535126 362.20653584 450.56901169 364.47937965 C450.5886994 367.66475961 450.58282205 370.84914855 450.57080078 374.0345459 C450.58203979 374.96523895 450.59327881 375.89593201 450.6048584 376.85482788 C450.51355547 386.41911075 446.67299857 394.58747302 440.08496094 401.50793457 C432.73996494 407.29579142 425.63344257 408.80710223 416.46452332 408.77536011 C415.5020285 408.77989122 414.53953369 408.78442233 413.54787236 408.78909075 C410.32605541 408.80174048 407.10440738 408.800114 403.88256836 408.79846191 C401.57119021 408.80444679 399.25981407 408.81125225 396.94844055 408.81881714 C390.67152155 408.8364883 384.39465707 408.84117299 378.1177156 408.84244871 C372.87669973 408.8443482 367.63569655 408.85170631 362.39468557 408.8587929 C350.73489797 408.87414856 339.07513693 408.88013044 327.41534003 408.8787822 C326.716166 408.87870229 326.01699198 408.87862237 325.29663086 408.87854004 C324.59659958 408.87845828 323.89656829 408.87837652 323.17532394 408.87829228 C311.83297446 408.87747955 300.49075783 408.8966153 289.14844676 408.92481677 C277.49212389 408.95356948 265.83587185 408.96698978 254.1795128 408.96562922 C247.63940726 408.96511941 241.09945208 408.97081318 234.55937767 408.99198532 C228.40746074 409.01135712 222.25583778 409.01149909 216.10391045 408.99695206 C213.84848857 408.99486158 211.59304835 408.99957899 209.33765793 409.01167297 C206.25354393 409.02713715 203.1704421 409.01780889 200.08634949 409.00241089 C199.19839398 409.01269801 198.31043847 409.02298514 197.39557523 409.033584 C188.00911964 408.93035224 179.86203574 404.95947303 173.08496094 398.50793457 C167.12610702 390.94593722 165.78519411 383.72265031 165.88964844 374.29699707 C165.89247833 373.32886078 165.89530823 372.36072449 165.89822388 371.36325073 C165.90937398 368.28635029 165.93446914 365.20974629 165.95996094 362.13293457 C165.96999742 360.04049087 165.9791221 357.94804259 165.98730469 355.85559082 C166.00929641 350.73959206 166.04379068 345.62381349 166.08496094 340.50793457 C165.1641187 340.51162174 164.24327646 340.51530891 163.29452991 340.51910782 C140.8497594 340.60758893 118.40501911 340.6737074 95.96011066 340.71518326 C85.10574884 340.73577571 74.25150371 340.76383275 63.3972168 340.80969238 C53.93250245 340.84966185 44.46787266 340.87539147 35.00307626 340.88428855 C29.99524888 340.8894862 24.98766331 340.90163305 19.97991371 340.9308548 C15.25786057 340.95818386 10.53614679 340.96634451 5.81402206 340.9603653 C4.08918979 340.96145776 2.36434511 340.9693068 0.63958168 340.98475647 C-17.37938664 341.13812455 -32.29485903 337.0384154 -45.72753906 324.32043457 C-61.16891245 308.0113183 -62.51358267 290.97074723 -62.43261719 269.65637207 C-62.43804451 267.25192848 -62.44517058 264.84748822 -62.45385742 262.4430542 C-62.47013941 256.61637094 -62.46784501 250.78991974 -62.45620686 244.96322966 C-62.44713549 240.22345512 -62.44596444 235.48373826 -62.45030212 230.74395752 C-62.45091506 230.06673342 -62.45152799 229.38950932 -62.45215949 228.69176328 C-62.45343853 227.31555571 -62.45473538 225.93934816 -62.45604986 224.56314063 C-62.46742812 211.68939517 -62.45438538 198.81576405 -62.43284839 185.94203734 C-62.41497989 174.92032609 -62.41808477 163.89878341 -62.43652344 152.8770752 C-62.45797903 140.04618116 -62.46632974 127.21538709 -62.45407438 114.38447762 C-62.45280032 113.0136223 -62.45154284 111.64276697 -62.45030212 110.27191162 C-62.44968502 109.59760459 -62.44906792 108.92329756 -62.44843212 108.22855699 C-62.44499324 103.50010468 -62.45077581 98.77171632 -62.46022034 94.04327393 C-62.47181921 87.66715756 -62.46367909 81.29135791 -62.44064331 74.91527557 C-62.43537781 72.58252232 -62.43683274 70.24974218 -62.44569397 67.91699982 C-62.5148549 47.85236503 -60.14122863 31.91911534 -45.72753906 16.69543457 C-32.55860741 4.22716914 -17.85017889 -0.12442674 0 0 Z " fill="#D4D9DC" transform="translate(61.9150390625,51.4920654296875)"/>
<path d="M0 0 C8.83584226 5.11046012 14.81122622 12.73812048 21.10546875 20.59765625 C23.86058126 23.92218788 26.74481579 27.09207529 29.6875 30.25 C30.20675049 30.80727783 30.72600098 31.36455566 31.26098633 31.9387207 C32.25763934 33.00798496 33.25430228 34.07723995 34.25097656 35.14648438 C38.05312013 39.25155376 41.67129896 43.51631885 45.30078125 47.7734375 C46.32533092 48.97412041 47.35007646 50.17463621 48.375 51.375 C48.89231689 51.98118164 49.40963379 52.58736328 49.94262695 53.21191406 C53.14752229 56.9532082 56.41459278 60.62365383 59.75 64.25 C62.93986844 67.72386309 65.98298894 71.26160025 68.9375 74.9375 C72.80468863 79.7339071 76.91230716 84.2329146 81.12060547 88.72607422 C84.23789336 92.07331785 87.19816482 95.49245906 90.0625 99.0625 C94.40061256 104.46542201 99.06401501 109.50932342 103.78515625 114.57421875 C107.13131853 118.16410418 110.37318282 121.83273368 113.5625 125.5625 C114.01077148 126.08440918 114.45904297 126.60631836 114.92089844 127.14404297 C116.45051259 128.92661273 117.97585419 130.71275327 119.5 132.5 C119.99765869 133.08072266 120.49531738 133.66144531 121.00805664 134.25976562 C124.5625 138.447175 124.5625 138.447175 124.5625 139.5625 C123.64404612 139.56488835 122.72559223 139.56727671 121.77930641 139.56973743 C99.41058435 139.62892511 77.0419697 139.70449941 54.67336464 139.79821491 C43.85598348 139.84314204 33.03863503 139.88256385 22.22119141 139.90893555 C12.79050455 139.93194055 3.35992142 139.96536661 -6.07068312 140.01120156 C-11.06211541 140.03509996 -16.05344517 140.05385092 -21.04493332 140.06011391 C-25.74812982 140.06618004 -30.4510641 140.08623509 -35.15416336 140.11677551 C-36.87538072 140.12553126 -38.59663238 140.12928345 -40.31787109 140.12750816 C-51.88585378 140.11934788 -61.82409292 140.5282997 -71.4375 147.5625 C-72.4275 147.8925 -73.4175 148.2225 -74.4375 148.5625 C-75.53853426 150.35120757 -75.53853426 150.35120757 -76.4375 152.5625 C-77.05818359 153.78646484 -77.05818359 153.78646484 -77.69140625 155.03515625 C-78.12324219 155.88980469 -78.55507812 156.74445313 -79 157.625 C-79.43441406 158.48222656 -79.86882812 159.33945312 -80.31640625 160.22265625 C-82.15352662 164.0569249 -82.57890618 167.01796432 -82.64282227 171.22729492 C-82.66276749 172.38827194 -82.68271271 173.54924896 -82.70326233 174.7454071 C-82.71997482 175.99860245 -82.73668732 177.25179779 -82.75390625 178.54296875 C-82.7850779 180.46765739 -82.7850779 180.46765739 -82.81687927 182.43122864 C-82.87201906 185.83912815 -82.92146389 189.24708741 -82.96972656 192.65509033 C-83.02000079 196.13404648 -83.07565591 199.61291607 -83.13085938 203.09179688 C-83.23834189 209.91528951 -83.33980877 216.73886036 -83.4375 223.5625 C-106.81241057 223.65609618 -130.18729008 223.72655401 -153.56235027 223.76974869 C-164.4167121 223.79034114 -175.27095723 223.81839818 -186.12524414 223.86425781 C-195.58995848 223.90422728 -205.05458828 223.9299569 -214.51938468 223.93885398 C-219.52721205 223.94405163 -224.53479763 223.95619848 -229.54254723 223.98542023 C-234.26460037 224.01274929 -238.98631415 224.02090994 -243.70843887 224.01493073 C-245.43327115 224.01602319 -247.15811583 224.02387223 -248.88287926 224.0393219 C-266.90184758 224.19268998 -281.81731996 220.09298082 -295.25 207.375 C-307.92812231 193.98441837 -312.25565401 179.27475801 -312.2487793 161.23413086 C-311.96114673 153.7832172 -310.72488598 149.29299187 -305.203125 143.98828125 C-304.29046875 143.18777344 -303.3778125 142.38726562 -302.4375 141.5625 C-300.39067736 139.43827074 -298.41989029 137.24673022 -296.4375 135.0625 C-295.40660955 133.95799763 -294.37536381 132.85382677 -293.34375 131.75 C-290.75491328 128.94542688 -288.32665252 126.0402843 -285.9375 123.0625 C-282.11755989 118.30141522 -278.04811181 113.84976975 -273.87890625 109.3984375 C-270.76181446 106.05133131 -267.80168887 102.63235859 -264.9375 99.0625 C-261.06982156 94.24548231 -256.96527645 89.7125552 -252.74926758 85.20288086 C-249.97100558 82.23079701 -247.25930983 79.22697382 -244.625 76.125 C-238.37629758 68.97287072 -231.84215964 63.29746094 -222.1015625 62.1796875 C-211.57684642 61.8372347 -204.34776353 63.76797405 -196.375 70.6875 C-189.78545068 76.98875653 -183.84611278 83.78534765 -178.125 90.875 C-174.71329122 95.09646863 -171.14448676 99.10340079 -167.4375 103.0625 C-162.90969399 107.89902006 -158.63626732 112.87192644 -154.484375 118.0390625 C-151.56772009 121.63478593 -148.5173214 125.10636601 -145.4375 128.5625 C-140.42537391 124.83553444 -136.81396085 120.4582367 -132.92578125 115.58984375 C-130.36365577 112.47265812 -127.68836855 109.5115 -124.9375 106.5625 C-121.48542779 102.85432168 -118.17225159 99.0774075 -115 95.125 C-111.15639943 90.34628372 -107.06789836 85.87092313 -102.87915039 81.39868164 C-99.76196055 78.05150673 -96.80176202 74.63244977 -93.9375 71.0625 C-90.11755989 66.30141522 -86.04811181 61.84976975 -81.87890625 57.3984375 C-78.76181446 54.05133131 -75.80168887 50.63235859 -72.9375 47.0625 C-69.1169151 42.30061158 -65.04682197 37.84814406 -60.87670898 33.39624023 C-57.77969916 30.070952 -54.84128316 26.67530061 -52 23.125 C-38.54190696 6.55745586 -23.22561848 -10.56247872 0 0 Z " fill="#256F3A" transform="translate(311.4375,168.4375)"/>
<path d="M0 0 C0.94887274 -0.00538554 1.89774548 -0.01077108 2.87537193 -0.01631981 C6.02723873 -0.03052779 9.17868129 -0.02351341 12.33056641 -0.01637268 C14.60150487 -0.02207992 16.87244048 -0.02904555 19.14337158 -0.03717041 C25.29205664 -0.05507606 31.44059879 -0.05393846 37.58930206 -0.04822803 C42.72853048 -0.04513294 47.86773158 -0.05123208 53.0069561 -0.05726677 C65.82490821 -0.07210291 78.64276021 -0.06850564 91.46070838 -0.05640347 C102.57580651 -0.04646936 113.69073822 -0.0594186 124.80581069 -0.08333766 C136.23966627 -0.107756 147.67341505 -0.11693078 159.10730171 -0.11068493 C165.51826237 -0.10731714 171.92908549 -0.10971906 178.34002686 -0.12693596 C184.36807827 -0.14241905 190.39581208 -0.13843401 196.42385101 -0.11963081 C198.6320871 -0.11594901 200.84034679 -0.11904142 203.0485611 -0.1295166 C206.07082376 -0.14275562 209.09203942 -0.13115279 212.11425781 -0.11352539 C212.98100821 -0.1231304 213.8477586 -0.1327354 214.74077415 -0.14263147 C223.3715945 -0.03956993 231.16646823 2.74510546 237.52587891 8.68455505 C244.49563017 16.43662533 246.35751672 24.28176328 246.34765625 34.47288513 C246.35437347 35.47367599 246.3610907 36.47446686 246.36801147 37.50558472 C246.38697186 40.80617776 246.39091475 44.10656723 246.39306641 47.4072113 C246.39949581 49.70878177 246.40622428 52.01035141 246.41323853 54.31192017 C246.42520649 59.13447463 246.42891985 63.95695749 246.42773438 68.77952576 C246.42753125 74.94641465 246.45482983 81.1128424 246.48927879 87.27962208 C246.51156208 92.03326509 246.51557146 96.7867974 246.51451492 101.54048729 C246.51686885 103.81338273 246.52568057 106.08628132 246.54117966 108.35912514 C246.56086737 111.5445051 246.55499002 114.72889403 246.54296875 117.91429138 C246.55420776 118.84498444 246.56544678 119.77567749 246.57702637 120.73457336 C246.48572344 130.29885624 242.64516654 138.4672185 236.05712891 145.38768005 C228.71213291 151.1755369 221.60561054 152.68684771 212.43669128 152.65510559 C211.47419647 152.6596367 210.51170166 152.66416782 209.52004033 152.66883624 C206.29822338 152.68148596 203.07657535 152.67985948 199.85473633 152.6782074 C197.54335818 152.68419228 195.23198204 152.69099773 192.92060852 152.69856262 C186.64368952 152.71623378 180.36682504 152.72091848 174.08988357 152.72219419 C168.8488677 152.72409369 163.60786452 152.7314518 158.36685354 152.73853838 C146.70706593 152.75389405 135.0473049 152.75987593 123.387508 152.75852768 C122.68833397 152.75844777 121.98915995 152.75836786 121.26879883 152.75828552 C120.56876754 152.75820376 119.86873626 152.758122 119.14749191 152.75803776 C107.80514243 152.75722504 96.46292579 152.77636078 85.12061473 152.80456226 C73.46429185 152.83331496 61.80803982 152.84673526 50.15168077 152.8453747 C43.61157523 152.8448649 37.07162005 152.85055866 30.53154564 152.8717308 C24.37962871 152.89110261 18.22800575 152.89124458 12.07607841 152.87669754 C9.82065654 152.87460707 7.56521632 152.87932448 5.3098259 152.89141846 C2.2257119 152.90688263 -0.85738993 152.89755438 -3.94148254 152.88215637 C-4.82943805 152.8924435 -5.71739356 152.90273062 -6.63225681 152.91332948 C-16.01871239 152.81009772 -24.16579629 148.83921851 -30.94287109 142.38768005 C-36.78775756 134.97031144 -38.24253395 127.78660043 -38.24926758 118.53367615 C-38.25759109 117.5572113 -38.26591461 116.58074646 -38.27449036 115.57469177 C-38.29854096 112.35345948 -38.30735784 109.13243006 -38.31396484 105.91111755 C-38.32293704 103.66157472 -38.33205899 101.41203249 -38.34132385 99.16249084 C-38.3578045 94.44668633 -38.36551193 89.73095271 -38.3684082 85.01512146 C-38.3737817 78.99640262 -38.41142382 72.97835819 -38.45715237 66.95982933 C-38.48702071 62.31157552 -38.49413394 57.66348193 -38.49513435 53.01514053 C-38.49931955 50.79774014 -38.51168481 48.58033851 -38.5326519 46.36303329 C-38.65737108 32.02934162 -38.63592222 20.79821809 -28.94287109 9.38768005 C-26.93505859 7.69236755 -26.93505859 7.69236755 -24.81787109 6.26268005 C-24.13466797 5.78572693 -23.45146484 5.3087738 -22.74755859 4.81736755 C-15.4143168 1.07925265 -8.14596929 -0.05648413 0 0 Z " fill="#FE8CB2" transform="translate(265.94287109375,307.61231994628906)"/>
<path d="M0 0 C10.28888354 6.30938147 18.18419146 16.478076 25.67578125 25.76171875 C29.08749003 29.98318738 32.65629449 33.99011954 36.36328125 37.94921875 C40.89344958 42.7882622 45.17742447 47.75555285 49.3125 52.94140625 C51.81351555 55.99979098 54.49319818 58.86288884 57.24609375 61.6953125 C58.36328125 63.44921875 58.36328125 63.44921875 58.38671875 65.29296875 C56.83195541 68.56865334 54.36299244 70.94197911 51.86328125 73.51171875 C48.0336359 77.54530972 44.33796064 81.59948223 40.86328125 85.94921875 C37.52025173 90.11589323 34.01204012 94.05331911 30.36328125 97.94921875 C25.81023245 102.81299695 21.50295504 107.80861881 17.3359375 113.01171875 C15.1628824 115.6968403 12.89145538 118.27325716 10.5546875 120.81640625 C6.28439205 126.66881116 6.60744699 133.53413934 7.36328125 140.44921875 C9.37784338 147.60775991 12.93240117 151.56829256 19.27734375 155.29296875 C19.96570313 155.67453125 20.6540625 156.05609375 21.36328125 156.44921875 C22.35328125 157.10921875 23.34328125 157.76921875 24.36328125 158.44921875 C13.50525113 158.54231155 2.64731753 158.61318183 -8.21103191 158.65646744 C-13.25419501 158.67725294 -18.29708304 158.70540353 -23.34008789 158.75097656 C-28.21603371 158.7947591 -33.09171663 158.81842364 -37.96784401 158.82872772 C-39.81879623 158.83606137 -41.66973571 158.85038059 -43.52057457 158.87213898 C-62.24793608 159.08333986 -77.35326777 155.60768052 -91.44921875 142.26171875 C-104.12734106 128.87113712 -108.45487276 114.16147676 -108.44799805 96.12084961 C-108.16036548 88.66993595 -106.92410473 84.17971062 -101.40234375 78.875 C-100.4896875 78.07449219 -99.57703125 77.27398437 -98.63671875 76.44921875 C-96.58989611 74.32498949 -94.61910904 72.13344897 -92.63671875 69.94921875 C-91.6058283 68.84471638 -90.57458256 67.74054552 -89.54296875 66.63671875 C-86.95413203 63.83214563 -84.52587127 60.92700305 -82.13671875 57.94921875 C-78.31677864 53.18813397 -74.24733056 48.7364885 -70.078125 44.28515625 C-66.96103321 40.93805006 -64.00090762 37.51907734 -61.13671875 33.94921875 C-57.26904031 29.13220106 -53.1644952 24.59927395 -48.94848633 20.08959961 C-46.17022433 17.11751576 -43.45852858 14.11369257 -40.82421875 11.01171875 C-30.11656474 -1.24402982 -15.91237863 -7.42230427 0 0 Z " fill="#5DC122" transform="translate(107.63671875,233.55078125)"/>
<path d="M0 0 C0.72574219 0.41378906 1.45148438 0.82757813 2.19921875 1.25390625 C3.36517578 1.89005859 3.36517578 1.89005859 4.5546875 2.5390625 C14.21861767 8.35037059 20.22824138 17.44432342 23.19921875 28.25390625 C24.57020406 40.46424418 22.218309 51.14758128 15.19921875 61.25390625 C8.02355213 69.50209243 -0.33154777 74.70194909 -11.296875 75.796875 C-23.7418581 76.55241379 -32.39920782 73.87604536 -42.44921875 66.2421875 C-49.66793814 59.75493303 -54.52924325 51.51234566 -55.26953125 41.734375 C-55.72376573 29.445869 -53.65701077 19.98066661 -45.80078125 10.25390625 C-34.36817242 -1.99004901 -15.61527786 -7.60880262 0 0 Z " fill="#FEB301" transform="translate(180.80078125,103.74609375)"/>
<path d="M0 0 C9.37019549 -0.55916176 19.14218291 2.47086213 26.30859375 8.5546875 C26.87835938 9.09222656 27.448125 9.62976563 28.03515625 10.18359375 C28.64617187 10.73144531 29.2571875 11.27929688 29.88671875 11.84375 C32.22853233 14.19091019 33.85041638 15.96250825 34.35546875 19.30078125 C34.13763571 22.79892356 33.42331269 24.80685367 30.91015625 27.24609375 C27.11375574 28.48405044 24.86511662 28.29776404 21.03515625 27.18359375 C19.69619993 25.52144107 18.36385483 23.85395768 17.03515625 22.18359375 C11.33848026 18.23232788 5.72917192 16.27035353 -1.22265625 16.64453125 C-6.96865595 17.77408675 -11.62131594 20.32333693 -15.34448242 24.86743164 C-19.67883111 31.38396974 -19.70080731 38.08333138 -19.56176758 45.66772461 C-19.52733449 47.74665269 -19.54118066 49.82134114 -19.56054688 51.90039062 C-19.55105843 59.35663007 -18.97635968 64.80690658 -14.96484375 71.18359375 C-14.63484375 72.17359375 -14.30484375 73.16359375 -13.96484375 74.18359375 C-12.21616892 75.26790469 -12.21616892 75.26790469 -9.96484375 76.18359375 C-9.09859375 76.71984375 -8.23234375 77.25609375 -7.33984375 77.80859375 C-1.42804191 80.21710561 4.43138692 79.99486015 10.41015625 77.80859375 C11.60640625 77.27234375 12.80265625 76.73609375 14.03515625 76.18359375 C14.81890625 75.87421875 15.60265625 75.56484375 16.41015625 75.24609375 C18.55896427 73.84110389 19.08708404 72.55377428 20.03515625 70.18359375 C20.70182292 68.51692708 21.36848958 66.85026042 22.03515625 65.18359375 C20.26398438 65.12751953 20.26398438 65.12751953 18.45703125 65.0703125 C16.89970837 65.00464226 15.34241811 64.93819528 13.78515625 64.87109375 C13.00785156 64.84853516 12.23054688 64.82597656 11.4296875 64.80273438 C8.0289243 64.64286944 5.60017353 64.47989415 2.5546875 62.8828125 C0.8339507 60.95859526 0.32400103 59.85213202 -0.02734375 57.30859375 C-0.14207031 56.65117187 -0.25679688 55.99375 -0.375 55.31640625 C0.29567589 51.82889162 2.36415878 50.40495037 5.03515625 48.18359375 C8.18554688 47.56835938 8.18554688 47.56835938 11.69140625 47.58984375 C12.96113281 47.59242188 14.23085938 47.595 15.5390625 47.59765625 C17.51712891 47.64019531 17.51712891 47.64019531 19.53515625 47.68359375 C20.85386719 47.68101562 22.17257812 47.6784375 23.53125 47.67578125 C34.46589783 47.7867929 34.46589783 47.7867929 39.03515625 51.18359375 C41.90004864 56.91337853 40.1979842 64.53283402 38.41015625 70.37109375 C34.96492431 79.69490326 28.47759937 87.98177714 19.44140625 92.47265625 C9.09024932 96.70445276 -1.15247984 97.69803241 -11.96484375 94.18359375 C-22.55575207 89.21364727 -29.76561835 82.14561661 -33.96484375 71.18359375 C-36.39678638 63.76913453 -36.26202524 56.56208451 -36.21484375 48.80859375 C-36.22644531 46.91367187 -36.22644531 46.91367187 -36.23828125 44.98046875 C-36.20959705 31.18336692 -34.27423398 20.92906454 -24.83984375 10.43359375 C-17.80958635 3.84077459 -9.38007718 0.87646844 0 0 Z " fill="#FFFDFD" transform="translate(435.96484375,335.81640625)"/>
<path d="M0 0 C6.39255704 3.97947259 11.53774047 8.74647842 13.76953125 16.1015625 C14.39879144 20.00731541 14.05389563 23.26624213 12.76953125 27.0390625 C10.20831778 29.68031389 8.36537719 29.91247938 4.8046875 30.3515625 C1.99045032 30.00585966 0.77857143 29.08500981 -1.23046875 27.1015625 C-2.18967785 24.55056244 -2.73109716 22.03624706 -3.32421875 19.37890625 C-4.0349725 16.99973205 -4.0349725 16.99973205 -6.015625 15.8125 C-11.04404114 14.1984405 -16.37702307 14.32929347 -21.23046875 16.3515625 C-23.38046899 18.23281271 -24.17979739 19.47015136 -25.23046875 22.1015625 C-25.40691615 24.33388755 -25.40691615 24.33388755 -25.10546875 26.6015625 C-25.04101562 27.354375 -24.9765625 28.1071875 -24.91015625 28.8828125 C-23.94461336 32.03469964 -22.88671199 33.09922623 -20.23046875 35.1015625 C-17.04538618 36.41686279 -13.77195962 37.40108939 -10.48046875 38.4140625 C0.58712564 42.06710813 7.39374119 46.48841474 12.76953125 57.1015625 C15.05114536 63.94640484 14.80721045 71.82981713 11.83203125 78.4140625 C7.44675117 86.0417168 1.03996399 91.21512098 -7.23046875 94.1015625 C-10.05747945 94.51784085 -12.81368423 94.58023467 -15.66796875 94.5390625 C-16.42005615 94.52931396 -17.17214355 94.51956543 -17.94702148 94.50952148 C-26.46723566 94.23611093 -30.74217295 91.90228969 -36.60546875 85.7265625 C-40.52747455 81.01246533 -42.2016518 77.13530358 -42.66796875 71.0390625 C-42.23046875 67.1015625 -42.23046875 67.1015625 -40.23046875 64.0390625 C-36.69314579 61.75454142 -35.04679801 61.63477066 -31.0234375 62.47265625 C-29.23046875 63.1015625 -29.23046875 63.1015625 -27.41796875 64.6015625 C-25.94259327 67.70761615 -24.93263362 70.87544536 -23.9765625 74.17578125 C-23.40370576 76.2951366 -23.40370576 76.2951366 -21.23046875 77.1015625 C-16.32459924 77.51235995 -11.76341841 77.72725624 -7.16796875 75.8515625 C-3.90255688 72.90215823 -3.31821288 71.06674788 -2.91796875 66.6640625 C-3.2711647 62.63762867 -3.49611632 61.07718132 -6.23046875 58.1015625 C-11.0633204 55.56226756 -16.24552752 54.0746322 -21.48046875 52.6015625 C-29.30387065 50.29481842 -34.57582723 45.70739213 -39.23046875 39.1015625 C-42.47196441 32.86967295 -43.2541252 26.01368082 -42.23046875 19.1015625 C-39.4493115 10.63448377 -34.09104393 3.90463595 -26.23046875 -0.3359375 C-18.48470605 -3.41829933 -7.64384518 -3.5637971 0 0 Z " fill="#FFFDFD" transform="translate(306.23046875,337.8984375)"/>
<path d="M0 0 C1.79143681 -0.01390715 3.58286486 -0.02898414 5.37428284 -0.0451355 C10.21497953 -0.08427283 15.0555519 -0.10379271 19.89638186 -0.11716747 C22.9240855 -0.12599012 25.95175585 -0.1383095 28.9794426 -0.15167999 C38.46319392 -0.19262598 47.94686832 -0.22167154 57.43070185 -0.23328567 C68.36076733 -0.24674758 79.28971099 -0.29951378 90.21943533 -0.38628745 C98.68425876 -0.45115149 107.14876641 -0.48139867 115.61383569 -0.48540902 C120.66360723 -0.48854984 125.71232044 -0.50619903 130.76182938 -0.55986786 C135.50827499 -0.60934435 140.25286751 -0.61576586 144.99947929 -0.58945084 C146.7377399 -0.58714196 148.47610077 -0.60014061 150.21410942 -0.62982559 C163.33839039 -0.84079591 163.33839039 -0.84079591 168.0499382 2.52349091 C173.19287109 8.18201788 173.19287109 8.18201788 173.19287109 10.48339844 C172.27441721 10.48578679 171.35596333 10.48817514 170.40967751 10.49063587 C148.04095545 10.54982355 125.67234079 10.62539784 103.30373573 10.71911335 C92.48635458 10.76404048 81.66900612 10.80346229 70.8515625 10.82983398 C61.42087564 10.85283899 51.99029252 10.88626505 42.55968797 10.9321 C37.56825569 10.95599839 32.57692593 10.97474936 27.58543777 10.98101234 C22.88224128 10.98707848 18.17930699 11.00713352 13.47620773 11.03767395 C11.75499037 11.0464297 10.03373871 11.05018189 8.3125 11.0484066 C-3.25548268 11.04024632 -13.19372182 11.44919813 -22.80712891 18.48339844 C-23.79712891 18.81339844 -24.78712891 19.14339844 -25.80712891 19.48339844 C-26.90816317 21.27210601 -26.90816317 21.27210601 -27.80712891 23.48339844 C-28.22091797 24.299375 -28.63470703 25.11535156 -29.06103516 25.95605469 C-29.49287109 26.81070312 -29.92470703 27.66535156 -30.36962891 28.54589844 C-31.02125 29.83173828 -31.02125 29.83173828 -31.68603516 31.14355469 C-33.52315553 34.97782334 -33.94853509 37.93886276 -34.01245117 42.14819336 C-34.03239639 43.30917038 -34.05234161 44.4701474 -34.07289124 45.66630554 C-34.09795998 47.54609856 -34.09795998 47.54609856 -34.12353516 49.46386719 C-34.14431625 50.74699295 -34.16509735 52.03011871 -34.18650818 53.35212708 C-34.24164797 56.76002659 -34.29109279 60.16798585 -34.33935547 63.57598877 C-34.38962969 67.05494492 -34.44528482 70.53381451 -34.50048828 74.01269531 C-34.60797079 80.83618794 -34.70943767 87.6597588 -34.80712891 94.48339844 C-38.10712891 94.48339844 -41.40712891 94.48339844 -44.80712891 94.48339844 C-44.87688787 85.9031511 -44.93007079 77.32302386 -44.96256542 68.74256229 C-44.97816758 64.75755297 -44.99930507 60.77273883 -45.03344727 56.7878418 C-45.06623673 52.93637126 -45.08402283 49.08508752 -45.09176064 45.23348808 C-45.09726923 43.76999411 -45.10802552 42.30650942 -45.12431908 40.84309578 C-45.2550836 28.60261976 -43.8066608 19.11548786 -35.80712891 9.48339844 C-25.8145969 -0.38019767 -13.15361646 0.02390372 0 0 Z " fill="#216031" transform="translate(262.80712890625,297.5166015625)"/>
<path d="M0 0 C2.38869049 2.75325583 3.59190423 5.23967378 4.61328125 8.71875 C4.88889893 9.64147705 5.1645166 10.5642041 5.44848633 11.51489258 C5.73361084 12.49997803 6.01873535 13.48506348 6.3125 14.5 C6.92708191 16.57682334 7.54166527 18.65364625 8.15625 20.73046875 C8.46304687 21.7776709 8.76984375 22.82487305 9.0859375 23.90380859 C9.94481838 26.81308404 10.82594878 29.71426063 11.71875 32.61328125 C11.98776123 33.49113281 12.25677246 34.36898437 12.53393555 35.2734375 C13.03526957 36.90839323 13.53913986 38.5425745 14.04614258 40.17578125 C15.72965339 45.72453786 16.9510623 51.2984077 18 57 C18.66 57 19.32 57 20 57 C20.10666992 56.39776611 20.21333984 55.79553223 20.32324219 55.17504883 C21.51143123 48.82681203 23.2130015 42.81022807 25.25 36.6875 C27.16755096 30.84805061 29.03087085 25.0174522 30.6171875 19.078125 C30.99955566 17.65753784 30.99955566 17.65753784 31.38964844 16.20825195 C31.86801482 14.40580174 32.33295857 12.59971742 32.78222656 10.78979492 C34.16004127 5.63415028 35.5430617 2.30893904 40 -1 C42.8752802 -1.5529385 45.25142334 -0.95576856 48 0 C50.0625 1.5 50.0625 1.5 51 4 C50.67495058 13.11383787 47.62079438 21.67327983 44.9765625 30.328125 C44.4690201 32.00707359 43.96197885 33.68617374 43.45541382 35.36541748 C42.39623179 38.87016912 41.33151228 42.37317502 40.26269531 45.875 C38.89532543 50.3563511 37.54119245 54.84157234 36.19106483 59.32814407 C35.14773887 62.79038391 34.09782445 66.25059819 33.04587936 69.71022797 C32.5439928 71.36340402 32.04405503 73.01717304 31.54613113 74.67154694 C30.84938631 76.98265311 30.14389566 79.29091077 29.43603516 81.59863281 C29.23332504 82.27717316 29.03061493 82.9557135 28.82176208 83.65481567 C27.64607903 87.4498898 26.28903009 90.74089822 24 94 C22.09765625 94.8125 22.09765625 94.8125 20.0625 95 C19.39347656 95.0825 18.72445313 95.165 18.03515625 95.25 C15.26891765 94.91019334 14.0733535 93.83820405 12 92 C11.01681519 90.00779724 11.01681519 90.00779724 10.32763672 87.70092773 C9.92555496 86.39261742 9.92555496 86.39261742 9.51535034 85.05787659 C9.2395816 84.10936325 8.96381287 83.16084991 8.6796875 82.18359375 C8.37902374 81.19129257 8.07835999 80.19899139 7.76858521 79.17662048 C6.79001274 75.93427449 5.83194395 72.68628901 4.875 69.4375 C4.20932891 67.20950048 3.54265731 64.98179965 2.875 62.75439453 C1.53771354 58.28524117 0.20887388 53.81369513 -1.11425781 49.34033203 C-2.54346472 44.51782522 -4.00091706 39.70500096 -5.4826355 34.89839172 C-6.44468811 31.77646548 -7.39562678 28.65122864 -8.34417725 25.525177 C-8.77785298 24.10333005 -9.21581456 22.68278255 -9.65826416 21.26364136 C-10.26478065 19.31270038 -10.8516398 17.35568065 -11.4375 15.3984375 C-11.76621094 14.32255371 -12.09492188 13.24666992 -12.43359375 12.13818359 C-13.0962727 8.46659945 -12.78358418 5.63453194 -12 2 C-8.94757574 -1.90710305 -4.37890222 -1.64546018 0 0 Z " fill="#FFFDFD" transform="translate(341,337)"/>
<path d="M0 0 C6.6 0 13.2 0 20 0 C20 3.3 20 6.6 20 10 C15.86810221 10.5578062 12.1138106 10.76256001 8 10 C4.65989242 7.44937239 2.26698232 4.52715779 0 1 C0 0.67 0 0.34 0 0 Z " fill="#C7CBCD" transform="translate(428,298)"/>
</svg>
