<?xml version="1.0" encoding="UTF-8"?>
<svg version="1.1" xmlns="http://www.w3.org/2000/svg" width="512" height="512">
<path d="M0 0 C1.46214033 -0.0046197 2.924276 -0.01097974 4.38640213 -0.01890898 C8.36821863 -0.03547893 12.34964758 -0.0274128 16.33146477 -0.0149641 C20.63966258 -0.00586491 24.94779657 -0.01990734 29.25598145 -0.03088379 C37.68148999 -0.04862191 46.10685559 -0.04485008 54.53236961 -0.03323323 C61.3831232 -0.02418059 68.23383687 -0.02298281 75.08459473 -0.02732849 C76.06155784 -0.02794142 77.03852095 -0.02855436 78.04508901 -0.02918586 C80.03009257 -0.03046483 82.01509612 -0.03176168 84.00009966 -0.03307623 C102.59082476 -0.04446824 121.18147081 -0.03138999 139.77218294 -0.00987476 C155.70590892 0.00799496 171.63951831 0.00489046 187.57324219 -0.0135498 C206.09980054 -0.03498091 224.62628971 -0.04336973 243.15285873 -0.03110075 C245.13034819 -0.02982662 247.10783767 -0.02856914 249.08532715 -0.02732849 C250.05815809 -0.02671139 251.03098902 -0.02609429 252.03329968 -0.02545848 C258.87170406 -0.0220123 265.71006436 -0.02781812 272.54846191 -0.0372467 C280.88810405 -0.04849298 289.22759568 -0.04537153 297.56722069 -0.02412373 C301.81801506 -0.01364859 306.06855897 -0.00943072 310.3193512 -0.02272034 C314.21791148 -0.03472394 318.11599143 -0.02795213 322.01450872 -0.00681013 C323.41743294 -0.00237752 324.82039855 -0.00453422 326.22329569 -0.01431328 C343.22616016 -0.12365229 357.46890407 4.92815153 369.89746094 16.69543457 C384.38952849 32.00189785 386.69433498 48.07545945 386.5390625 68.16931152 C386.53793231 70.23031594 386.53857123 72.29132196 386.54083252 74.35232544 C386.54197389 79.91143912 386.5185583 85.4702032 386.49053669 91.02923608 C386.46542647 96.85212925 386.46317347 102.67503162 386.45843506 108.49797058 C386.44603347 119.50843865 386.41325009 130.51874667 386.3730371 141.52914447 C386.32823153 154.07090175 386.30631028 166.61266692 386.28625536 179.15448439 C386.2445149 204.9390563 386.17421783 230.72348644 386.08496094 256.50793457 C387.24431152 256.4869873 388.40366211 256.46604004 389.59814453 256.44445801 C393.94046451 256.37151227 398.28273143 256.3259383 402.62548828 256.28820801 C404.49732603 256.26821594 406.36910232 256.24101289 408.24072266 256.20617676 C431.88797111 255.77737332 431.88797111 255.77737332 441.55371094 264.80480957 C448.5234622 272.55687985 450.38534875 280.4020178 450.37548828 290.59313965 C450.38556412 292.09432594 450.38556412 292.09432594 450.39584351 293.62583923 C450.4148039 296.92643227 450.41874678 300.22682174 450.42089844 303.52746582 C450.42732784 305.82903628 450.43405631 308.13060593 450.44107056 310.43217468 C450.45303852 315.25472915 450.45675188 320.07721201 450.45556641 324.89978027 C450.45536328 331.06666917 450.48266186 337.23309692 450.51711082 343.39987659 C450.53939412 348.15351961 450.54340349 352.90705192 450.54234695 357.66074181 C450.54470088 359.93363725 450.5535126 362.20653584 450.56901169 364.47937965 C450.5886994 367.66475961 450.58282205 370.84914855 450.57080078 374.0345459 C450.58203979 374.96523895 450.59327881 375.89593201 450.6048584 376.85482788 C450.51355547 386.41911075 446.67299857 394.58747302 440.08496094 401.50793457 C432.73996494 407.29579142 425.63344257 408.80710223 416.46452332 408.77536011 C415.5020285 408.77989122 414.53953369 408.78442233 413.54787236 408.78909075 C410.32605541 408.80174048 407.10440738 408.800114 403.88256836 408.79846191 C401.57119021 408.80444679 399.25981407 408.81125225 396.94844055 408.81881714 C390.67152155 408.8364883 384.39465707 408.84117299 378.1177156 408.84244871 C372.87669973 408.8443482 367.63569655 408.85170631 362.39468557 408.8587929 C350.73489797 408.87414856 339.07513693 408.88013044 327.41534003 408.8787822 C326.716166 408.87870229 326.01699198 408.87862237 325.29663086 408.87854004 C324.59659958 408.87845828 323.89656829 408.87837652 323.17532394 408.87829228 C311.83297446 408.87747955 300.49075783 408.8966153 289.14844676 408.92481677 C277.49212389 408.95356948 265.83587185 408.96698978 254.1795128 408.96562922 C247.63940726 408.96511941 241.09945208 408.97081318 234.55937767 408.99198532 C228.40746074 409.01135712 222.25583778 409.01149909 216.10391045 408.99695206 C213.84848857 408.99486158 211.59304835 408.99957899 209.33765793 409.01167297 C206.25354393 409.02713715 203.1704421 409.01780889 200.08634949 409.00241089 C199.19839398 409.01269801 198.31043847 409.02298514 197.39557523 409.033584 C188.00911964 408.93035224 179.86203574 404.95947303 173.08496094 398.50793457 C167.12610702 390.94593722 165.78519411 383.72265031 165.88964844 374.29699707 C165.89247833 373.32886078 165.89530823 372.36072449 165.89822388 371.36325073 C165.90937398 368.28635029 165.93446914 365.20974629 165.95996094 362.13293457 C165.96999742 360.04049087 165.9791221 357.94804259 165.98730469 355.85559082 C166.00929641 350.73959206 166.04379068 345.62381349 166.08496094 340.50793457 C165.1641187 340.51162174 164.24327646 340.51530891 163.29452991 340.51910782 C140.8497594 340.60758893 118.40501911 340.6737074 95.96011066 340.71518326 C85.10574884 340.73577571 74.25150371 340.76383275 63.3972168 340.80969238 C53.93250245 340.84966185 44.46787266 340.87539147 35.00307626 340.88428855 C29.99524888 340.8894862 24.98766331 340.90163305 19.97991371 340.9308548 C15.25786057 340.95818386 10.53614679 340.96634451 5.81402206 340.9603653 C4.08918979 340.96145776 2.36434511 340.9693068 0.63958168 340.98475647 C-17.37938664 341.13812455 -32.29485903 337.0384154 -45.72753906 324.32043457 C-61.16891245 308.0113183 -62.51358267 290.97074723 -62.43261719 269.65637207 C-62.43804451 267.25192848 -62.44517058 264.84748822 -62.45385742 262.4430542 C-62.47013941 256.61637094 -62.46784501 250.78991974 -62.45620686 244.96322966 C-62.44713549 240.22345512 -62.44596444 235.48373826 -62.45030212 230.74395752 C-62.45091506 230.06673342 -62.45152799 229.38950932 -62.45215949 228.69176328 C-62.45343853 227.31555571 -62.45473538 225.93934816 -62.45604986 224.56314063 C-62.46742812 211.68939517 -62.45438538 198.81576405 -62.43284839 185.94203734 C-62.41497989 174.92032609 -62.41808477 163.89878341 -62.43652344 152.8770752 C-62.45797903 140.04618116 -62.46632974 127.21538709 -62.45407438 114.38447762 C-62.45280032 113.0136223 -62.45154284 111.64276697 -62.45030212 110.27191162 C-62.44968502 109.59760459 -62.44906792 108.92329756 -62.44843212 108.22855699 C-62.44499324 103.50010468 -62.45077581 98.77171632 -62.46022034 94.04327393 C-62.47181921 87.66715756 -62.46367909 81.29135791 -62.44064331 74.91527557 C-62.43537781 72.58252232 -62.43683274 70.24974218 -62.44569397 67.91699982 C-62.5148549 47.85236503 -60.14122863 31.91911534 -45.72753906 16.69543457 C-32.55860741 4.22716914 -17.85017889 -0.12442674 0 0 Z " fill="#D4D9DC" transform="translate(61.9150390625,51.4920654296875)"/>
<path d="M0 0 C8.83584226 5.11046012 14.81122622 12.73812048 21.10546875 20.59765625 C23.86058126 23.92218788 26.74481579 27.09207529 29.6875 30.25 C30.20675049 30.80727783 30.72600098 31.36455566 31.26098633 31.9387207 C32.25763934 33.00798496 33.25430228 34.07723995 34.25097656 35.14648438 C38.05312013 39.25155376 41.67129896 43.51631885 45.30078125 47.7734375 C46.32533092 48.97412041 47.35007646 50.17463621 48.375 51.375 C48.89231689 51.98118164 49.40963379 52.58736328 49.94262695 53.21191406 C53.14752229 56.9532082 56.41459278 60.62365383 59.75 64.25 C62.93986844 67.72386309 65.98298894 71.26160025 68.9375 74.9375 C72.80468863 79.7339071 76.91230716 84.2329146 81.12060547 88.72607422 C84.23789336 92.07331785 87.19816482 95.49245906 90.0625 99.0625 C94.40061256 104.46542201 99.06401501 109.50932342 103.78515625 114.57421875 C107.13131853 118.16410418 110.37318282 121.83273368 113.5625 125.5625 C114.01077148 126.08440918 114.45904297 126.60631836 114.92089844 127.14404297 C116.45051259 128.92661273 117.97585419 130.71275327 119.5 132.5 C119.99765869 133.08072266 120.49531738 133.66144531 121.00805664 134.25976562 C124.5625 138.447175 124.5625 138.447175 124.5625 139.5625 C123.63558224 139.56304477 122.70866447 139.56358953 121.75365829 139.56415081 C99.16723311 139.57856617 76.5810002 139.62166534 53.99468613 139.69459057 C43.07195568 139.72919773 32.14935088 139.75459049 21.2265625 139.75805664 C11.70279143 139.76110247 2.17924437 139.78167618 -7.34444022 139.82302457 C-12.3840782 139.8443 -17.42339814 139.85698326 -22.46308136 139.84865379 C-27.21402266 139.84107908 -31.96432137 139.85707472 -36.71514511 139.89056015 C-38.45164726 139.89875236 -40.18821381 139.89859221 -41.92470932 139.88909721 C-57.69895066 139.73652927 -57.69895066 139.73652927 -71.12863541 147.22789288 C-71.77652338 147.8885234 -71.77652338 147.8885234 -72.4375 148.5625 C-73.0975 148.5625 -73.7575 148.5625 -74.4375 148.5625 C-74.71464844 149.12066406 -74.99179688 149.67882812 -75.27734375 150.25390625 C-76.06964452 151.83050475 -76.87495523 153.40061517 -77.69140625 154.96484375 C-78.12324219 155.80144531 -78.55507812 156.63804687 -79 157.5 C-79.43441406 158.33402344 -79.86882812 159.16804687 -80.31640625 160.02734375 C-82.24189883 164.38150641 -82.56818007 168.54696726 -82.64282227 173.27075195 C-82.66276749 174.39153641 -82.68271271 175.51232086 -82.70326233 176.66706848 C-82.71997482 177.8661937 -82.73668732 179.06531891 -82.75390625 180.30078125 C-82.7850779 182.15463692 -82.7850779 182.15463692 -82.81687927 184.04594421 C-82.87109931 187.31902126 -82.92137578 190.5921274 -82.96972656 193.86529541 C-83.0201157 197.2103826 -83.07578816 200.55537724 -83.13085938 203.90039062 C-83.23785943 210.45435771 -83.33965892 217.00839013 -83.4375 223.5625 C-106.81241057 223.65609618 -130.18729008 223.72655401 -153.56235027 223.76974869 C-164.4167121 223.79034114 -175.27095723 223.81839818 -186.12524414 223.86425781 C-195.58995848 223.90422728 -205.05458828 223.9299569 -214.51938468 223.93885398 C-219.52721205 223.94405163 -224.53479763 223.95619848 -229.54254723 223.98542023 C-234.26460037 224.01274929 -238.98631415 224.02090994 -243.70843887 224.01493073 C-245.43327115 224.01602319 -247.15811583 224.02387223 -248.88287926 224.0393219 C-266.90184758 224.19268998 -281.81731996 220.09298082 -295.25 207.375 C-307.92812231 193.98441837 -312.25565401 179.27475801 -312.2487793 161.23413086 C-311.96114673 153.7832172 -310.72488598 149.29299187 -305.203125 143.98828125 C-304.29046875 143.18777344 -303.3778125 142.38726562 -302.4375 141.5625 C-300.39067736 139.43827074 -298.41989029 137.24673022 -296.4375 135.0625 C-295.40660955 133.95799763 -294.37536381 132.85382677 -293.34375 131.75 C-290.75491328 128.94542688 -288.32665252 126.0402843 -285.9375 123.0625 C-282.11755989 118.30141522 -278.04811181 113.84976975 -273.87890625 109.3984375 C-270.76181446 106.05133131 -267.80168887 102.63235859 -264.9375 99.0625 C-261.06982156 94.24548231 -256.96527645 89.7125552 -252.74926758 85.20288086 C-249.97100558 82.23079701 -247.25930983 79.22697382 -244.625 76.125 C-238.37629758 68.97287072 -231.84215964 63.29746094 -222.1015625 62.1796875 C-211.57684642 61.8372347 -204.34776353 63.76797405 -196.375 70.6875 C-189.78545068 76.98875653 -183.84611278 83.78534765 -178.125 90.875 C-174.71329122 95.09646863 -171.14448676 99.10340079 -167.4375 103.0625 C-162.90969399 107.89902006 -158.63626732 112.87192644 -154.484375 118.0390625 C-151.56772009 121.63478593 -148.5173214 125.10636601 -145.4375 128.5625 C-140.42537391 124.83553444 -136.81396085 120.4582367 -132.92578125 115.58984375 C-130.36365577 112.47265812 -127.68836855 109.5115 -124.9375 106.5625 C-121.48542779 102.85432168 -118.17225159 99.0774075 -115 95.125 C-111.15639943 90.34628372 -107.06789836 85.87092313 -102.87915039 81.39868164 C-99.76196055 78.05150673 -96.80176202 74.63244977 -93.9375 71.0625 C-90.11755989 66.30141522 -86.04811181 61.84976975 -81.87890625 57.3984375 C-78.76181446 54.05133131 -75.80168887 50.63235859 -72.9375 47.0625 C-69.1169151 42.30061158 -65.04682197 37.84814406 -60.87670898 33.39624023 C-57.77969916 30.070952 -54.84128316 26.67530061 -52 23.125 C-38.54190696 6.55745586 -23.22561848 -10.56247872 0 0 Z " fill="#256F3A" transform="translate(311.4375,168.4375)"/>
<path d="M0 0 C1.43043321 -0.00679667 1.43043321 -0.00679667 2.88976407 -0.01373065 C6.08160844 -0.02637944 9.27328228 -0.02475394 12.46514893 -0.02310181 C14.75520039 -0.02908678 17.04524984 -0.03589226 19.33529663 -0.04345703 C25.55443348 -0.06112818 31.7735153 -0.06581291 37.99267483 -0.0670886 C41.8793514 -0.06851023 45.76601398 -0.07278007 49.65268707 -0.07808304 C62.51557461 -0.09563266 75.37841767 -0.10492283 88.24131545 -0.10342209 C88.93425277 -0.10334218 89.62719008 -0.10326227 90.34112549 -0.10317993 C91.03491323 -0.10309817 91.72870097 -0.10301641 92.44351259 -0.10293217 C103.68172264 -0.10211965 114.91979854 -0.12124996 126.1579698 -0.14945666 C137.70920956 -0.17821932 149.26036662 -0.19162923 160.81164479 -0.19026911 C167.29197904 -0.18975953 173.77216149 -0.19544101 180.25246429 -0.21662521 C186.34939317 -0.23601182 192.44602551 -0.23612885 198.54296494 -0.22159195 C200.77700357 -0.21950325 203.01106078 -0.22420836 205.2450676 -0.23631287 C208.30255933 -0.25180237 211.3590333 -0.24243217 214.41650391 -0.22705078 C215.29376467 -0.23733791 216.17102544 -0.24762503 217.07486987 -0.25822389 C225.73942492 -0.1623612 233.54401197 2.59912346 239.93096924 8.56430054 C246.9007205 16.31637082 248.76260705 24.16150877 248.75274658 34.35263062 C248.75946381 35.35342148 248.76618103 36.35421234 248.77310181 37.3853302 C248.7920622 40.68592324 248.79600508 43.98631271 248.79815674 47.28695679 C248.80458614 49.58852725 248.81131461 51.89009689 248.81832886 54.19166565 C248.83029682 59.01422012 248.83401018 63.83670297 248.83282471 68.65927124 C248.83262158 74.82616013 248.85992016 80.99258789 248.89436913 87.15936756 C248.91665242 91.91301058 248.9206618 96.66654288 248.91960526 101.42023277 C248.92195918 103.69312822 248.93077091 105.9660268 248.94626999 108.23887062 C248.9659577 111.42425058 248.96008035 114.60863952 248.94805908 117.79403687 C248.9592981 118.72472992 248.97053711 119.65542297 248.9821167 120.61431885 C248.89081377 130.17860172 245.05025687 138.34696398 238.46221924 145.26742554 C231.11722324 151.05528238 224.01070087 152.56659319 214.84178162 152.53485107 C213.8792868 152.53938219 212.91679199 152.5439133 211.92513067 152.54858172 C208.70331371 152.56123144 205.48166568 152.55960496 202.25982666 152.55795288 C199.94844851 152.56393776 197.63707237 152.57074321 195.32569885 152.57830811 C189.04877985 152.59597926 182.77191537 152.60066396 176.4949739 152.60193968 C171.25395803 152.60383917 166.01295485 152.61119728 160.77194387 152.61828387 C149.11215627 152.63363953 137.45239524 152.63962141 125.79259833 152.63827316 C125.0934243 152.63819325 124.39425028 152.63811334 123.67388916 152.63803101 C122.97385788 152.63794924 122.27382659 152.63786748 121.55258224 152.63778324 C110.21023276 152.63697052 98.86801613 152.65610626 87.52570506 152.68430774 C75.86938219 152.71306045 64.21313015 152.72648075 52.5567711 152.72512019 C46.01666556 152.72461038 39.47671038 152.73030415 32.93663597 152.75147629 C26.78471904 152.77084809 20.63309608 152.77099006 14.48116875 152.75644302 C12.22574687 152.75435255 9.97030665 152.75906996 7.71491623 152.77116394 C4.63080224 152.78662812 1.5477004 152.77729986 -1.53639221 152.76190186 C-2.42434772 152.77218898 -3.31230322 152.78247611 -4.22716647 152.79307497 C-13.61362206 152.6898432 -21.76070596 148.718964 -28.53778076 142.26742554 C-34.34618902 134.89634906 -35.83782552 127.76511619 -35.81243896 118.5652771 C-35.82010536 117.12502167 -35.82010536 117.12502167 -35.82792664 115.65567017 C-35.84179625 112.48973306 -35.84086742 109.32401437 -35.83856201 106.15805054 C-35.84245118 103.94855672 -35.84678631 101.73906364 -35.85154724 99.52957153 C-35.8590044 94.89952166 -35.85872238 90.26954803 -35.85345459 85.63949585 C-35.84766929 79.72387832 -35.86457089 73.80857484 -35.88779926 67.89300919 C-35.90257786 63.32891025 -35.90340253 58.76488615 -35.90028954 54.20076752 C-35.90080096 52.02081431 -35.90600485 49.84085671 -35.91610146 47.66092682 C-35.92852459 44.60279856 -35.92163823 41.54527171 -35.91009521 38.4871521 C-35.91773895 37.59745728 -35.92538269 36.70776245 -35.93325806 35.79110718 C-35.84836773 25.54649587 -33.08715135 17.44865315 -26.28778076 9.70492554 C-18.22974258 2.56257351 -10.67336315 -0.03730331 0 0 Z " fill="#FD83AE" transform="translate(263.53778076171875,307.7325744628906)"/>
<path d="M0 0 C10.28888354 6.30938147 18.18419146 16.478076 25.67578125 25.76171875 C29.08749003 29.98318738 32.65629449 33.99011954 36.36328125 37.94921875 C40.89344958 42.7882622 45.17742447 47.75555285 49.3125 52.94140625 C51.81351555 55.99979098 54.49319818 58.86288884 57.24609375 61.6953125 C58.36328125 63.44921875 58.36328125 63.44921875 58.38671875 65.29296875 C56.83195541 68.56865334 54.36299244 70.94197911 51.86328125 73.51171875 C48.0336359 77.54530972 44.33796064 81.59948223 40.86328125 85.94921875 C37.52025173 90.11589323 34.01204012 94.05331911 30.36328125 97.94921875 C25.81023245 102.81299695 21.50295504 107.80861881 17.3359375 113.01171875 C15.1628824 115.6968403 12.89145538 118.27325716 10.5546875 120.81640625 C6.28439205 126.66881116 6.60744699 133.53413934 7.36328125 140.44921875 C9.37784338 147.60775991 12.93240117 151.56829256 19.27734375 155.29296875 C19.96570313 155.67453125 20.6540625 156.05609375 21.36328125 156.44921875 C22.35328125 157.10921875 23.34328125 157.76921875 24.36328125 158.44921875 C13.50525113 158.54231155 2.64731753 158.61318183 -8.21103191 158.65646744 C-13.25419501 158.67725294 -18.29708304 158.70540353 -23.34008789 158.75097656 C-28.21603371 158.7947591 -33.09171663 158.81842364 -37.96784401 158.82872772 C-39.81879623 158.83606137 -41.66973571 158.85038059 -43.52057457 158.87213898 C-62.24793608 159.08333986 -77.35326777 155.60768052 -91.44921875 142.26171875 C-104.12734106 128.87113712 -108.45487276 114.16147676 -108.44799805 96.12084961 C-108.16036548 88.66993595 -106.92410473 84.17971062 -101.40234375 78.875 C-100.4896875 78.07449219 -99.57703125 77.27398437 -98.63671875 76.44921875 C-96.58989611 74.32498949 -94.61910904 72.13344897 -92.63671875 69.94921875 C-91.6058283 68.84471638 -90.57458256 67.74054552 -89.54296875 66.63671875 C-86.95413203 63.83214563 -84.52587127 60.92700305 -82.13671875 57.94921875 C-78.31677864 53.18813397 -74.24733056 48.7364885 -70.078125 44.28515625 C-66.96103321 40.93805006 -64.00090762 37.51907734 -61.13671875 33.94921875 C-57.26904031 29.13220106 -53.1644952 24.59927395 -48.94848633 20.08959961 C-46.17022433 17.11751576 -43.45852858 14.11369257 -40.82421875 11.01171875 C-30.11656474 -1.24402982 -15.91237863 -7.42230427 0 0 Z " fill="#5DC122" transform="translate(107.63671875,233.55078125)"/>
<path d="M0 0 C2.16348724 0.0062619 4.32133247 -0.04037268 6.48413086 -0.09130859 C15.34718751 -0.17271535 22.40824638 1.05674166 29.63061523 6.63134766 C35.35956879 12.59665714 38.7375458 19.0943036 39.06811523 27.44384766 C38.86397742 35.58894639 35.83372098 41.80280623 31.63061523 48.63134766 C32.05213867 49.31841797 32.47366211 50.00548828 32.90795898 50.71337891 C33.45581055 51.61443359 34.00366211 52.51548828 34.56811523 53.44384766 C35.11338867 54.33716797 35.65866211 55.23048828 36.22045898 56.15087891 C39.72127053 62.30881611 39.64856821 69.66465047 37.91186523 76.43212891 C34.05863113 86.6711663 28.43637249 91.14495797 18.63061523 95.63134766 C13.17025703 97.33511013 7.35465862 96.8976184 1.69311523 96.94384766 C-0.07708984 96.98735352 -0.07708984 96.98735352 -1.88305664 97.03173828 C-3.02194336 97.04011719 -4.16083008 97.04849609 -5.33422852 97.05712891 C-6.89065063 97.07900269 -6.89065063 97.07900269 -8.47851562 97.10131836 C-12.10066512 96.51246288 -13.74995351 95.14659865 -16.36938477 92.63134766 C-17.95283691 89.46444337 -17.53455685 86.05188792 -17.54638672 82.57324219 C-17.55295792 81.74056824 -17.55952911 80.90789429 -17.56629944 80.04998779 C-17.58604824 77.28804439 -17.5976976 74.52615536 -17.60766602 71.76416016 C-17.61174154 70.82218655 -17.61581707 69.88021294 -17.6200161 68.90969467 C-17.64088208 63.92547575 -17.65518237 58.94128442 -17.66455078 53.95703125 C-17.6756255 48.80291709 -17.71003609 43.64923345 -17.74972248 38.49527168 C-17.77583483 34.5370502 -17.78423774 30.57893222 -17.78783226 26.62063217 C-17.79271098 24.72038739 -17.80436136 22.82014762 -17.82287025 20.91998672 C-17.84715101 18.26238863 -17.84631734 15.60591664 -17.83935547 12.94824219 C-17.85216553 12.16160187 -17.86497559 11.37496155 -17.87817383 10.56448364 C-17.8445178 7.0445369 -17.65452353 5.01897645 -15.54107666 2.14587402 C-11.11430762 -0.94133114 -5.22540949 -0.03160176 0 0 Z " fill="#FEFCFD" transform="translate(393.369384765625,335.36865234375)"/>
<path d="M0 0 C0.72574219 0.41378906 1.45148438 0.82757813 2.19921875 1.25390625 C3.36517578 1.89005859 3.36517578 1.89005859 4.5546875 2.5390625 C14.21861767 8.35037059 20.22824138 17.44432342 23.19921875 28.25390625 C24.57020406 40.46424418 22.218309 51.14758128 15.19921875 61.25390625 C8.02355213 69.50209243 -0.33154777 74.70194909 -11.296875 75.796875 C-23.7418581 76.55241379 -32.39920782 73.87604536 -42.44921875 66.2421875 C-49.66793814 59.75493303 -54.52924325 51.51234566 -55.26953125 41.734375 C-55.72376573 29.445869 -53.65701077 19.98066661 -45.80078125 10.25390625 C-34.36817242 -1.99004901 -15.61527786 -7.60880262 0 0 Z " fill="#FEB301" transform="translate(180.80078125,103.74609375)"/>
<path d="M0 0 C2.9090654 0.7727205 4.07490146 2.24673224 6 4.53125 C6.78955078 7.1340332 6.78955078 7.1340332 7.1953125 10.08203125 C7.35290039 11.16693848 7.51048828 12.2518457 7.67285156 13.36962891 C7.82206055 14.51608887 7.97126953 15.66254883 8.125 16.84375 C8.28967773 18.00825684 8.45435547 19.17276367 8.62402344 20.37255859 C9.09895607 23.75680628 9.55200419 27.14334637 10 30.53125 C10.23078206 32.21497957 10.46241884 33.89859245 10.6953125 35.58203125 C11.15245372 38.89569395 11.57904081 42.21279912 12 45.53125 C12.16081055 44.82516602 12.32162109 44.11908203 12.48730469 43.39160156 C13.22659535 40.1844933 13.98801809 36.98303936 14.75 33.78125 C15.00265625 32.67007813 15.2553125 31.55890625 15.515625 30.4140625 C15.90234375 28.80917969 15.90234375 28.80917969 16.296875 27.171875 C16.52729492 26.18735352 16.75771484 25.20283203 16.99511719 24.18847656 C18.15213351 21.12896111 19.5019663 19.61113195 22 17.53125 C24 17 24 17 26 17.03125 C26.66 17.0209375 27.32 17.010625 28 17 C31.00095148 17.79712774 32.09272303 19.08682156 34 21.53125 C35.02163568 24.13896097 35.8680455 26.60202945 36.625 29.28125 C36.82867187 29.95929688 37.03234375 30.63734375 37.2421875 31.3359375 C38.63551221 36.0339426 39.83677167 40.77161847 41 45.53125 C43.13716018 43.39408982 42.5903965 38.79244336 42.83203125 35.82421875 C42.99202592 34.0227141 43.15285979 32.22128383 43.31445312 30.41992188 C43.56609752 27.5698343 43.81242302 24.71969721 44.04418945 21.86791992 C44.26966231 19.12248432 44.517755 16.37985059 44.76953125 13.63671875 C44.83324417 12.78554977 44.89695709 11.9343808 44.96260071 11.05741882 C45.33091525 7.2214288 45.55712605 5.10662607 47.9519043 1.99536133 C50.82412102 -0.05788503 52.66384307 -0.05101339 56.09375 0.16015625 C58 0.53125 58 0.53125 60.5 1.96875 C64.75762782 9.24219752 61.35287684 21.44578423 60.5390625 29.625 C60.3866893 31.18239196 60.23454288 32.73980613 60.08261108 34.29724121 C59.76437369 37.54855374 59.44287995 40.79952384 59.11914062 44.05029297 C58.70670539 48.19508905 58.30323785 52.34070143 57.90232277 56.48662567 C57.59052046 59.69910526 57.27351577 62.91105593 56.95502853 66.12287903 C56.80425657 67.65037067 56.65515554 69.17802828 56.50783157 70.70585632 C54.48391419 91.62343376 54.48391419 91.62343376 51.67861938 95.23010254 C49.30887609 97.06696056 46.95351073 96.99004719 44.03515625 97.125 C40.8401035 96.19285409 39.86812752 94.24267438 38 91.53125 C36.8566862 88.87647962 36.02632347 86.15524278 35.203125 83.38671875 C34.9646283 82.61693192 34.72613159 81.84714508 34.48040771 81.05403137 C33.72643426 78.61201995 32.98803295 76.16562049 32.25 73.71875 C31.73930493 72.05502397 31.22759666 70.39160859 30.71484375 68.72851562 C29.46480817 64.66626178 28.22870941 60.60000267 27 56.53125 C26.60675537 58.04477051 26.60675537 58.04477051 26.20556641 59.58886719 C25.22975535 63.339724 24.24808148 67.08902568 23.26464844 70.83789062 C22.84020016 72.45921825 22.41733318 74.08096072 21.99609375 75.703125 C21.38959482 78.03757372 20.77738496 80.37046101 20.1640625 82.703125 C19.88425034 83.78772003 19.88425034 83.78772003 19.5987854 84.89422607 C17.27345379 93.68228081 17.27345379 93.68228081 13 96.53125 C9.392144 96.99182736 7.69809177 97.05481882 4.75 94.84375 C1.17552387 90.12033511 0.56186808 85.23830279 0 79.46875 C-0.6043517 73.497979 -1.4578974 67.6135265 -2.46923828 61.69750977 C-3.37057869 56.3205623 -4.14849924 50.92563097 -4.9375 45.53125 C-6.39884559 35.54974289 -6.39884559 35.54974289 -7.92578125 25.578125 C-8.0657251 24.67707031 -8.20566895 23.77601563 -8.34985352 22.84765625 C-8.60778979 21.19333888 -8.8696961 19.53963324 -9.13647461 17.88671875 C-10.96278833 6.09578104 -10.96278833 6.09578104 -8.5 2.09375 C-5.48763856 0.2110241 -3.4842503 0.05444141 0 0 Z " fill="#FEFDFD" transform="translate(258,335.46875)"/>
<path d="M0 0 C2.16348724 0.0062619 4.32133247 -0.04037268 6.48413086 -0.09130859 C15.34718751 -0.17271535 22.40824638 1.05674166 29.63061523 6.63134766 C35.35956879 12.59665714 38.7375458 19.0943036 39.06811523 27.44384766 C38.85973958 35.01167258 36.63196388 42.64817198 31.25561523 48.24853516 C21.12317531 56.87085182 11.28511278 56.30063548 -1.36938477 55.63134766 C-1.3484375 56.66541748 -1.32749023 57.6994873 -1.3059082 58.76489258 C-1.23333188 62.61322094 -1.18752159 66.46148919 -1.1496582 70.31030273 C-1.12958269 71.97381779 -1.102316 73.63726262 -1.06762695 75.30053711 C-1.0189271 77.69614005 -0.99637621 80.09080758 -0.97875977 82.48681641 C-0.95811462 83.22659225 -0.93746948 83.9663681 -0.91619873 84.7285614 C-0.91460378 88.42579489 -1.25603181 90.45425188 -3.26879883 93.59887695 C-5.36938477 95.63134766 -5.36938477 95.63134766 -7.36938477 96.29541016 C-8.35938477 96.27607422 -8.35938477 96.27607422 -9.36938477 96.25634766 C-10.02938477 96.26923828 -10.68938477 96.28212891 -11.36938477 96.29541016 C-14.56295725 95.23504429 -15.57533738 93.43753916 -17.36938477 90.63134766 C-17.75671009 87.70372998 -17.91731129 85.15585106 -17.88696289 82.23266602 C-17.89397217 81.39955399 -17.90098145 80.56644196 -17.90820312 79.70808411 C-17.92576765 76.96211133 -17.91416719 74.21717413 -17.90063477 71.47119141 C-17.90332987 69.55977684 -17.90721245 67.64836361 -17.91223145 65.73695374 C-17.91812418 61.73474042 -17.90956981 57.7328846 -17.89086914 53.73071289 C-17.86806429 48.60013136 -17.8812138 43.47038611 -17.905159 38.33983517 C-17.91960987 34.39443148 -17.91501452 30.44922625 -17.90464783 26.5038166 C-17.90197937 24.61197371 -17.90525446 22.7201128 -17.91456604 20.82829094 C-17.92472169 18.18525285 -17.90924576 15.54357172 -17.88696289 12.90063477 C-17.89505981 12.11870758 -17.90315674 11.3367804 -17.91149902 10.53115845 C-17.85672695 7.02567257 -17.64613465 5.00651134 -15.5381012 2.14884949 C-11.11712362 -0.94461238 -5.22363538 -0.03159103 0 0 Z " fill="#FEFDFE" transform="translate(453.369384765625,335.36865234375)"/>
<path d="M0 0 C1.79143681 -0.01390715 3.58286486 -0.02898414 5.37428284 -0.0451355 C10.21497953 -0.08427283 15.0555519 -0.10379271 19.89638186 -0.11716747 C22.9240855 -0.12599012 25.95175585 -0.1383095 28.9794426 -0.15167999 C38.46319392 -0.19262598 47.94686832 -0.22167154 57.43070185 -0.23328567 C68.36076733 -0.24674758 79.28971099 -0.29951378 90.21943533 -0.38628745 C98.68425876 -0.45115149 107.14876641 -0.48139867 115.61383569 -0.48540902 C120.66360723 -0.48854984 125.71232044 -0.50619903 130.76182938 -0.55986786 C135.50827499 -0.60934435 140.25286751 -0.61576586 144.99947929 -0.58945084 C146.7377399 -0.58714196 148.47610077 -0.60014061 150.21410942 -0.62982559 C163.33839039 -0.84079591 163.33839039 -0.84079591 168.0499382 2.52349091 C173.19287109 8.18201788 173.19287109 8.18201788 173.19287109 10.48339844 C172.26595333 10.4839432 171.33903557 10.48448797 170.38402939 10.48504925 C147.7976042 10.49946461 125.21137129 10.54256377 102.62505722 10.61548901 C91.70232678 10.65009617 80.77972198 10.67548893 69.85693359 10.67895508 C60.33316252 10.68200091 50.80961547 10.70257462 41.28593087 10.74392301 C36.24629289 10.76519843 31.20697296 10.7778817 26.16728973 10.76955223 C21.41634843 10.76197752 16.66604972 10.77797316 11.91522598 10.81145859 C10.17872384 10.8196508 8.44215729 10.81949065 6.70566177 10.80999565 C-9.06857956 10.65742771 -9.06857956 10.65742771 -22.49826431 18.14879131 C-22.93018963 18.58921166 -23.36211494 19.02963202 -23.80712891 19.48339844 C-24.46712891 19.48339844 -25.12712891 19.48339844 -25.80712891 19.48339844 C-26.08427734 20.0415625 -26.36142578 20.59972656 -26.64697266 21.17480469 C-27.43927342 22.75140318 -28.24458414 24.3215136 -29.06103516 25.88574219 C-29.49287109 26.72234375 -29.92470703 27.55894531 -30.36962891 28.42089844 C-30.80404297 29.25492187 -31.23845703 30.08894531 -31.68603516 30.94824219 C-33.61152773 35.30240484 -33.93780898 39.46786569 -34.01245117 44.19165039 C-34.03239639 45.31243484 -34.05234161 46.4332193 -34.07289124 47.58796692 C-34.08960373 48.78709213 -34.10631622 49.98621735 -34.12353516 51.22167969 C-34.14431625 52.45758347 -34.16509735 53.69348724 -34.18650818 54.96684265 C-34.24072821 58.23991969 -34.29100469 61.51302584 -34.33935547 64.78619385 C-34.38974461 68.13128103 -34.44541707 71.47627568 -34.50048828 74.82128906 C-34.60748833 81.37525615 -34.70928782 87.92928857 -34.80712891 94.48339844 C-38.10712891 94.48339844 -41.40712891 94.48339844 -44.80712891 94.48339844 C-44.87688787 85.9031511 -44.93007079 77.32302386 -44.96256542 68.74256229 C-44.97816758 64.75755297 -44.99930507 60.77273883 -45.03344727 56.7878418 C-45.06623673 52.93637126 -45.08402283 49.08508752 -45.09176064 45.23348808 C-45.09726923 43.76999411 -45.10802552 42.30650942 -45.12431908 40.84309578 C-45.2550836 28.60261976 -43.8066608 19.11548786 -35.80712891 9.48339844 C-25.8145969 -0.38019767 -13.15361646 0.02390372 0 0 Z " fill="#216031" transform="translate(262.80712890625,297.5166015625)"/>
<path d="M0 0 C1.18142578 -0.01891296 1.18142578 -0.01891296 2.38671875 -0.03820801 C3.22847656 -0.03011108 4.07023437 -0.02201416 4.9375 -0.01367188 C5.81019531 -0.01749878 6.68289063 -0.02132568 7.58203125 -0.02526855 C9.42449092 -0.02798678 11.26698924 -0.02063182 13.109375 -0.00390625 C15.92795934 0.01750565 18.74399485 -0.00370989 21.5625 -0.02929688 C23.35417229 -0.02665358 25.14584299 -0.02152857 26.9375 -0.01367188 C27.77925781 -0.0217688 28.62101562 -0.02986572 29.48828125 -0.03820801 C33.32470133 0.02320768 35.30549669 0.05576706 38.46875 2.3671875 C40.49492792 5.33370597 40.51315077 6.99171716 39.9375 10.51757812 C38.13756226 13.21748474 36.853727 15.05946462 33.9375 16.51757812 C31.9781396 16.60268018 30.01587206 16.62475469 28.0546875 16.61523438 C26.88808594 16.61201172 25.72148437 16.60878906 24.51953125 16.60546875 C23.29621094 16.59708984 22.07289063 16.58871094 20.8125 16.58007812 C19.58144531 16.57556641 18.35039062 16.57105469 17.08203125 16.56640625 C14.03383361 16.55459153 10.98566084 16.53665563 7.9375 16.51757812 C7.9375 24.43757813 7.9375 32.35757812 7.9375 40.51757812 C13.02382684 40.35995235 13.02382684 40.35995235 18.10839844 40.15722656 C21.61876797 40.10240467 23.56659851 40.24406743 26.421875 42.34960938 C28.50008747 45.3223102 28.5185114 46.95888328 27.9375 50.51757812 C26.13756226 53.21748474 24.853727 55.05946462 21.9375 56.51757812 C17.26841139 56.65753881 12.60951378 56.56005098 7.9375 56.51757812 C7.9375 64.43757813 7.9375 72.35757813 7.9375 80.51757812 C9.91234375 80.47117187 11.8871875 80.42476563 13.921875 80.37695312 C16.51040157 80.33943825 19.09894446 80.30303779 21.6875 80.26757812 C22.98945313 80.2340625 24.29140625 80.20054687 25.6328125 80.16601562 C26.88320313 80.153125 28.13359375 80.14023437 29.421875 80.12695312 C30.57397461 80.10600586 31.72607422 80.08505859 32.91308594 80.06347656 C36.58403594 80.61465246 37.7317066 81.58492075 39.9375 84.51757812 C40.60724422 88.45232541 40.28860528 89.9909202 38.0625 93.33007812 C34.85700844 96.62984885 32.87563188 96.65102466 28.35038757 96.73347473 C27.20821526 96.74455513 27.20821526 96.74455513 26.04296875 96.75585938 C25.2585994 96.76393112 24.47423004 96.77200287 23.66609192 96.78031921 C22.00422373 96.79415874 20.34232713 96.80488149 18.68041992 96.81274414 C16.14511865 96.82994166 13.61112686 96.87382468 11.07617188 96.91796875 C9.46094708 96.92809728 7.84571121 96.93661288 6.23046875 96.94335938 C5.09740547 96.96962151 5.09740547 96.96962151 3.94145203 96.99641418 C0.22183459 96.98117146 -1.85952979 96.64815837 -5.01831055 94.6159668 C-8.68138229 90.85577313 -8.22252229 87.45244664 -8.23950195 82.45947266 C-8.24607315 81.62679871 -8.25264435 80.79412476 -8.25941467 79.93621826 C-8.27916348 77.17427486 -8.29081284 74.41238583 -8.30078125 71.65039062 C-8.30485678 70.70841702 -8.3089323 69.76644341 -8.31313133 68.79592514 C-8.33399731 63.81170622 -8.3482976 58.82751489 -8.35766602 53.84326172 C-8.36874074 48.68914756 -8.40315133 43.53546392 -8.44283772 38.38150215 C-8.46895007 34.42328067 -8.47735298 30.46516269 -8.48094749 26.50686264 C-8.48582622 24.60661786 -8.49747659 22.70637809 -8.51598549 20.80621719 C-8.54026624 18.14861909 -8.53943257 15.49214711 -8.5324707 12.83447266 C-8.54528076 12.04783234 -8.55809082 11.26119202 -8.57128906 10.45071411 C-8.53796969 6.96597634 -8.33660193 4.90159927 -6.28703308 2.03012085 C-3.91311659 0.41600679 -2.82915488 0.0130551 0 0 Z " fill="#FEFCFD" transform="translate(332.0625,335.482421875)"/>
<path d="M0 0 C2.701875 -0.0825 5.40375 -0.165 8.1875 -0.25 C9.02949951 -0.28641602 9.87149902 -0.32283203 10.73901367 -0.36035156 C14.67834344 -0.41841372 16.55879581 -0.282719 19.96875 1.90234375 C23.07707013 5.11228203 23.87789278 6.90103504 24.375 11.375 C23.93060645 15.67080432 22.70408706 17.67783589 20 21 C16.95318939 23.03120707 16.39881676 23.24659875 12.98828125 23.1953125 C12.30548096 23.19031738 11.62268066 23.18532227 10.91918945 23.18017578 C10.05898193 23.16196777 9.19877441 23.14375977 8.3125 23.125 C4.1978125 23.063125 4.1978125 23.063125 0 23 C0 15.41 0 7.82 0 0 Z " fill="#FE84AE" transform="translate(392,392)"/>
<path d="M0 0 C2.701875 -0.0825 5.40375 -0.165 8.1875 -0.25 C9.02949951 -0.28641602 9.87149902 -0.32283203 10.73901367 -0.36035156 C14.67834344 -0.41841372 16.55879581 -0.282719 19.96875 1.90234375 C23.07707013 5.11228203 23.87789278 6.90103504 24.375 11.375 C23.93060645 15.67080432 22.70408706 17.67783589 20 21 C16.95318939 23.03120707 16.39881676 23.24659875 12.98828125 23.1953125 C12.30548096 23.19031738 11.62268066 23.18532227 10.91918945 23.18017578 C10.05898193 23.16196777 9.19877441 23.14375977 8.3125 23.125 C4.1978125 23.063125 4.1978125 23.063125 0 23 C0 15.41 0 7.82 0 0 Z " fill="#FE84AE" transform="translate(452,352)"/>
<path d="M0 0 C2.701875 -0.0825 5.40375 -0.165 8.1875 -0.25 C9.02949951 -0.28641602 9.87149902 -0.32283203 10.73901367 -0.36035156 C14.67834344 -0.41841372 16.55879581 -0.282719 19.96875 1.90234375 C23.07707013 5.11228203 23.87789278 6.90103504 24.375 11.375 C23.93060645 15.67080432 22.70408706 17.67783589 20 21 C16.95318939 23.03120707 16.39881676 23.24659875 12.98828125 23.1953125 C12.30548096 23.19031738 11.62268066 23.18532227 10.91918945 23.18017578 C10.05898193 23.16196777 9.19877441 23.14375977 8.3125 23.125 C4.1978125 23.063125 4.1978125 23.063125 0 23 C0 15.41 0 7.82 0 0 Z " fill="#FE84AE" transform="translate(392,352)"/>
<path d="M0 0 C6.6 0 13.2 0 20 0 C20 3.3 20 6.6 20 10 C15.86810221 10.5578062 12.1138106 10.76256001 8 10 C4.65989242 7.44937239 2.26698232 4.52715779 0 1 C0 0.67 0 0.34 0 0 Z " fill="#C7CBCD" transform="translate(428,298)"/>
</svg>
